<svg height="512" viewBox="0 0 256 256" width="512" xmlns="http://www.w3.org/2000/svg"><rect fill="#63bce7" height="154.91" rx="14.009" width="224.78" x="15.61" y="28.986"/><path d="m25.11 169.887v-126.887a14.025 14.025 0 0 1 14.009-14.014h-9.5a14.025 14.025 0 0 0 -14.009 14.014v126.887a14.025 14.025 0 0 0 14.009 14.013h9.5a14.025 14.025 0 0 1 -14.009-14.013z" fill="#6377e7"/><path d="m230.89 169.887v-126.887a14.025 14.025 0 0 0 -14.009-14.009h9.5a14.025 14.025 0 0 1 14.009 14.009v126.887a14.025 14.025 0 0 1 -14.009 14.013h-9.5a14.025 14.025 0 0 0 14.009-14.013z" fill="#63e2e7"/><rect fill="#f8af23" height="125.366" rx="5.388" width="207.538" x="24.231" y="37.607"/><path d="m33.731 157.585v-114.59a5.4 5.4 0 0 1 5.388-5.388h-9.5a5.4 5.4 0 0 0 -5.388 5.388v114.59a5.4 5.4 0 0 0 5.388 5.388h9.5a5.4 5.4 0 0 1 -5.388-5.388z" fill="#f87023"/><path d="m222.269 157.585v-114.59a5.4 5.4 0 0 0 -5.388-5.388h9.5a5.4 5.4 0 0 1 5.388 5.388v114.59a5.4 5.4 0 0 1 -5.388 5.388h-9.5a5.4 5.4 0 0 0 5.388-5.388z" fill="#f8d323"/><path d="m88.847 206.612h78.305v9.429h-78.305z" fill="#f46275"/><path d="m88.847 206.612h9.5v9.429h-9.5z" fill="#f43075"/><path d="m99.983 183.896h56.035v22.716h-56.035z" fill="#9e9e9e"/><path d="m99.983 183.896h9.5v22.716h-9.5z" fill="#707070"/><circle cx="128" cy="173.435" fill="#f46275" r="4.613"/><path d="m76 70.016v30.274h-30.274a30.274 30.274 0 1 0 30.274-30.274z" fill="#63bce7"/><path d="m76 70.016a30.274 30.274 0 0 0 -30.274 30.274h30.274z" fill="#f46275"/><path d="m120.667 101.034h14.333v30.667h-14.333z" fill="#63bce7"/><path d="m144.917 90.316h14.333v41.385h-14.333z" fill="#f46275"/><path d="m169.167 79.598h14.333v52.103h-14.333z" fill="#63bce7"/><path d="m193.417 68.88h14.333v62.821h-14.333z" fill="#f46275"/><g fill="#3f3679"><path d="m233.269 157.585v-114.59a6.9 6.9 0 0 0 -6.888-6.888h-196.762a6.9 6.9 0 0 0 -6.888 6.888v114.59a6.9 6.9 0 0 0 6.888 6.888h196.762a6.9 6.9 0 0 0 6.888-6.888zm-207.537 0v-114.59a3.892 3.892 0 0 1 3.888-3.888h196.761a3.892 3.892 0 0 1 3.888 3.888v114.59a3.892 3.892 0 0 1 -3.888 3.888h-196.762a3.892 3.892 0 0 1 -3.888-3.888z"/><path d="m128 167.321a6.113 6.113 0 1 0 6.113 6.113 6.12 6.12 0 0 0 -6.113-6.113zm0 9.227a3.113 3.113 0 1 1 3.113-3.113 3.117 3.117 0 0 1 -3.113 3.113z"/><path d="m27.323 225.514h-18a1.5 1.5 0 0 0 0 3h18a1.5 1.5 0 1 0 0-3z"/><path d="m246.68 225.514h-18a1.5 1.5 0 0 0 0 3h18a1.5 1.5 0 0 0 0-3z"/><path d="m218.479 225.514h-180.958a1.5 1.5 0 0 0 0 3h180.958a1.5 1.5 0 0 0 0-3z"/><path d="m9.32 217.541h237.36a1.5 1.5 0 0 0 0-3h-78.028v-7.929a1.5 1.5 0 0 0 -1.5-1.5h-9.635v-19.712h68.863a15.526 15.526 0 0 0 15.509-15.509v-126.891a15.526 15.526 0 0 0 -15.509-15.509h-196.761a15.526 15.526 0 0 0 -15.509 15.509v126.887a15.526 15.526 0 0 0 15.509 15.513h68.863v19.716h-9.634a1.5 1.5 0 0 0 -1.5 1.5v7.929h-78.028a1.5 1.5 0 0 0 0 3zm7.79-47.653v-126.888a12.523 12.523 0 0 1 12.509-12.514h196.762a12.523 12.523 0 0 1 12.509 12.514v126.887a12.523 12.523 0 0 1 -12.509 12.513h-196.762a12.523 12.523 0 0 1 -12.509-12.513zm84.372 15.512h53.035v19.716h-53.035zm-11.134 22.712h75.3v6.429h-75.3z"/><path d="m76 68.516a31.774 31.774 0 1 0 31.774 31.774 31.81 31.81 0 0 0 -31.774-31.774zm-1.5 3.039v27.235h-27.235a28.815 28.815 0 0 1 27.235-27.235zm1.5 57.509a28.811 28.811 0 0 1 -28.735-27.274h28.735a1.5 1.5 0 0 0 1.5-1.5v-28.735a28.774 28.774 0 0 1 -1.5 57.509z"/><path d="m135 99.534h-14.333a1.5 1.5 0 0 0 -1.5 1.5v30.666a1.5 1.5 0 0 0 1.5 1.5h14.333a1.5 1.5 0 0 0 1.5-1.5v-30.666a1.5 1.5 0 0 0 -1.5-1.5zm-1.5 30.666h-11.333v-27.666h11.333z"/><path d="m159.25 88.815h-14.333a1.5 1.5 0 0 0 -1.5 1.5v41.385a1.5 1.5 0 0 0 1.5 1.5h14.333a1.5 1.5 0 0 0 1.5-1.5v-41.385a1.5 1.5 0 0 0 -1.5-1.5zm-1.5 41.385h-11.333v-38.385h11.333z"/><path d="m183.5 78.1h-14.333a1.5 1.5 0 0 0 -1.5 1.5v52.1a1.5 1.5 0 0 0 1.5 1.5h14.333a1.5 1.5 0 0 0 1.5-1.5v-52.1a1.5 1.5 0 0 0 -1.5-1.5zm-1.5 52.1h-11.333v-49.1h11.333z"/><path d="m207.75 67.379h-14.333a1.5 1.5 0 0 0 -1.5 1.5v62.821a1.5 1.5 0 0 0 1.5 1.5h14.333a1.5 1.5 0 0 0 1.5-1.5v-62.821a1.5 1.5 0 0 0 -1.5-1.5zm-1.5 62.821h-11.333v-59.821h11.333z"/></g></svg>