<svg id="Capa_1" enable-background="new 0 0 511.98 511.98" height="512" viewBox="0 0 511.98 511.98" width="512" xmlns="http://www.w3.org/2000/svg"><g><path d="m416.136 453.951-12.79 20.8-7.54 12.27c-6.67 10.85-18.49-2.54-31.23-2.54h-217.14c-12.74 0-24.55 13.39-31.22 2.54l-7.55-12.27-12.79-20.8c-24.49-39.83-33.01-87.46-23.85-133.32l11.31-56.57 89.84-108.921 165.332-1.662 90.168 110.584 11.31 56.57c9.17 45.859.65 93.489-23.85 133.319z" fill="#afaab4"/><g><path d="m439.986 320.631-11.31-56.57-90.167-110.584-24.276.244 89.969 110.339 11.31 56.57c9.17 45.86.65 93.49-23.85 133.32l-12.79 20.8-6.786 11.043c9.758 3.082 18.387 9.904 23.721 1.227l7.54-12.27 12.79-20.8c24.499-39.829 33.019-87.459 23.849-133.319z" fill="#a298a5"/></g><path d="m403.346 474.751-7.54 12.27c-6.67 10.85-18.49 17.46-31.23 17.46h-217.14c-12.73 0-24.55-6.61-31.22-17.46l-7.55-12.27z" fill="#544f57"/><path d="m378.717 474.751-7.54 12.27c-6.67 10.85-18.49 17.46-31.23 17.46h24.629c12.74 0 24.56-6.61 31.23-17.46l7.54-12.27z" fill="#454045"/><path d="m428.676 264.061c-115.11 20.02-230.23 20.02-345.34 0l42.51-212.56c3.03-15.14 14.42-27.26 29.37-31.1 67.2-17.23 134.39-17.23 201.56 0 14.96 3.84 26.37 15.96 29.4 31.1z" fill="#f6f1f1"/><path d="m332.301 20.401c14.96 3.84 26.37 15.96 29.4 31.1l43.266 216.391c7.903-1.186 15.806-2.457 23.709-3.831l-42.5-212.56c-3.03-15.14-14.44-27.26-29.4-31.1-37.663-9.662-75.332-13.903-113.006-12.73 29.514.919 59.025 5.161 88.531 12.73z" fill="#efe7e4"/><circle cx="256.006" cy="139.551" fill="#da4a54" r="24.472"/><path d="m256.006 115.079c-2.827 0-5.538.485-8.064 1.366 9.552 3.334 16.408 12.416 16.408 23.106 0 10.689-6.856 19.772-16.408 23.105 2.526.882 5.237 1.366 8.064 1.366 13.515 0 24.472-10.957 24.472-24.472s-10.956-24.471-24.472-24.471z" fill="#c63d4f"/><g><path d="m447.341 319.16c-.587-2.935-52.014-260.149-53.81-269.131-3.581-17.89-17.275-32.371-34.892-36.894-45.137-11.578-90.948-15.53-136.165-11.745-4.127.346-7.193 3.972-6.848 8.1s3.979 7.181 8.1 6.848c43.535-3.646 87.677.166 131.186 11.327 12.069 3.099 21.455 13.032 23.911 25.307l40.986 204.989c-108.737 18.061-218.869 18.061-327.604 0l40.997-204.988c2.456-12.278 11.83-22.212 23.877-25.308 12.351-3.165 24.873-5.772 37.22-7.749 4.09-.654 6.875-4.5 6.221-8.591-.654-4.09-4.496-6.881-8.592-6.22-12.8 2.048-25.778 4.75-38.577 8.031-17.596 4.521-31.277 19.002-34.857 36.894-1.312 6.559-53.796 269.009-53.82 269.132-9.563 47.875-.75 97.14 24.815 138.717l20.339 33.069c8.096 13.17 22.155 21.032 37.61 21.032h217.14c15.229 0 29.645-8.06 37.619-21.033l20.327-33.065c2.388-3.88 4.678-7.921 6.808-12.011 1.912-3.675.483-8.203-3.19-10.115-3.673-1.913-8.202-.484-10.116 3.189-1.963 3.773-4.074 7.499-6.276 11.077l-10.592 17.229h-135.652v-180.785c53.199-.395 106.384-4.997 159.242-13.802l9.884 49.438c6.001 30.012 4.121 61.244-5.436 90.321-1.293 3.935.848 8.174 4.783 9.467 3.935 1.295 8.174-.85 9.467-4.783 10.364-31.532 12.403-65.401 5.895-97.947zm-82.765 177.82h-217.14c-10.203 0-19.486-5.191-24.833-13.891l-.516-.839h267.846c-.196.192-7.51 14.73-25.357 14.73zm-251.714-29.729-10.597-17.229c-23.575-38.342-31.702-83.772-22.884-127.921l9.884-49.438c52.858 8.806 106.042 13.407 159.241 13.802v180.785h-135.644z"/><path d="m287.979 139.551c0-17.629-14.343-31.972-31.973-31.972-17.629 0-31.972 14.343-31.972 31.972 0 17.63 14.343 31.973 31.972 31.973 17.63-.001 31.973-14.344 31.973-31.973zm-31.973 16.972c-9.358 0-16.972-7.614-16.972-16.973s7.613-16.972 16.972-16.972 16.973 7.613 16.973 16.972-7.615 16.973-16.973 16.973z"/><path d="m247.662 208.857c-4.143 0-7.5 3.357-7.5 7.5s3.357 7.5 7.5 7.5h16.688c4.143 0 7.5-3.357 7.5-7.5s-3.357-7.5-7.5-7.5z"/><path d="m138.829 316.817c-4.143 0-7.5 3.357-7.5 7.5v3.487c0 4.143 3.357 7.5 7.5 7.5s7.5-3.357 7.5-7.5v-3.487c0-4.142-3.357-7.5-7.5-7.5z"/><path d="m190.056 316.817c-4.143 0-7.5 3.357-7.5 7.5v3.487c0 4.143 3.357 7.5 7.5 7.5s7.5-3.357 7.5-7.5v-3.487c0-4.142-3.358-7.5-7.5-7.5z"/><path d="m138.829 395.128c-4.143 0-7.5 3.357-7.5 7.5v3.487c0 4.143 3.357 7.5 7.5 7.5s7.5-3.357 7.5-7.5v-3.487c0-4.143-3.357-7.5-7.5-7.5z"/><path d="m190.056 395.128c-4.143 0-7.5 3.357-7.5 7.5v3.487c0 4.143 3.357 7.5 7.5 7.5s7.5-3.357 7.5-7.5v-3.487c0-4.143-3.358-7.5-7.5-7.5z"/><path d="m132.744 361.451c0-4.143-3.357-7.5-7.5-7.5s-7.5 3.357-7.5 7.5v3.487c0 4.143 3.357 7.5 7.5 7.5s7.5-3.357 7.5-7.5z"/><path d="m168.158 353.951c-4.143 0-7.5 3.357-7.5 7.5v3.487c0 4.143 3.357 7.5 7.5 7.5s7.5-3.357 7.5-7.5v-3.487c0-4.143-3.357-7.5-7.5-7.5z"/><path d="m211.072 353.951c-4.143 0-7.5 3.357-7.5 7.5v3.487c0 4.143 3.357 7.5 7.5 7.5s7.5-3.357 7.5-7.5v-3.487c0-4.143-3.357-7.5-7.5-7.5z"/><path d="m322.025 324.317c0-4.143-3.357-7.5-7.5-7.5s-7.5 3.357-7.5 7.5v3.487c0 4.143 3.357 7.5 7.5 7.5s7.5-3.357 7.5-7.5z"/><path d="m373.252 324.317c0-4.143-3.357-7.5-7.5-7.5s-7.5 3.357-7.5 7.5v3.487c0 4.143 3.357 7.5 7.5 7.5s7.5-3.357 7.5-7.5z"/><path d="m314.525 413.615c4.143 0 7.5-3.357 7.5-7.5v-3.487c0-4.143-3.357-7.5-7.5-7.5s-7.5 3.357-7.5 7.5v3.487c0 4.143 3.358 7.5 7.5 7.5z"/><path d="m365.752 395.128c-4.143 0-7.5 3.357-7.5 7.5v3.487c0 4.143 3.357 7.5 7.5 7.5s7.5-3.357 7.5-7.5v-3.487c0-4.143-3.357-7.5-7.5-7.5z"/><path d="m308.441 361.451c0-4.143-3.357-7.5-7.5-7.5s-7.5 3.357-7.5 7.5v3.487c0 4.143 3.357 7.5 7.5 7.5s7.5-3.357 7.5-7.5z"/><path d="m336.355 361.451v3.487c0 4.143 3.357 7.5 7.5 7.5s7.5-3.357 7.5-7.5v-3.487c0-4.143-3.357-7.5-7.5-7.5s-7.5 3.357-7.5 7.5z"/><path d="m379.268 361.451v3.487c0 4.143 3.357 7.5 7.5 7.5s7.5-3.357 7.5-7.5v-3.487c0-4.143-3.357-7.5-7.5-7.5s-7.5 3.357-7.5 7.5z"/></g></g></svg>