<svg height="512pt" viewBox="0 0 512.00008 512" width="512pt" xmlns="http://www.w3.org/2000/svg"><path d="m10 255.964844c135.863281 136.046875 356.136719 136.046875 492 0v.070312c-135.863281-136.046875-356.136719-136.046875-492 0" fill="#fff"/><path d="m358 256c0 56.332031-45.667969 102-102 102s-102-45.667969-102-102 45.667969-102 102-102 102 45.667969 102 102zm0 0" fill="#ff5691"/><path d="m296 256c0 22.089844-17.910156 40-40 40s-40-17.910156-40-40 17.910156-40 40-40 40 17.910156 40 40zm0 0" fill="#fff"/><path d="m508.308594 248.199219c-33.988282-33.828125-73.558594-60.058594-117.628906-77.960938-42.058594-17.066406-86.460938-25.867187-132-26.207031-.890626-.019531-1.789063-.03125-2.679688-.03125s-1.789062.011719-2.679688.03125c-45.539062.339844-89.941406 9.140625-132 26.207031-44.070312 17.902344-83.628906 44.121094-117.621093 77.960938-.269531.210937-.519531.441406-.769531.691406-1.960938 1.960937-2.9414068 4.539063-2.929688 7.109375-.0117188 2.570312.96875 5.148438 2.929688 7.109375.25.25.5.480469.769531.691406 33.992187 33.839844 73.550781 60.058594 117.621093 77.960938 42.058594 17.066406 86.460938 25.867187 132 26.207031.890626.019531 1.789063.03125 2.679688.03125s1.789062-.011719 2.679688-.03125c45.539062-.339844 89.941406-9.140625 132-26.207031 44.191406-17.953125 83.859374-44.273438 117.910156-78.25 2.128906-1.871094 3.410156-4.613281 3.410156-7.550781 0-3.0625-1.398438-5.890626-3.691406-7.761719zm-483.929688 7.800781c44.621094-42.128906 98.769532-70.78125 157.472656-83.859375-23.203124 20.519531-37.851562 50.507813-37.851562 83.859375s14.648438 63.339844 37.851562 83.859375c-58.703124-13.078125-112.851562-41.730469-157.472656-83.859375zm139.621094 0c0-50.730469 41.269531-92 92-92s92 41.269531 92 92-41.269531 92-92 92-92-41.269531-92-92zm166.148438 83.859375c23.203124-20.519531 37.851562-50.507813 37.851562-83.859375s-14.648438-63.339844-37.851562-83.859375c58.703124 13.078125 112.851562 41.730469 157.472656 83.859375-44.621094 42.128906-98.769532 70.78125-157.472656 83.859375zm0 0"/><path d="m256 306c-27.570312 0-50-22.429688-50-50s22.429688-50 50-50 50 22.429688 50 50-22.429688 50-50 50zm0-80c-16.542969 0-30 13.457031-30 30s13.457031 30 30 30 30-13.457031 30-30-13.457031-30-30-30zm0 0"/><path d="m10 170c-5.523438 0-10-4.476562-10-10v-150c0-5.523438 4.476562-10 10-10h150c5.523438 0 10 4.476562 10 10s-4.476562 10-10 10h-140v140c0 5.523438-4.476562 10-10 10zm0 0"/><path d="m160 512h-150c-5.523438 0-10-4.476562-10-10v-150c0-5.523438 4.476562-10 10-10s10 4.476562 10 10v140h140c5.523438 0 10 4.476562 10 10s-4.476562 10-10 10zm0 0"/><path d="m501 512h-150c-5.523438 0-10-4.476562-10-10s4.476562-10 10-10h140v-140c0-5.523438 4.476562-10 10-10s10 4.476562 10 10v150c0 5.523438-4.476562 10-10 10zm0 0"/><path d="m501.9375 170c-5.523438 0-10-4.476562-10-10v-140h-105c-5.523438 0-10-4.476562-10-10s4.476562-10 10-10h115c5.519531 0 10 4.476562 10 10v150c0 5.523438-4.480469 10-10 10zm0 0"/><path d="m351.953125 20c-5.519531 0-10.003906-4.476562-10.003906-10s4.472656-10 9.996093-10h.007813c5.523437 0 10 4.476562 10 10s-4.472656 10-10 10zm0 0"/></svg>