<svg height="512" viewBox="0 0 60 60" width="512" xmlns="http://www.w3.org/2000/svg"><g id="088---Online-Shopping" fill="none"><g id="Icons" transform="translate(1 1)"><path id="Shape" d="m42 58h-26c-.307341-.0002375-.597502-.1417889-.7868662-.3838627s-.2568957-.557779-.1831338-.8561373l1.5-6c.1102928-.4461224.5104464-.7596448.97-.76h23c.4595536.0003552.8597072.3138776.97.76l1.5 6c.0737619.2983583.0062304.6140635-.1831338.8561373s-.4795252.3836252-.7868662.3838627z" fill="#37474f"/><path id="Shape" d="m39 58h-23c-.307341-.0002375-.597502-.1417889-.7868662-.3838627s-.2568957-.557779-.1831338-.8561373l1.5-6c.1102928-.4461224.5104464-.7596448.97-.76h20c.4595536.0003552.8597072.3138776.97.76l1.5 6c.0737619.2983583.0062304.6140635-.1831338.8561373s-.4795252.3836252-.7868662.3838627z" fill="#607d8b"/><path id="Shape" d="m58 37v5c0 1.6568542-1.3431458 3-3 3h-52c-1.65685425 0-3-1.3431458-3-3v-5z" fill="#37474f"/><path id="Shape" d="m55 37v5c0 1.6568542-1.3431458 3-3 3h-49c-1.65685425 0-3-1.3431458-3-3v-5z" fill="#607d8b"/><path id="Shape" d="m21 45h16v8c0 .5522847-.4477153 1-1 1h-14c-.5522847 0-1-.4477153-1-1z" fill="#37474f"/><path id="Shape" d="m58 3v34h-58v-34c0-1.65685425 1.34314575-3 3-3h52c1.6568542 0 3 1.34314575 3 3z" fill="#00838f"/><path id="Shape" d="m55 3v34h-55v-34c0-1.65685425 1.34314575-3 3-3h49c1.6568542 0 3 1.34314575 3 3z" fill="#00bcd4"/><path id="Shape" d="m21 10c-.0155372.3258132-.06446.6491727-.146.965-.79008 1.9560359-2.7494964 3.1811757-4.854 3.035-2.568 0-5-1.649-5-4z" fill="#bb193b"/><rect id="Rectangle-path" fill="#fdd834" height="4" rx="1" width="22" x="32" y="17"/><rect id="Rectangle-path" fill="#ffeb3a" height="4" rx="1" width="19" x="32" y="17"/><path id="Shape" d="m27.29 17.35-3.97 3.97-.32-.32v12h-14v-12l-.32.32-3.97-3.97c-.38997787-.3930079-.38997787-1.0269921 0-1.42l4.32-5.21c.37938918-.458794.94466935-.72308081 1.54-.72h.43c.0257256.4121908.1036823.8194473.232 1.212.8825968 1.804964 2.7621545 2.9040007 4.768 2.788 2.264 0 5-1.444 5-4h.43c.5953306-.00308081 1.1606108.261206 1.54.72l4.32 5.21c.3899779.3930079.3899779 1.0269921 0 1.42z" fill="#ef314c"/><path id="Shape" d="m27.29 15.93-4.32-5.21c-.3793892-.458794-.9446694-.72308081-1.54-.72h-.43c.0006594.5282871-.1259085 1.0489646-.369 1.518l3.659 4.412c.3899779.3930079.3899779 1.0269921 0 1.42l-3.97 3.97-.32-.32v12h3v-12l.32.32 3.97-3.97c.3899779-.3930079.3899779-1.0269921 0-1.42z" fill="#bb193b"/></g><g id="Outline" fill="#000"><path id="Shape" d="m56 0h-52c-2.209139 0-4 1.790861-4 4v39c0 2.209139 1.790861 4 4 4h17v3h-2.5c-.9196454-.0034019-1.7215836.6244177-1.939 1.518l-1.5 6c-.1482046.5968295-.013604 1.2286588.364982 1.7132645s.959063.7681052 1.574018.7687355h26c.614955-.0006303 1.195432-.2841298 1.574018-.7687355s.5131866-1.116435.364982-1.7132645l-1.5-5.995c-.2164253-.8949421-1.0182621-1.52475-1.939-1.523h-2.5v-3h17c2.209139 0 4-1.790861 4-4v-39c0-2.209139-1.790861-4-4-4zm-54 4c0-1.1045695.8954305-2 2-2h52c1.1045695 0 2 .8954305 2 2v33h-56zm39.5 48 1.5 6h-26l1.5-6h2.5v2c0 1.1045695.8954305 2 2 2h14c1.1045695 0 2-.8954305 2-2v-2zm-4.5 2h-14v-7h14zm21-11c0 1.1045695-.8954305 2-2 2h-52c-1.1045695 0-2-.8954305-2-2v-4h56z"/><path id="Shape" d="m28 43h4c.5522847 0 1-.4477153 1-1s-.4477153-1-1-1h-4c-.5522847 0-1 .4477153-1 1s.4477153 1 1 1z"/><path id="Shape" d="m33.128 22.791 1.59 8.745c.2590372 1.4265068 1.5011649 2.4636477 2.951 2.464h12.662c1.4498351-.0003523 2.6919628-1.0374932 2.951-2.464l1.59-8.745c.6869806-.3328143 1.124602-1.0276546 1.128-1.791v-2c0-1.1045695-.8954305-2-2-2h-1.486l-4.7-6.581c-.2014575-.306064-.5541728-.47743875-.9192932-.4466595-.3651205.0307792-.6841686.2587829-.8315454.5942533-.1473769.3354703-.0994787.7246787.1248386 1.0144062l3.869 5.419h-12.114l3.87-5.419c.2954477-.4488584.183336-1.0509645-.2538648-1.3634044-.4372007-.31243991-1.0431625-.22349579-1.3721352.2014044l-4.701 6.581h-1.486c-1.1045695 0-2 .8954305-2 2v2c.003398.7633454.4410194 1.4581857 1.128 1.791zm19.672.209-.728 4h-3.433l.291-4zm-6.168 4h-5.266l-.291-4h5.85zm-7.562-4 .291 4h-3.436l-.725-4zm-2.385 8.179-.396-2.179h3.218l.218 3h-2.056c-.4832991.0000729-.8974895-.3455066-.984-.821zm5.044.821-.218-3h4.978l-.218 3zm8.6 0h-2.054l.218-3h3.218l-.4 2.179c-.0862375.4740127-.4982101.8191449-.98.821zm-16.329-13h20v2h-20z"/><path id="Shape" d="m5 19.057c4.467 4.467 3.827 3.831 4 3.989v10.954c0 .5522847.44771525 1 1 1h14c.5522847 0 1-.4477153 1-1v-10.954c.193-.179-.42.429 4-3.989.7659239-.7530897.7938418-1.9788191.063-2.766l-4.319-5.208c-.5702368-.6893049-1.4194066-1.08673398-2.314-1.083h-10.86c-.8925775-.00301151-1.73966598.3935682-2.309 1.081l-4.261 5.143c-.78023783.7831691-.78023783 2.0498309 0 2.833zm8.242-7.057h7.516c-1.271 2.642-6.231 2.671-7.516 0zm-2.1.092c.647 2.439 3.236 3.908 5.858 3.908.8964588-.0093753 1.7840465-.1786976 2.621-.5.0908845-.0271308.1779244-.0657779.259-.115 1.4383793-.595947 2.5318411-1.8080478 2.977-3.3.281.129 0-.149 4.726 5.551l-2.583 2.59v-.726c0-.5522847-.4477153-1-1-1s-1 .4477153-1 1v13.5h-12v-13.5c0-.5522847-.4477153-1-1-1-.55228475 0-1 .4477153-1 1v.678l-2.521-2.61c4.7-5.668 4.382-5.346 4.664-5.476z"/><path id="Shape" d="m5 6h2c.55228475 0 1-.44771525 1-1s-.44771525-1-1-1h-2c-.55228475 0-1 .44771525-1 1s.44771525 1 1 1z"/><path id="Shape" d="m11 6h2c.5522847 0 1-.44771525 1-1s-.4477153-1-1-1h-2c-.5522847 0-1 .44771525-1 1s.4477153 1 1 1z"/><path id="Shape" d="m17 6h2c.5522847 0 1-.44771525 1-1s-.4477153-1-1-1h-2c-.5522847 0-1 .44771525-1 1s.4477153 1 1 1z"/><path id="Shape" d="m53 6h2c.5522847 0 1-.44771525 1-1s-.4477153-1-1-1h-2c-.5522847 0-1 .44771525-1 1s.4477153 1 1 1z"/></g></g></svg>