<svg height="512pt" viewBox="0 -10 512 511" width="512pt" xmlns="http://www.w3.org/2000/svg"><path d="m375.085938 37.871094c-37.699219-23.671875-82.289063-37.371094-130.085938-37.371094s-92.386719 13.699219-130.085938 37.371094zm0 0" fill="#27a3ff"/><path d="m76.679688 423.515625c43.894531 41.515625 103.132812 66.984375 168.320312 66.984375 65.191406 0 124.425781-25.46875 168.320312-66.984375zm0 0" fill="#27a3ff"/><path d="m258.9375 490.09375c59.671875-3.347656 113.636719-28.039062 154.382812-66.578125h-154.828124c28.253906 11.199219 29.023437 55.101563.445312 66.578125zm0 0" fill="#0080f4"/><path d="m436.152344 35h-316.554688c-14.636718 8.738281-28.285156 18.960938-40.738281 30.457031l-27.363281 330.292969c8.546875 10.992188 18 21.25 28.265625 30.632812h246.289062v-252.515624c0-12.617188 10.261719-22.882813 22.878907-22.882813h119.816406v-83.386719c0-17.976562-14.621094-32.597656-32.59375-32.597656zm0 0" fill="#2b3894"/><path d="m112.101562 410.835938c0-8.625 6.773438-15.644532 15.289063-16.085938v-328.355469c-8.515625-.4375-15.289063-7.460937-15.289063-16.082031 0-7.148438 4.652344-13.195312 11.089844-15.3125h-3.59375c-14.636718 8.738281-28.285156 18.960938-40.738281 30.457031l-27.363281 330.292969c8.546875 10.992188 18 21.25 28.265625 30.632812h44.253906c-6.859375-1.855468-11.914063-8.105468-11.914063-15.546874zm0 0" fill="#232e7a"/><path d="m24.914062 137.761719c-11.339843 23.121093-19.125 48.292969-22.691406 74.800781l28.941406 152.570312-.003906.003907c6.261719 11.167969 13.363282 21.800781 21.238282 31.800781h273.652343v-223.070312c0-12.617188 10.261719-22.882813 22.878907-22.882813h90.371093v-13.222656zm0 0" fill="#e6f7fe"/><path d="m24.914062 137.761719c-11.339843 23.121093-19.125 48.292969-22.691406 74.800781l28.941406 152.570312-.003906.003907c6.261719 11.167969 13.363282 21.800781 21.238282 31.800781h67.78125v-259.175781zm0 0" fill="#d5f1fe"/><path d="m252.148438 212.527344h-249.933594c-1.449219 10.785156-2.214844 21.789062-2.214844 32.972656 0 32.824219 6.472656 64.132812 18.179688 92.742188h241.585937v-118.09375c0-4.207032-3.410156-7.621094-7.617187-7.621094zm0 0" fill="#f948b4"/><path d="m31.164062 365.132812h220.984376c4.207031 0 7.617187-3.410156 7.617187-7.617187v-19.273437h-241.585937c3.792968 9.261718 8.132812 18.238281 12.984374 26.890624zm0 0" fill="#f948b4"/><path d="m119.320312 212.527344h-117.105468c-1.449219 10.785156-2.214844 21.789062-2.214844 32.972656 0 32.824219 6.472656 64.132812 18.183594 92.742188h93.519531v-118.09375c0-4.207032 3.410156-7.621094 7.617187-7.621094zm0 0" fill="#e00e8b"/><path d="m111.703125 357.515625v-19.273437h-93.519531c3.789062 9.261718 8.128906 18.238281 12.980468 26.890624h88.15625c-4.207031 0-7.617187-3.410156-7.617187-7.617187zm0 0" fill="#e00e8b"/><path d="m22.914062 182.402344c4.199219 0 7.605469-3.40625 7.605469-7.605469s-3.40625-7.605469-7.605469-7.605469h-10.128906c-1.683594 5-3.199218 10.074219-4.566406 15.210938zm0 0" fill="#f948b4"/><path d="m204.753906 183.582031v-17.570312c0-2.824219-2.289062-5.113281-5.113281-5.113281h-129.964844c-2.824219 0-5.113281 2.289062-5.113281 5.113281v17.570312c0 2.824219 2.289062 5.113281 5.113281 5.113281h129.96875c2.820313 0 5.109375-2.289062 5.109375-5.113281zm0 0" fill="#d5f1fe"/><g fill="#11dfef"><path d="m114.5625 183.582031v-17.570312c0-2.824219 2.289062-5.113281 5.113281-5.113281h-50c-2.824219 0-5.113281 2.289062-5.113281 5.113281v17.570312c0 2.824219 2.289062 5.113281 5.113281 5.113281h50c-2.824219 0-5.113281-2.289062-5.113281-5.113281zm0 0"/><path d="m297.933594 157.855469c-4.214844 0-7.636719 3.417969-7.636719 7.636719v48.730468c0 4.214844 3.421875 7.636719 7.636719 7.636719h28.117187v-47.992187c0-6.226563 2.503907-11.882813 6.558594-16.011719zm0 0"/><path d="m326.050781 245.59375h-28.117187c-4.21875 0-7.636719 3.417969-7.636719 7.636719v48.726562c0 4.21875 3.417969 7.636719 7.636719 7.636719h28.117187zm0 0"/><path d="m326.050781 333.328125h-28.117187c-4.21875 0-7.636719 3.417969-7.636719 7.636719v48.730468c0 3.371094 2.191406 6.230469 5.222656 7.242188h30.53125zm0 0"/></g><path d="m259.765625 339.390625h-211.675781c-4.203125 0-7.609375-3.402344-7.609375-7.605469 0-4.199218 3.40625-7.605468 7.609375-7.605468h211.675781c4.203125 0 7.605469 3.40625 7.605469 7.605468 0 4.199219-3.40625 7.605469-7.605469 7.605469zm0 0" fill="#fc7acd"/><path d="m48.089844 324.179688h-35.183594c1.746094 5.152343 3.671875 10.21875 5.746094 15.210937h29.4375c4.199218 0 7.605468-3.402344 7.605468-7.605469 0-4.199218-3.40625-7.605468-7.605468-7.605468zm0 0" fill="#11dfef"/><path d="m140.539062 272.785156-40.488281-26.554687c-2.566406-1.683594-5.976562.160156-5.976562 3.226562v53.109375c0 3.070313 3.410156 4.910156 5.976562 3.226563l40.488281-26.554688c2.324219-1.523437 2.324219-4.929687 0-6.453125zm0 0" fill="#fc7acd"/><path d="m109.808594 283.222656v-14.421875c0-5.363281 3.449218-9.480469 7.855468-11.019531l-17.613281-11.550781c-2.566406-1.683594-5.976562.160156-5.976562 3.226562v53.109375c0 3.070313 3.410156 4.910156 5.976562 3.226563l17.613281-11.550781c-4.40625-1.539063-7.855468-5.652344-7.855468-11.019532zm0 0" fill="#f948b4"/><path d="m487.597656 149.464844h-138.667968c-13.453126 0-24.402344 10.945312-24.402344 24.402344v292.230468c0 13.457032 10.949218 24.402344 24.402344 24.402344h138.667968c13.457032 0 24.402344-10.945312 24.402344-24.402344v-292.230468c0-13.457032-10.945312-24.402344-24.402344-24.402344zm0 0" fill="#3d4ec6"/><path d="m377.449219 475.121094v-281.929688c0-10.765625-2.972657-21.195312-7.640625-30.894531-.605469-1.257813-.941406-2.664063-.941406-4.148437 0-3.847657 2.273437-7.15625 5.542968-8.679688h-25.476562c-13.480469 0-24.402344 10.921875-24.402344 24.398438v292.230468c0 13.476563 10.921875 24.402344 24.402344 24.402344h24.351562c-2.417968-1.445312-4.042968-4.082031-4.042968-7.101562 0-4.550782 3.667968-8.238282 8.207031-8.277344zm0 0" fill="#3342ae"/><path d="m497.871094 244.902344c0-38.625 0-67.703125 0-71.035156 0-5.675782-4.597656-10.273438-10.273438-10.273438h-20.609375c-1.941406 0-3.519531 1.574219-3.519531 3.515625 0 4.664063-3.8125 8.476563-8.476562 8.476563h-73.457032c-4.664062 0-8.476562-3.8125-8.476562-8.476563 0-1.941406-1.574219-3.515625-3.519532-3.515625h-20.605468c-5.675782 0-10.277344 4.597656-10.277344 10.273438v71.035156zm0 0" fill="#e6f7fe"/><path d="m338.65625 338.15625v127.941406c0 5.675782 4.601562 10.277344 10.273438 10.277344h138.667968c5.675782 0 10.273438-4.601562 10.273438-10.277344 0-4.730468 0-63.988281 0-127.941406zm0 0" fill="#e6f7fe"/><path d="m373.1875 244.902344c0-29.648438 0-56.347656 0-76.382813-.078125-.460937-.128906-.929687-.128906-1.410156 0-1.941406-1.574219-3.515625-3.519532-3.515625h-20.609374c-5.671876 0-10.273438 4.597656-10.273438 10.273438v71.035156zm0 0" fill="#d5f1fe"/><path d="m338.65625 338.15625v127.941406c0 5.675782 4.601562 10.277344 10.273438 10.277344h24.257812c0-32.058594 0-84.136719 0-138.21875zm0 0" fill="#d5f1fe"/><path d="m448.644531 372.738281h-18.800781c-4.203125 0-7.605469-3.402343-7.605469-7.605469 0-4.199218 3.402344-7.605468 7.605469-7.605468h18.800781c4.199219 0 7.605469 3.40625 7.605469 7.605468 0 4.199219-3.40625 7.605469-7.605469 7.605469zm0 0" fill="#11dfef"/><path d="m471.503906 398.167969h-41.660156c-4.199219 0-7.605469-3.40625-7.605469-7.605469s3.40625-7.605469 7.605469-7.605469h41.660156c4.199219 0 7.605469 3.402344 7.605469 7.605469 0 4.199219-3.40625 7.605469-7.605469 7.605469zm0 0" fill="#d5f1fe"/><path d="m448.644531 430.40625h-18.800781c-4.203125 0-7.605469-3.402344-7.605469-7.605469 0-4.199219 3.402344-7.605469 7.605469-7.605469h18.800781c4.199219 0 7.605469 3.40625 7.605469 7.605469 0 4.203125-3.40625 7.605469-7.605469 7.605469zm0 0" fill="#11dfef"/><path d="m471.503906 455.835938h-41.660156c-4.199219 0-7.605469-3.40625-7.605469-7.605469 0-4.203125 3.40625-7.605469 7.605469-7.605469h41.660156c4.199219 0 7.605469 3.402344 7.605469 7.605469 0 4.199219-3.40625 7.605469-7.605469 7.605469zm0 0" fill="#d5f1fe"/><path d="m338.65625 243.558594h159.214844v95.941406h-159.214844zm0 0" fill="#f948b4"/><path d="m338.65625 243.558594h34.53125v95.941406h-34.53125zm0 0" fill="#e00e8b"/><path d="m463.34375 216.300781v-13.519531c0-2.820312-2.289062-5.109375-5.113281-5.109375h-79.929688c-2.824219 0-5.113281 2.289063-5.113281 5.109375v13.519531c0 2.820313 2.289062 5.109375 5.113281 5.109375h79.929688c2.824219 0 5.113281-2.289062 5.113281-5.109375zm0 0" fill="#d5f1fe"/><path d="m403.566406 216.300781v-13.519531c0-2.820312 2.289063-5.109375 5.113282-5.109375h-30.382813c-2.824219 0-5.113281 2.289063-5.113281 5.109375v13.519531c0 2.820313 2.289062 5.109375 5.113281 5.109375h30.382813c-2.824219 0-5.113282-2.289062-5.113282-5.109375zm0 0" fill="#11dfef"/><path d="m400.4375 363.105469h-31.921875c-3.707031 0-6.71875 3.011719-6.71875 6.71875v16.046875c0 3.703125 3.011719 6.71875 6.71875 6.71875h31.921875c3.707031 0 6.71875-3.015625 6.71875-6.71875v-16.046875c0-3.707031-3.011719-6.71875-6.71875-6.71875zm0 0" fill="#d5f1fe"/><path d="m400.4375 420.773438h-31.921875c-3.707031 0-6.71875 3.011718-6.71875 6.71875v16.046874c0 3.707032 3.011719 6.71875 6.71875 6.71875h31.921875c3.707031 0 6.71875-3.011718 6.71875-6.71875v-16.046874c0-3.707032-3.011719-6.71875-6.71875-6.71875zm0 0" fill="#d5f1fe"/><path d="m384.476562 385.871094v-16.046875c0-3.707031 3.015626-6.71875 6.71875-6.71875h-22.679687c-3.707031 0-6.71875 3.011719-6.71875 6.71875v16.046875c0 3.703125 3.011719 6.71875 6.71875 6.71875h22.679687c-3.703124 0-6.71875-3.015625-6.71875-6.71875zm0 0" fill="#11dfef"/><path d="m384.476562 443.539062v-16.046874c0-3.707032 3.015626-6.71875 6.71875-6.71875h-22.679687c-3.707031 0-6.71875 3.011718-6.71875 6.71875v16.046874c0 3.707032 3.011719 6.71875 6.71875 6.71875h22.679687c-3.703124 0-6.71875-3.011718-6.71875-6.71875zm0 0" fill="#11dfef"/><path d="m24.410156 138.777344h414.890625v-26.835938h-399.710937c-5.597656 8.589844-10.675782 17.546875-15.179688 26.835938zm0 0" fill="#d5f1fe"/><path d="m120.179688 111.941406h-80.589844c-5.597656 8.589844-10.675782 17.546875-15.179688 26.835938h95.769532zm0 0" fill="#11dfef"/><path d="m64.5625 138.777344c0-14.78125-11.171875-26.765625-24.976562-26.832032-5.59375 8.589844-10.671876 17.542969-15.175782 26.832032zm0 0" fill="#0ac6e5"/><path d="m436.152344 64.449219h-356.207032c-15.886718 14.488281-29.859374 31.042969-41.496093 49.234375h400.851562v-46.085938c0-1.707031-1.441406-3.148437-3.148437-3.148437zm0 0" fill="#615df9"/><path d="m120.179688 64.449219h-40.234376c-15.886718 14.488281-29.859374 31.042969-41.496093 49.234375h81.730469zm0 0" fill="#3d4ec6"/><path d="m409.996094 96.671875h-53.414063c-4.199219 0-7.605469-3.40625-7.605469-7.605469 0-4.203125 3.40625-7.605468 7.605469-7.605468h53.414063c4.199218 0 7.605468 3.402343 7.605468 7.605468 0 4.199219-3.40625 7.605469-7.605468 7.605469zm0 0" fill="#aeaeff"/><path d="m318.371094 96.671875h-233.5c-4.199219 0-7.605469-3.40625-7.605469-7.605469 0-4.203125 3.40625-7.605468 7.605469-7.605468h233.5c4.203125 0 7.605468 3.402343 7.605468 7.605468 0 4.199219-3.402343 7.605469-7.605468 7.605469zm0 0" fill="#aeaeff"/><path d="m276.601562 89.066406c0-4.203125 3.402344-7.605468 7.605469-7.605468h-199.335937c-4.199219 0-7.605469 3.402343-7.605469 7.605468 0 4.199219 3.40625 7.605469 7.605469 7.605469h199.335937c-4.203125 0-7.605469-3.40625-7.605469-7.605469zm0 0" fill="#8181fc"/><path d="m199.644531 160.898438h-24.285156v27.796874h24.285156c2.824219 0 5.113281-2.289062 5.113281-5.113281v-17.570312c-.003906-2.824219-2.292968-5.113281-5.113281-5.113281zm0 0" fill="#f948b4"/><path d="m48.089844 346.996094c-4.203125 0-7.609375-3.402344-7.609375-7.605469v-16.226563c0-4.199218 3.40625-7.605468 7.609375-7.605468 4.199218 0 7.605468 3.40625 7.605468 7.605468v16.226563c0 4.203125-3.40625 7.605469-7.605468 7.605469zm0 0" fill="#e6f7fe"/><path d="m48.089844 331.785156c-4.203125 0-7.609375-3.40625-7.609375-7.605468v15.210937c0 4.203125 3.40625 7.605469 7.609375 7.605469 4.199218 0 7.605468-3.402344 7.605468-7.605469v-15.210937c0 4.199218-3.40625 7.605468-7.605468 7.605468zm0 0" fill="#d5f1fe"/><path d="m458.230469 197.671875h-24.285157v23.738281h24.285157c2.824219 0 5.113281-2.289062 5.113281-5.109375v-13.519531c0-2.820312-2.289062-5.109375-5.113281-5.109375zm0 0" fill="#f948b4"/><path d="m437.476562 289.28125-28.1875-18.484375c-1.785156-1.171875-4.160156.109375-4.160156 2.246094v36.972656c0 2.136719 2.375 3.417969 4.160156 2.246094l28.1875-18.484375c1.617188-1.0625 1.617188-3.433594 0-4.496094zm0 0" fill="#ff97df"/><path d="m416.414062 298.335938v-13.613282c0-3.121094 2.175782-5.457031 4.824219-6.089844l-11.949219-7.835937c-1.785156-1.171875-4.160156.109375-4.160156 2.246094v36.972656c0 2.136719 2.375 3.417969 4.160156 2.25l11.949219-7.835937c-2.648437-.636719-4.824219-2.972657-4.824219-6.09375zm0 0" fill="#fc7acd"/></svg>