<svg id="Layer_1" enable-background="new 0 0 64 64" height="512" viewBox="0 0 64 64" width="512" xmlns="http://www.w3.org/2000/svg"><path d="m60.3 7.4-10-5c-.8-.4-1.8-.4-2.7 0l-10 5c-1 .5-1.6 1.6-1.6 2.7v1.7l-2.6-1.4c-.9-.5-1.9-.5-2.8 0l-2.6 1.5v-1.7c0-1.1-.6-2.2-1.7-2.7l-10-5c-.8-.4-1.8-.4-2.7 0l-10 5c-1 .4-1.6 1.5-1.6 2.6v11.5c0 1.1.6 2.2 1.7 2.7l8.3 4.2v6.8l-8.3 4.2c-1.1.4-1.7 1.5-1.7 2.6v11.5c0 1.1.6 2.2 1.7 2.7l10 5c.8.4 1.8.4 2.7 0l10-5c1-.5 1.7-1.5 1.7-2.7v-1.7l2.6 1.4c.9.5 1.9.5 2.8 0l2.6-1.4v1.7c0 1.1.6 2.2 1.7 2.7l10 5c.8.4 1.8.4 2.7 0l10-5c1-.5 1.7-1.5 1.7-2.7v-11.5c0-1.1-.6-2.2-1.7-2.7l-8.5-4.1v-6.8l8.3-4.2c1-.5 1.7-1.5 1.7-2.7v-11.5c0-1.1-.6-2.2-1.7-2.7zm-11.7-3.2c.3-.1.6-.1.9 0l9.3 4.7-9.3 4.7c-.3.1-.6.1-.9 0l-9.3-4.7zm-10.6 6.3 9.7 4.8c.1 0 .2.1.3.1v2.7l-10-5.3zm-6.5 1.8c.3-.2.6-.2.9 0l16.4 8.6-16.4 8.6c-.3.2-.6.2-.9 0l-16.4-8.6zm-15.5 5.9v-2.7c.1 0 .2-.1.3-.1l9.7-4.8v2.4zm-1.4-14c.3-.1.6-.1.9 0l9.3 4.7-9.3 4.7c-.3.1-.6.1-.9 0l-9.4-4.7zm-10 18.3c-.4-.1-.6-.5-.6-.9v-11.1l9.7 4.8c.1 0 .2.1.3.1v3.8l-.4.2c-1 .6-1.6 1.6-1.6 2.7v4.2zm14.4 18.4v-2.9l5.8 2.9-9.8 4.9-9.8-4.9 9.3-4.7c.1-.1.3-.1.4-.1.2 0 .3 0 .4.1l1.7.8v3.9zm-14.4 13.6c-.4-.1-.6-.5-.6-.9v-11.1l10 5v11.8zm20.8 0-9.4 4.8v-11.8l10-5v11.1c0 .4-.2.8-.6.9zm2.6-4.9v-7.5c0-1.1-.6-2.2-1.7-2.7l-7.3-3.6v-1.9c0-.4.2-.7.5-.9l3.9-2.1-.9-1.8-3.9 2.1c-1 .5-1.6 1.5-1.6 2.7v.9l-.7-.3c-.7-.4-1.6-.4-2.3-.1v-11.9l16.6 8.7c.1.1.3.1.4.2v19.8zm5 1.6v-19.8c.1 0 .3-.1.4-.2l16.6-8.7v11.8c-.8-.3-1.6-.2-2.3.1l-.7.4v-.9c0-1.1-.6-2.1-1.6-2.7l-3.9-2.1-.9 1.8 3.9 2.1c.3.2.5.5.5.9v1.9l-7.3 3.7c-1 .5-1.7 1.5-1.7 2.7v7.5zm16-5.4-9.8-4.9 5.8-2.9v2.9h2v-3.9l1.6-.8c.1-.1.3-.1.4-.1.2 0 .3 0 .4.1l9.3 4.7zm-10.4 8.7c-.4-.1-.6-.5-.6-.9v-11.1l10 5v11.8zm20.8 0-9.4 4.8v-11.8l10-5v11.1c0 .4-.2.8-.6.9zm0-32-7.4 3.8v-4.2c0-1.1-.6-2.1-1.6-2.7l-.4-.2v-3.8c.1 0 .2-.1.3-.1l9.7-4.8v11.1c0 .4-.2.8-.6.9z"/></svg>