<?xml version="1.0" encoding="UTF-8" standalone="no"?><!-- Generator: Gravit.io --><svg xmlns="http://www.w3.org/2000/svg" xmlns:xlink="http://www.w3.org/1999/xlink" style="isolation:isolate" viewBox="0 0 600 400" width="600pt" height="400pt"><defs><clipPath id="_clipPath_L4STROI336nAAgrUsmHIbAK8N6RRQlhF"><rect width="600" height="400"/></clipPath></defs><g clip-path="url(#_clipPath_L4STROI336nAAgrUsmHIbAK8N6RRQlhF)"><g><path d=" M 61.1 371.326 C 61.1 372.612 60.024 373.658 58.738 373.658 L 13.231 373.658 C 14.367 384.901 22.829 395.156 34.729 395.156 C 42.861 395.156 48.901 392.047 53.446 385.558 C 54.104 384.661 55.09 384.093 56.346 384.631 C 57.034 384.93 57.512 385.558 57.632 386.276 C 57.752 387.023 57.542 387.442 57.333 387.861 C 52.758 395.844 43.639 399.761 34.699 399.761 C 19.39 399.761 8.477 386.067 8.477 371.416 C 8.477 356.765 19.39 343.071 34.699 343.071 C 50.007 343.041 61.07 356.705 61.1 371.326 M 56.227 369.113 C 55.24 357.871 46.629 347.615 34.729 347.615 C 22.829 347.615 14.367 357.871 13.231 369.113 L 56.227 369.113 Z  M 116.325 344.177 C 117.641 344.177 118.598 345.313 118.598 346.449 C 118.598 347.765 117.611 348.722 116.325 348.722 L 104.126 348.722 L 104.126 396.591 C 104.126 397.728 103.139 398.864 101.854 398.864 C 100.538 398.864 99.581 397.728 99.581 396.591 L 99.581 348.722 L 87.861 348.722 C 86.545 348.722 85.588 347.735 85.588 346.449 C 85.588 345.313 86.575 344.177 87.861 344.177 L 99.581 344.177 L 99.581 326.656 C 99.581 325.549 100.329 324.533 101.405 324.353 C 102.93 324.114 104.126 325.161 104.126 326.596 L 104.126 344.177 L 116.325 344.177 Z  M 190.746 367.319 L 190.746 396.322 C 190.746 397.638 189.61 398.595 188.474 398.595 C 187.158 398.595 186.201 397.608 186.201 396.322 L 186.201 367.319 C 186.201 357.542 180.67 347.765 169.756 347.765 C 155.763 347.765 149.723 359.994 150.531 372.522 C 150.531 372.851 150.68 374.316 150.68 374.466 L 150.68 396.233 C 150.68 397.339 149.933 398.356 148.856 398.535 C 147.331 398.774 146.135 397.728 146.135 396.292 L 146.135 301.032 C 146.135 299.895 147.122 298.759 148.408 298.759 C 149.723 298.759 150.68 299.895 150.68 301.032 L 150.68 354.941 C 154.597 347.944 161.594 343.22 169.726 343.22 C 183.092 343.22 190.746 354.941 190.746 367.319 M 272.343 371.326 C 272.343 372.612 271.266 373.658 269.981 373.658 L 224.443 373.658 C 225.579 384.901 234.041 395.156 245.941 395.156 C 254.074 395.156 260.114 392.047 264.658 385.558 C 265.316 384.661 266.303 384.093 267.559 384.631 C 268.246 384.93 268.725 385.558 268.844 386.276 C 268.964 387.023 268.755 387.442 268.545 387.861 C 263.971 395.844 254.851 399.761 245.911 399.761 C 230.602 399.761 219.689 386.067 219.689 371.416 C 219.689 356.765 230.602 343.071 245.911 343.071 C 261.25 343.041 272.313 356.705 272.343 371.326 M 267.439 369.113 C 266.452 357.871 257.841 347.615 245.941 347.615 C 234.041 347.615 225.579 357.871 224.443 369.113 L 267.439 369.113 Z  M 328.196 346.3 C 328.196 347.765 327.388 348.572 326.073 348.752 C 312.707 350.695 306.698 361.609 306.698 374.316 L 306.698 396.083 C 306.698 397.189 305.95 398.206 304.874 398.385 C 303.349 398.625 302.153 397.578 302.153 396.143 L 302.153 346.539 C 302.153 345.433 302.9 344.416 303.977 344.237 C 305.502 343.998 306.698 345.044 306.698 346.479 L 306.698 356.585 C 310.435 350.247 317.94 344.207 325.744 344.207 C 326.88 344.177 328.196 345.014 328.196 346.3 M 402.945 371.326 C 402.945 372.612 401.869 373.658 400.583 373.658 L 355.075 373.658 C 356.212 384.901 364.673 395.156 376.573 395.156 C 384.706 395.156 390.746 392.047 395.291 385.558 C 395.949 384.661 396.935 384.093 398.191 384.631 C 398.879 384.93 399.357 385.558 399.477 386.276 C 399.596 387.023 399.387 387.442 399.178 387.861 C 394.603 395.844 385.484 399.761 376.544 399.761 C 361.235 399.761 350.321 386.067 350.321 371.416 C 350.321 356.765 361.235 343.071 376.544 343.071 C 391.852 343.041 402.915 356.705 402.945 371.326 M 398.071 369.113 C 397.085 357.871 388.474 347.615 376.573 347.615 C 364.673 347.615 356.212 357.871 355.075 369.113 L 398.071 369.113 L 398.071 369.113 Z  M 476.409 346.868 L 476.409 396.591 C 476.409 397.907 475.273 398.864 474.137 398.864 C 472.821 398.864 471.864 397.877 471.864 396.591 L 471.864 387.143 C 468.127 394.648 461.429 400 452.968 400 C 439.453 400 431.948 388.279 431.948 375.901 L 431.948 346.748 C 431.948 345.612 432.935 344.476 434.22 344.476 C 435.536 344.476 436.493 345.612 436.493 346.748 L 436.493 375.901 C 436.493 385.678 442.024 395.455 452.938 395.455 C 468.246 395.455 471.834 381.133 471.834 365.316 L 471.834 346.748 C 471.834 345.433 473.15 344.087 474.765 344.566 C 475.751 344.895 476.409 345.851 476.409 346.868 M 591.523 367.14 L 591.523 396.292 C 591.523 397.608 590.387 398.565 589.251 398.565 C 587.935 398.565 586.979 397.578 586.979 396.292 L 586.979 367.14 C 586.979 357.363 581.447 347.765 570.534 347.765 C 556.84 347.765 551.637 362.416 551.637 373.808 L 551.637 396.292 C 551.637 397.608 550.501 398.565 549.365 398.565 C 548.049 398.565 547.092 397.578 547.092 396.292 L 547.092 367.14 C 547.092 357.363 541.561 347.765 530.647 347.765 C 516.804 347.765 511.093 358.678 511.601 373.18 C 511.601 373.509 511.751 374.167 511.601 374.316 L 511.601 396.233 C 511.601 397.339 510.854 398.356 509.747 398.535 C 508.222 398.774 507.026 397.728 507.026 396.292 L 507.026 346.539 C 507.026 345.433 507.774 344.416 508.85 344.237 C 510.375 343.998 511.571 345.044 511.571 346.479 L 511.571 354.791 C 515.488 347.795 522.485 343.22 530.617 343.22 C 539.886 343.22 547.062 349.081 549.993 357.722 C 553.73 349.26 561.055 343.22 570.504 343.22 C 583.869 343.22 591.523 354.762 591.523 367.14" fill="rgb(60,60,59)"/><g style="opacity:0.6;"><g opacity="0.6"><clipPath id="_clipPath_ZSGEXsaIuEC9vCPS8khoXP9DWcAs2iYN"><path d=" M 223.965 91.613 L 376.065 91.613 L 376.065 171.147 L 223.965 171.147 L 223.965 91.613 Z " fill="rgb(255,255,255)"/></clipPath><g clip-path="url(#_clipPath_ZSGEXsaIuEC9vCPS8khoXP9DWcAs2iYN)"><g opacity="0.6"><path d=" M 300.03 91.613 L 223.965 126.207 L 300.03 171.147 L 376.065 126.207 L 300.03 91.613 Z " fill="rgb(1,1,1)"/></g></g></g></g><g style="opacity:0.45;"><g opacity="0.45"><clipPath id="_clipPath_YhL7nW4AMBFpDbvovWL6y3tDfHMnkzur"><path d=" M 223.965 0 L 300.03 0 L 300.03 171.147 L 223.965 171.147 L 223.965 0 Z " fill="rgb(255,255,255)"/></clipPath><g clip-path="url(#_clipPath_YhL7nW4AMBFpDbvovWL6y3tDfHMnkzur)"><g opacity="0.45"><path d=" M 223.965 126.207 L 300.03 171.147 L 300.03 0 L 223.965 126.207 Z " fill="rgb(1,1,1)"/></g></g></g></g><g style="opacity:0.8;"><g opacity="0.8"><clipPath id="_clipPath_a57bqAQOnIzY0vd2uHradw7aufxsJ36J"><path d=" M 300.03 0 L 376.095 0 L 376.095 171.147 L 300.03 171.147 L 300.03 0 Z " fill="rgb(255,255,255)"/></clipPath><g clip-path="url(#_clipPath_a57bqAQOnIzY0vd2uHradw7aufxsJ36J)"><g opacity="0.8"><path d=" M 300.03 0 L 300.03 171.147 L 376.065 126.207 L 300.03 0 Z " fill="rgb(1,1,1)"/></g></g></g></g><g style="opacity:0.45;"><g opacity="0.45"><clipPath id="_clipPath_gcDzoTchWNX0nLDLDAXFGdcTdYdq8DjT"><path d=" M 223.965 140.619 L 300.03 140.619 L 300.03 247.78 L 223.965 247.78 L 223.965 140.619 Z " fill="rgb(255,255,255)"/></clipPath><g clip-path="url(#_clipPath_gcDzoTchWNX0nLDLDAXFGdcTdYdq8DjT)"><g opacity="0.45"><path d=" M 223.965 140.619 L 300.03 247.78 L 300.03 185.558 L 223.965 140.619 Z " fill="rgb(1,1,1)"/></g></g></g></g><g style="opacity:0.8;"><g opacity="0.8"><clipPath id="_clipPath_iVurQkfoBUAAx6zmFcd19lCCVNYclf2p"><path d=" M 300.03 140.619 L 376.125 140.619 L 376.125 247.78 L 300.03 247.78 L 300.03 140.619 Z " fill="rgb(255,255,255)"/></clipPath><g clip-path="url(#_clipPath_iVurQkfoBUAAx6zmFcd19lCCVNYclf2p)"><g opacity="0.8"><path d=" M 300.03 185.558 L 300.03 247.78 L 376.125 140.619 L 300.03 185.558 Z " fill="rgb(1,1,1)"/></g></g></g></g></g></g></svg>