<?xml version="1.0" encoding="UTF-8" standalone="no"?><!-- Generator: Gravit.io --><svg xmlns="http://www.w3.org/2000/svg" xmlns:xlink="http://www.w3.org/1999/xlink" style="isolation:isolate" viewBox="0 0 600 400" width="600pt" height="400pt"><defs><clipPath id="_clipPath_WppIkQeg906YEMOGy5XuDjnCzEzz3ZQX"><rect width="600" height="400"/></clipPath></defs><g clip-path="url(#_clipPath_WppIkQeg906YEMOGy5XuDjnCzEzz3ZQX)"><g><path d=" M 114.271 299.216 C 105.609 292.991 109.584 279.867 120.12 279.867 C 126.345 279.867 130.807 284.33 130.807 290.516 C 130.807 292.954 130.732 293.254 128.819 296.741 C 128.482 297.341 127.244 298.466 126.082 299.253 C 123.982 300.678 123.982 300.678 120.158 300.678 L 116.295 300.678 L 114.271 299.216 Z " fill="rgb(0,0,0)"/><path d=" M 76.624 296.928 C 74.524 295.766 72.95 294.191 71.937 292.166 C 70.737 289.729 71 285.979 72.537 283.73 C 75.462 279.493 80.936 278.105 84.723 280.617 C 85.511 281.142 86.336 281.555 86.561 281.555 C 86.786 281.555 87.236 282.155 87.573 282.867 C 87.911 283.58 88.323 284.18 88.473 284.18 C 88.623 284.18 88.961 285.042 89.186 286.092 C 90.16 290.142 88.773 293.891 85.398 296.178 C 83.711 297.303 83.111 297.491 80.786 297.603 C 78.612 297.716 77.862 297.566 76.624 296.928 Z " fill="rgb(0,0,0)"/><path d=" M 162.604 293.816 C 157.317 291.829 154.467 288.079 154.129 282.605 C 154.017 280.43 154.129 279.268 154.654 277.843 C 155.029 276.793 155.479 275.93 155.629 275.93 C 155.779 275.93 155.929 275.668 155.929 275.33 C 155.929 274.655 158.966 271.656 160.429 270.906 C 163.991 269.069 170.44 269.406 173.29 271.581 C 174.153 272.218 175.54 273.606 176.365 274.655 C 177.715 276.268 178.015 276.98 178.39 279.38 C 179.402 285.567 176.965 290.666 171.865 293.029 C 169.203 294.304 164.891 294.641 162.604 293.816 Z " fill="rgb(0,0,0)"/><path d=" M 94.135 282.08 C 91.773 280.917 90.573 279.455 89.748 276.568 C 88.923 273.756 89.598 269.781 91.135 268.131 C 95.297 263.632 100.997 263.519 105.159 267.794 C 106.434 269.143 106.771 269.781 107.109 271.768 C 107.934 276.493 106.359 280.055 102.609 281.967 C 99.76 283.392 96.985 283.43 94.135 282.08 Z " fill="rgb(0,0,0)"/><path d=" M 132.944 278.705 C 130.769 277.918 129.269 276.568 127.807 274.206 C 126.607 272.181 126.495 271.806 126.495 268.994 C 126.495 266.519 126.682 265.619 127.394 264.231 C 129.944 259.244 135.756 257.032 141.006 259.094 C 143.293 259.994 145.055 261.532 146.48 263.931 C 147.343 265.394 147.455 266.031 147.493 268.806 C 147.493 271.843 147.418 272.143 146.18 274.206 C 144.68 276.643 143.218 277.918 140.893 278.743 C 138.906 279.418 134.894 279.418 132.944 278.705 Z " fill="rgb(0,0,0)"/><path d=" M 62.301 277.993 C 59.113 276.605 57.051 272.968 57.539 269.668 C 58.138 265.619 62.076 262.507 66.05 262.919 C 72.425 263.557 75.612 271.018 71.6 275.818 C 70.025 277.693 68.188 278.555 65.788 278.555 C 64.513 278.518 62.938 278.293 62.301 277.993 Z " fill="rgb(0,0,0)"/><path d=" M 80.561 263.444 C 78.162 262.282 77.224 261.419 76.474 259.732 C 73.737 253.432 78.574 247.096 85.211 248.333 C 87.236 248.708 90.048 251.145 90.61 252.983 C 91.285 255.232 91.173 258.007 90.348 259.919 C 89.336 262.244 86.448 263.931 83.524 263.931 C 82.399 263.894 81.086 263.707 80.561 263.444 Z " fill="rgb(0,0,0)"/><path d=" M 110.971 260.519 C 107.034 258.569 105.422 254.82 106.434 250.058 C 106.996 247.396 108.571 245.446 111.271 244.058 C 113.896 242.746 118.845 243.233 120.308 244.958 C 120.57 245.296 120.983 245.558 121.208 245.558 C 122.407 245.596 124.057 249.57 124.057 252.458 C 124.057 255.457 123.12 257.745 121.283 259.244 C 117.983 261.944 114.646 262.357 110.971 260.519 Z " fill="rgb(0,0,0)"/><path d=" M 53.789 259.432 C 51.652 258.794 49.439 255.382 49.439 252.758 C 49.439 251.22 50.939 248.67 52.439 247.621 C 55.289 245.633 58.626 245.971 61.401 248.52 L 62.938 249.945 L 62.938 252.945 C 62.938 255.832 62.901 255.982 61.626 257.482 C 59.788 259.619 56.864 260.332 53.789 259.432 Z " fill="rgb(0,0,0)"/><path d=" M 336.1 255.682 C 334.45 255.495 331.6 255.007 329.725 254.557 C 327.888 254.145 325.976 253.695 325.488 253.582 C 323.801 253.245 316.452 249.72 315.252 248.708 C 314.952 248.408 314.502 248.183 314.314 248.183 C 313.902 248.183 310.902 245.783 308.54 243.571 C 306.103 241.246 301.416 235.884 301.416 235.359 C 301.416 235.209 300.853 234.197 300.178 233.109 C 298.266 230.072 295.979 224.785 294.704 220.436 C 291.629 209.974 291.592 192.613 294.666 182.902 C 295.266 180.952 295.791 179.189 295.791 178.964 C 295.791 178.29 299.353 170.903 300.441 169.328 C 300.966 168.54 301.416 167.791 301.416 167.603 C 301.416 167.453 302.016 166.666 302.728 165.841 C 303.44 165.053 304.04 164.266 304.04 164.116 C 304.04 163.816 310.34 157.442 310.677 157.442 C 310.79 157.442 311.54 156.842 312.327 156.129 C 313.114 155.417 314.464 154.479 315.364 154.029 C 316.264 153.579 317.239 153.017 317.539 152.754 C 317.839 152.454 318.776 152.005 319.601 151.705 C 320.426 151.405 322.114 150.73 323.351 150.205 C 325.976 149.08 329.613 148.255 335.162 147.43 C 343.562 146.23 354.436 147.767 362.197 151.255 C 364.635 152.342 366.922 153.504 367.259 153.842 C 367.559 154.179 368.009 154.442 368.197 154.442 C 369.097 154.442 375.921 160.441 378.283 163.328 C 379.746 165.053 380.908 166.628 380.908 166.778 C 380.908 166.928 381.246 167.378 381.621 167.828 C 382.595 168.84 385.633 174.727 386.57 177.315 C 390.057 187.026 391.52 197.263 390.732 206.412 C 390.17 212.636 388.22 222.348 387.283 223.623 C 387.095 223.848 386.758 224.748 386.495 225.685 C 385.895 227.785 383.008 233.259 381.583 235.097 C 381.021 235.847 380.533 236.597 380.533 236.747 C 380.533 237.122 377.008 241.284 375.359 242.858 C 373.596 244.546 369.059 248.183 368.722 248.183 C 368.534 248.183 367.859 248.633 367.147 249.158 C 366.472 249.683 364.222 250.845 362.16 251.745 C 354.998 254.932 344.274 256.545 336.1 255.682 Z  M 350.836 248.595 C 352.973 248.145 355.823 247.283 357.173 246.683 C 358.485 246.046 359.76 245.558 359.948 245.558 C 361.26 245.558 372.659 236.447 372.659 235.397 C 372.659 235.247 373.071 234.647 373.596 234.047 C 374.796 232.697 376.933 229.36 377.871 227.372 C 379.933 222.985 380.533 221.523 380.871 220.211 C 381.058 219.423 381.696 217.136 382.295 215.186 C 383.345 211.661 383.345 211.586 383.345 201.312 C 383.308 191.113 383.308 190.963 382.258 187.626 C 381.696 185.789 381.096 183.652 380.946 182.939 C 380.308 179.939 377.083 173.79 373.521 168.728 C 370.634 164.678 362.91 158.379 358.935 156.954 C 358.148 156.654 356.385 155.979 355.036 155.454 C 352.073 154.329 345.699 153.317 341.499 153.317 C 336.962 153.317 329.613 154.629 326.426 156.017 C 323.051 157.442 320.989 158.491 319.826 159.391 C 319.339 159.766 318.776 160.066 318.589 160.066 C 318.214 160.066 317.577 160.629 313.527 164.341 C 311.577 166.141 307.19 171.578 306.74 172.74 C 306.628 173.115 305.953 174.24 305.278 175.327 C 304.603 176.415 304.04 177.577 304.04 177.99 C 304.04 178.365 303.89 178.814 303.703 179.039 C 302.653 180.202 300.328 188.639 299.541 194.376 C 298.716 200.3 299.316 209.487 300.853 215.186 C 301.153 216.311 301.416 217.548 301.416 217.923 C 301.416 218.636 303.59 224.148 304.678 226.248 C 306.778 230.372 307.378 231.347 308.915 233.372 C 311.577 236.972 317.839 242.933 318.889 242.933 C 319.114 242.933 319.564 243.196 319.826 243.571 C 320.389 244.208 324.701 246.308 327.851 247.433 C 329.425 247.995 332.313 248.633 337.037 249.458 C 339.175 249.833 347.199 249.345 350.836 248.595 Z " fill="rgb(0,0,0)"/><path d=" M 241.046 201.5 L 241.046 149.567 L 244.421 149.567 L 247.796 149.567 L 247.796 201.5 L 247.796 253.432 L 244.421 253.432 L 241.046 253.432 L 241.046 201.5 Z " fill="rgb(0,0,0)"/><path d=" M 452.901 204.5 L 452.901 155.567 L 434.716 155.567 L 416.53 155.567 L 416.53 152.567 L 416.53 149.567 L 456.276 149.567 L 496.022 149.567 L 496.022 152.567 L 496.022 155.567 L 478.024 155.567 L 460.026 155.567 L 460.026 204.5 L 460.026 253.432 L 456.463 253.432 L 452.901 253.432 L 452.901 204.5 Z " fill="rgb(0,0,0)"/><path d=" M 510.271 253.058 C 510.271 252.87 510.608 251.97 511.021 251.108 C 512.033 248.82 514.358 243.083 515.145 240.834 C 515.52 239.784 516.27 237.984 516.795 236.784 C 517.32 235.622 517.77 234.497 517.77 234.309 C 517.77 234.122 518.295 232.809 518.933 231.422 C 519.57 230.035 520.32 228.16 520.657 227.222 C 520.957 226.285 521.595 224.673 522.082 223.623 C 522.532 222.61 523.132 221.073 523.395 220.248 C 523.657 219.423 524.37 217.736 524.932 216.536 C 525.532 215.299 526.019 214.099 526.019 213.836 C 526.019 213.574 526.544 212.224 527.182 210.799 C 527.819 209.412 528.569 207.574 528.832 206.749 C 529.432 204.987 531.906 198.95 533.294 195.913 C 533.819 194.75 534.269 193.626 534.269 193.401 C 534.269 193.213 534.869 191.563 535.619 189.763 C 538.993 181.627 539.481 180.464 539.706 179.639 C 539.856 179.152 540.531 177.502 541.243 175.965 C 541.955 174.427 542.518 172.928 542.518 172.665 C 542.518 172.403 542.743 171.69 543.043 171.09 C 543.98 169.14 545.03 166.628 545.33 165.691 C 545.48 165.166 546.118 163.703 546.68 162.391 C 547.28 161.116 547.767 159.879 547.767 159.654 C 547.767 159.466 548.105 158.529 548.517 157.591 C 550.017 154.254 550.655 152.717 551.142 151.18 L 551.63 149.567 L 555.454 149.567 L 559.279 149.567 L 560.479 152.192 C 561.116 153.654 561.641 155.004 561.641 155.229 C 561.641 155.454 562.091 156.579 562.616 157.741 C 563.141 158.904 563.966 160.966 564.453 162.316 C 565.353 164.866 566.216 167.078 568.128 171.503 C 568.728 172.965 569.628 175.215 570.078 176.565 C 571.015 179.227 571.953 181.627 573.865 186.051 C 574.577 187.664 575.14 189.239 575.14 189.501 C 575.14 189.763 575.702 191.226 576.415 192.763 C 577.09 194.263 577.765 195.913 577.915 196.438 C 578.065 196.963 578.739 198.725 579.414 200.375 C 581.739 205.999 582.339 207.499 583.052 209.562 C 583.464 210.686 583.952 211.961 584.139 212.374 C 585.339 214.999 586.014 216.686 586.014 217.023 C 586.014 217.248 586.576 218.711 587.289 220.323 C 588.001 221.935 588.864 224.073 589.201 225.123 C 589.576 226.135 590.251 227.86 590.738 228.947 C 591.226 229.997 591.638 231.047 591.638 231.272 C 591.638 231.46 592.238 232.997 592.951 234.647 C 593.663 236.259 594.263 237.834 594.263 238.059 C 594.263 238.321 594.863 239.784 595.575 241.321 C 596.288 242.858 597 244.583 597.15 245.146 C 597.263 245.671 597.863 247.208 598.5 248.558 C 599.1 249.908 599.663 251.558 599.775 252.233 L 600 253.432 L 596.25 253.432 L 592.501 253.432 L 592.013 251.858 C 591.751 250.958 591.001 248.933 590.288 247.321 C 589.576 245.708 589.014 244.133 589.014 243.833 C 589.014 243.571 588.564 242.371 588.039 241.171 C 587.476 239.971 586.764 238.059 586.389 236.934 C 586.014 235.809 585.189 233.522 584.514 231.872 C 581.664 224.86 580.764 222.46 580.764 222.048 C 580.764 221.785 580.164 220.323 579.452 218.711 C 578.739 217.136 578.14 215.599 578.14 215.336 C 578.14 214.924 577.652 213.724 575.89 209.749 C 575.59 209.074 574.84 206.974 572.815 201.312 C 572.44 200.187 571.728 198.425 571.24 197.375 C 570.753 196.363 570.265 195.088 570.115 194.563 C 569.74 193.288 567.116 186.464 565.541 182.677 C 564.828 180.989 564.266 179.414 564.266 179.189 C 564.266 178.927 563.666 177.39 562.953 175.702 C 562.241 174.052 561.641 172.478 561.641 172.215 C 561.641 171.953 561.154 170.64 560.516 169.29 C 559.916 167.903 559.166 165.991 558.866 165.016 C 558.566 164.041 557.929 162.316 557.442 161.191 C 556.917 160.066 556.392 158.791 556.242 158.379 C 556.017 157.779 555.717 158.116 554.667 160.366 C 553.954 161.904 553.392 163.328 553.392 163.628 C 553.392 163.891 552.717 165.578 551.892 167.341 C 551.067 169.103 550.392 170.753 550.392 170.978 C 550.392 171.353 549.68 173.19 546.418 180.952 C 545.705 182.639 545.143 184.214 545.143 184.439 C 545.143 184.626 544.805 185.526 544.393 186.426 C 543.605 188.114 541.018 194.563 539.818 197.938 C 539.406 199.063 538.581 201.05 537.981 202.362 C 537.381 203.675 536.893 204.95 536.893 205.25 C 536.893 205.512 536.293 207.012 535.581 208.549 C 534.869 210.087 534.269 211.549 534.269 211.811 C 534.269 212.074 533.594 213.799 532.769 215.636 C 531.944 217.511 531.269 219.236 531.269 219.461 C 531.269 219.723 530.819 220.848 530.294 221.973 C 529.732 223.098 528.982 225.01 528.569 226.21 C 528.157 227.447 527.444 229.285 526.919 230.335 C 526.432 231.347 526.019 232.397 526.019 232.659 C 526.019 232.884 525.345 234.609 524.52 236.484 C 523.695 238.321 523.02 240.009 523.02 240.234 C 523.02 240.421 522.42 241.884 521.707 243.458 C 520.995 245.071 520.395 246.571 520.395 246.833 C 520.395 247.133 519.758 248.708 519.008 250.395 L 517.62 253.432 L 513.946 253.432 C 511.808 253.432 510.271 253.282 510.271 253.058 Z " fill="rgb(0,0,0)"/><path d=" M 143.93 247.096 C 142.656 245.858 142.243 244.546 142.581 242.821 C 143.068 240.196 146.33 238.809 149.217 240.046 C 150.942 240.759 151.767 243.158 151.055 245.371 C 150.342 247.508 149.367 248.183 147.005 248.183 C 145.28 248.183 144.83 248.033 143.93 247.096 Z " fill="rgb(0,0,0)"/><path d=" M 72.612 245.183 C 67.138 243.533 66.05 235.509 70.887 232.659 C 75.237 230.11 80.486 232.734 81.161 237.759 C 81.386 239.221 81.236 239.896 80.411 241.584 C 79.586 243.308 79.099 243.796 77.487 244.583 C 75.499 245.596 74.374 245.708 72.612 245.183 Z " fill="rgb(0,0,0)"/><path d=" M 154.954 243.533 C 153.492 242.109 153.305 241.696 153.305 240.271 C 153.305 237.234 155.479 235.059 158.517 235.059 C 160.166 235.059 160.616 235.247 161.891 236.372 C 164.291 238.546 164.291 241.246 161.929 243.721 C 160.654 245.071 160.391 245.183 158.554 245.183 C 156.717 245.183 156.454 245.071 154.954 243.533 Z " fill="rgb(0,0,0)"/><path d=" M 52.064 243.121 C 52.064 242.746 51.689 242.558 50.977 242.558 C 50.189 242.558 49.477 242.109 48.164 240.684 C 46.627 239.034 46.44 238.659 46.44 237.047 C 46.44 234.834 47.414 232.847 49.027 231.909 C 50.602 231.01 53.714 230.935 55.476 231.797 C 57.801 232.959 58.776 236.672 57.501 239.671 C 56.939 241.059 54.914 242.558 53.601 242.558 C 53.151 242.558 52.814 242.783 52.814 243.121 C 52.814 243.421 52.664 243.683 52.439 243.683 C 52.252 243.683 52.064 243.421 52.064 243.121 Z " fill="rgb(0,0,0)"/><path d=" M 97.735 242.221 C 96.122 241.696 93.648 239.559 93.085 238.171 C 92.448 236.709 92.448 232.697 93.048 231.01 C 93.61 229.472 96.347 227.297 98.072 226.96 C 100.697 226.473 103.209 226.96 104.897 228.31 C 108.946 231.572 108.946 237.721 104.859 240.871 C 103.397 242.034 102.722 242.259 100.922 242.409 C 99.722 242.484 98.297 242.371 97.735 242.221 Z " fill="rgb(0,0,0)"/><path d=" M 167.628 237.684 C 165.903 236.634 164.928 234.834 164.928 232.697 C 164.928 230.672 165.266 229.885 166.653 228.497 C 170.215 224.935 176.552 227.522 176.552 232.509 C 176.552 234.609 175.202 237.122 173.665 237.834 C 171.903 238.659 169.166 238.621 167.628 237.684 Z " fill="rgb(0,0,0)"/><path d=" M 133.356 235.472 C 131.894 234.122 131.782 233.897 131.782 231.909 C 131.744 229.847 131.819 229.697 133.319 228.272 C 134.744 226.96 135.081 226.81 136.919 226.81 C 138.756 226.81 139.056 226.96 140.331 228.197 C 142.731 230.597 142.693 233.222 140.218 235.547 C 138.868 236.784 138.493 236.934 136.806 236.934 C 135.119 236.934 134.744 236.784 133.356 235.472 Z " fill="rgb(0,0,0)"/><path d=" M 145.918 229.435 C 145.243 229.06 144.343 228.01 143.893 227.147 C 141.456 222.348 146.255 217.061 151.317 218.973 C 153.454 219.761 154.804 221.86 154.804 224.373 C 154.804 226.66 153.642 228.76 151.955 229.585 C 150.155 230.41 147.418 230.372 145.918 229.435 Z " fill="rgb(0,0,0)"/><path d=" M 69.912 228.497 C 69.8 228.197 69.425 227.935 69.087 227.935 C 67.063 227.935 64.475 224.748 64.438 222.235 C 64.4 218.148 68.675 215.224 72.537 216.686 C 75.199 217.698 76.924 221.111 76.099 223.81 C 75.574 225.573 73.699 227.485 72.2 227.822 C 71.6 227.935 71.037 228.272 70.925 228.535 C 70.662 229.21 70.212 229.21 69.912 228.497 Z " fill="rgb(0,0,0)"/><path d=" M 182.552 228.685 C 182.552 228.347 181.802 227.86 180.714 227.447 C 177.527 226.323 175.465 223.023 176.027 220.023 C 176.44 217.773 178.052 215.674 179.852 214.961 C 182.889 213.836 186.751 214.661 188.326 216.798 C 189.001 217.698 189.114 218.411 189.114 221.261 L 189.114 224.635 L 187.614 225.91 C 186.789 226.622 185.551 227.335 184.839 227.522 C 184.164 227.747 183.377 228.197 183.077 228.572 C 182.664 229.097 182.589 229.135 182.552 228.685 Z " fill="rgb(0,0,0)"/><path d=" M 49.177 226.735 C 47.939 225.873 46.815 223.698 46.815 222.273 C 46.815 221.261 47.677 219.686 48.802 218.636 C 49.814 217.698 52.364 217.361 54.389 217.923 C 56.639 218.523 58.063 222.573 56.826 224.823 C 55.364 227.447 51.539 228.385 49.177 226.735 Z " fill="rgb(0,0,0)"/><path d=" M 119.858 226.173 C 118.395 225.948 116.52 223.435 116.295 221.373 C 116.146 220.173 116.295 219.311 116.97 217.998 C 118.208 215.524 118.845 215.186 122.22 215.186 L 125.107 215.186 L 126.457 216.761 C 128.332 218.936 128.444 221.823 126.757 224.26 C 125.407 226.173 123.457 226.697 119.858 226.173 Z " fill="rgb(0,0,0)"/><path d=" M 86.861 222.198 C 85.211 220.773 84.686 219.536 84.686 217.136 C 84.686 215.224 85.323 212.561 85.736 212.561 C 85.886 212.561 86.448 212.149 87.011 211.624 C 88.586 210.199 90.985 209.712 93.235 210.462 C 97.772 211.999 99.497 217.398 96.61 221.111 C 94.923 223.285 94.548 223.435 91.285 223.435 C 88.398 223.435 88.173 223.36 86.861 222.198 Z " fill="rgb(0,0,0)"/><path d=" M 8.006 220.361 C 5.868 219.611 3.019 217.361 1.556 215.261 C 0.131 213.199 0.131 213.161 0.019 209.037 C -0.094 204.837 0.281 202.925 1.519 201.612 C 1.781 201.35 2.306 200.675 2.644 200.112 C 3.319 199.1 3.844 198.725 7.256 197 C 9.955 195.65 13.78 195.688 16.855 197.038 C 18.092 197.6 19.067 198.2 19.067 198.35 C 19.067 198.538 19.292 198.688 19.555 198.688 C 20.155 198.688 21.692 200.262 21.692 200.862 C 21.692 201.125 21.842 201.312 22.029 201.312 C 22.179 201.312 22.779 202.287 23.342 203.525 C 24.992 207.199 24.542 212.636 22.367 215.036 C 21.992 215.449 21.692 215.973 21.692 216.198 C 21.692 216.873 18.355 219.386 16.405 220.098 C 14.343 220.886 9.918 221.036 8.006 220.361 Z " fill="rgb(0,0,0)"/><path d=" M 160.804 220.361 C 160.804 219.986 160.241 219.573 159.416 219.273 C 154.842 217.811 153.117 213.349 155.442 209.149 C 156.642 207.049 158.404 206.187 161.366 206.187 C 164.891 206.224 167.216 208.212 167.703 211.624 C 168.041 213.836 166.878 217.811 165.903 217.811 C 165.678 217.811 165.078 218.148 164.553 218.561 C 164.029 218.973 163.316 219.311 162.979 219.311 C 162.604 219.311 162.004 219.686 161.554 220.136 C 160.954 220.773 160.804 220.848 160.804 220.361 Z " fill="rgb(0,0,0)"/><path d=" M 131.369 215.299 C 129.382 214.774 127.469 211.624 127.432 208.887 C 127.394 203.6 133.469 200.375 137.893 203.3 C 141.418 205.624 141.868 210.724 138.906 213.949 C 137.743 215.224 137.556 215.299 134.894 215.411 C 133.356 215.449 131.782 215.411 131.369 215.299 Z " fill="rgb(0,0,0)"/><path d=" M 52.177 214.549 C 50.077 212.636 49.627 210.312 50.939 208.174 C 52.327 205.849 56.301 205.737 58.063 207.949 C 59.676 210.012 59.488 211.961 57.501 213.949 C 56.489 214.961 56.001 215.186 54.614 215.186 C 53.526 215.186 52.664 214.961 52.177 214.549 Z " fill="rgb(0,0,0)"/><path d=" M 67.513 212.374 C 65.525 211.511 64.625 208.324 65.563 205.549 C 66.125 203.975 68.562 202.662 70.475 202.925 C 73.325 203.3 75.049 205.175 75.049 207.837 C 75.049 211.811 71.337 214.024 67.513 212.374 Z " fill="rgb(0,0,0)"/><path d=" M 191.101 212.036 C 189.639 211.511 187.464 209.862 186.714 208.662 C 186.076 207.724 185.776 204.425 186.076 202.287 C 186.601 198.988 190.651 196.138 194.288 196.55 C 201.3 197.413 203.85 206.149 198.413 210.649 C 196.163 212.524 193.726 212.974 191.101 212.036 Z " fill="rgb(0,0,0)"/><path d=" M 86.936 206.937 C 86.936 206.749 86.561 206.562 86.073 206.562 C 84.761 206.562 82.511 204.8 81.874 203.3 C 80.111 199.1 82.699 194.938 87.048 194.938 C 90.498 194.938 92.935 197.375 92.935 200.862 C 92.935 202.812 92.86 203 91.098 204.725 C 90.085 205.774 88.961 206.562 88.473 206.562 C 88.061 206.562 87.686 206.749 87.686 206.937 C 87.686 207.162 87.536 207.312 87.311 207.312 C 87.123 207.312 86.936 207.162 86.936 206.937 Z " fill="rgb(0,0,0)"/><path d=" M 169.69 203.787 C 167.666 203.225 165.491 201.387 164.703 199.55 C 163.879 197.6 164.029 193.888 165.041 192.238 C 166.691 189.501 169.765 187.964 172.84 188.301 C 177.64 188.864 180.752 193.851 179.365 198.613 C 178.127 202.737 174.04 204.912 169.69 203.787 Z " fill="rgb(0,0,0)"/><path d=" M 33.916 199.325 C 31.403 198.35 29.229 196.175 28.029 193.513 C 26.941 191.038 27.054 187.289 28.291 184.964 C 30.504 180.764 33.128 179.189 37.928 179.189 C 41.64 179.189 42.615 179.489 44.602 181.177 C 47.602 183.764 48.952 186.951 48.577 190.588 C 47.864 197.638 40.59 201.95 33.916 199.325 Z " fill="rgb(0,0,0)"/><path d=" M 141.493 199.55 C 138.043 197.75 136.244 193.963 137.144 190.513 C 137.631 188.826 139.506 186.314 141.006 185.414 C 142.281 184.626 147.268 184.589 148.767 185.376 C 150.155 186.089 152.105 188.714 152.592 190.588 C 153.492 193.888 151.767 197.713 148.73 199.288 C 146.63 200.375 143.255 200.487 141.493 199.55 Z " fill="rgb(0,0,0)"/><path d=" M 197.55 190.851 C 194.588 189.651 192.338 186.126 192.301 182.714 C 192.301 179.489 193.838 176.64 196.575 174.802 C 197.963 173.865 198.45 173.79 201.525 173.79 C 205.237 173.752 206.175 174.127 208.199 176.34 C 210.487 178.852 211.312 182.902 210.112 185.789 C 209.437 187.401 206.999 190.438 206.362 190.438 C 206.1 190.438 205.387 190.701 204.825 191.001 C 203.362 191.751 199.65 191.676 197.55 190.851 Z " fill="rgb(0,0,0)"/><path d=" M 60.238 187.476 C 58.776 187.176 56.039 185.001 55.064 183.352 C 54.651 182.639 54.501 181.289 54.501 178.59 L 54.501 174.802 L 55.926 173.078 C 58.438 170.003 62.676 168.99 66.8 170.453 C 72.837 172.628 74.074 181.214 69.012 185.751 C 66.913 187.626 64.025 188.189 60.238 187.476 Z " fill="rgb(0,0,0)"/><path d=" M 119.22 185.489 C 116.97 184.289 116.108 182.602 116.258 179.939 C 116.445 177.39 117.27 176.115 119.483 175.027 C 123.42 173.078 127.807 176.002 127.807 180.614 C 127.807 183.314 125.332 185.901 122.52 186.201 C 121.283 186.314 120.458 186.164 119.22 185.489 Z " fill="rgb(0,0,0)"/><path d=" M 176.402 182.752 C 174.153 181.964 173.178 181.064 171.903 178.627 C 169.653 174.352 170.778 169.515 174.603 166.778 C 176.252 165.578 176.477 165.541 179.74 165.541 C 182.214 165.541 183.414 165.691 184.239 166.141 C 185.814 167.041 187.689 169.103 188.364 170.678 C 189.076 172.365 189.114 176.19 188.401 177.802 C 187.651 179.639 185.177 182.039 183.377 182.714 C 181.427 183.464 178.39 183.464 176.402 182.752 Z " fill="rgb(0,0,0)"/><path d=" M 84.498 182.302 C 84.086 182.227 83.374 182.077 82.924 182.002 C 81.649 181.702 79.774 179.939 79.024 178.252 C 77.712 175.402 78.424 170.753 80.449 169.028 C 81.611 168.016 84.498 166.816 85.773 166.816 C 89.073 166.816 92.448 168.99 93.235 171.615 C 95.222 178.177 90.723 183.652 84.498 182.302 Z " fill="rgb(0,0,0)"/><path d=" M 103.847 182.189 C 102.534 182.002 101.859 181.589 100.884 180.464 C 99.347 178.702 98.935 177.727 98.935 175.815 C 98.935 173.94 99.497 172.515 100.734 171.165 C 102.122 169.703 103.772 169.065 106.171 169.065 C 107.896 169.065 108.421 169.253 109.921 170.415 C 111.983 172.028 112.583 173.527 112.358 176.602 C 112.208 178.59 112.021 179.002 110.746 180.314 C 109.959 181.139 109.021 181.889 108.721 181.964 C 107.259 182.339 105.347 182.452 103.847 182.189 Z " fill="rgb(0,0,0)"/><path d=" M 149.667 179.227 C 146.518 178.402 143.855 174.427 143.855 170.565 C 143.855 165.128 147.53 161.566 153.117 161.566 C 156.417 161.566 159.079 163.141 161.029 166.216 C 161.929 167.678 162.004 173.19 161.104 174.877 C 160.391 176.152 158.404 178.14 157.129 178.814 C 156.004 179.377 151.28 179.639 149.667 179.227 Z " fill="rgb(0,0,0)"/><path d=" M 23.754 174.09 C 21.654 173.34 19.705 171.653 18.505 169.515 C 17.717 168.165 17.417 167.078 17.267 164.866 C 17.117 162.241 17.192 161.791 18.205 159.616 C 18.955 158.041 19.855 156.804 20.867 156.017 C 24.954 152.792 31.478 152.979 35.003 156.467 C 37.515 158.941 38.19 160.629 38.19 164.191 C 38.19 167.753 37.478 169.515 35.003 171.953 C 32.453 174.465 27.466 175.402 23.754 174.09 Z " fill="rgb(0,0,0)"/><path d=" M 122.182 166.703 C 119.295 165.691 118.283 161.791 120.158 158.941 C 121.02 157.629 121.32 157.479 123.157 157.217 C 124.582 157.067 125.67 157.142 126.607 157.516 C 127.807 157.966 128.069 158.304 128.669 159.991 C 129.607 162.841 129.044 164.828 126.944 166.178 C 125.257 167.266 124.207 167.378 122.182 166.703 Z " fill="rgb(0,0,0)"/><path d=" M 49.514 162.129 C 47.452 161.229 45.84 159.766 44.79 157.779 C 43.852 156.092 43.74 155.567 43.852 152.979 C 44.002 150.28 44.115 149.942 45.427 148.255 C 47.564 145.48 49.402 144.543 52.814 144.543 C 55.289 144.505 55.851 144.655 57.689 145.705 C 64.175 149.455 63.013 159.804 55.851 162.241 C 54.126 162.841 51.014 162.766 49.514 162.129 Z " fill="rgb(0,0,0)"/><path d=" M 108.684 160.141 C 106.846 159.241 105.946 157.179 106.134 154.367 C 106.396 150.88 108.684 148.967 112.321 149.267 C 114.121 149.417 114.571 149.642 115.883 150.992 C 117.233 152.304 117.458 152.754 117.57 154.517 C 117.833 158.191 115.396 160.779 111.683 160.779 C 110.746 160.779 109.396 160.479 108.684 160.141 Z " fill="rgb(0,0,0)"/><path d=" M 179.552 157.179 C 177.94 156.917 175.015 154.404 173.778 152.192 C 172.728 150.355 172.615 149.792 172.615 147.13 C 172.615 143.83 173.028 142.705 175.315 139.968 C 177.077 137.793 179.74 136.668 183.114 136.668 C 187.801 136.668 190.951 138.731 192.976 143.118 C 193.726 144.768 193.838 145.555 193.726 147.617 C 193.651 149.005 193.276 150.805 192.863 151.63 C 191.851 153.692 188.814 156.579 187.126 157.067 C 185.814 157.404 181.539 157.479 179.552 157.179 Z " fill="rgb(0,0,0)"/><path d=" M 72.237 156.654 C 70.775 155.829 68.9 153.692 68.562 152.492 C 67.625 149.23 68.75 144.13 70.512 143.643 C 70.887 143.568 71.187 143.38 71.187 143.23 C 71.187 142.593 73.999 141.693 75.987 141.693 C 80.411 141.73 83.561 144.955 83.561 149.492 C 83.561 151.967 82.624 153.917 80.524 155.717 C 78.987 157.029 78.837 157.067 75.912 157.067 C 74.224 157.067 72.575 156.879 72.237 156.654 Z " fill="rgb(0,0,0)"/><path d=" M 91.923 156.354 C 91.285 155.942 90.273 154.854 89.748 153.879 C 88.886 152.417 88.736 151.855 88.886 149.98 C 89.186 146.005 92.26 143.343 96.16 143.643 C 100.697 144.018 103.284 148.33 101.747 152.942 C 100.809 155.792 98.897 157.067 95.597 157.067 C 93.798 157.067 92.785 156.879 91.923 156.354 Z " fill="rgb(0,0,0)"/><path d=" M 152.367 153.392 C 149.742 152.342 147.755 150.392 146.33 147.505 C 145.468 145.668 145.355 145.105 145.505 142.818 C 145.655 140.718 145.955 139.781 146.968 138.093 C 147.68 136.931 148.767 135.656 149.367 135.206 C 150.005 134.756 150.567 134.306 150.68 134.119 C 151.13 133.519 154.242 132.694 156.079 132.694 C 158.404 132.694 161.216 133.594 162.154 134.606 C 162.491 134.981 163.016 135.319 163.316 135.319 C 163.579 135.319 163.954 135.619 164.066 135.994 C 164.216 136.331 164.703 137.118 165.153 137.681 C 166.241 138.993 166.803 140.943 166.803 143.418 C 166.803 145.255 165.978 148.367 165.378 148.817 C 165.228 148.93 164.666 149.605 164.141 150.317 C 163.579 151.067 162.116 152.154 160.804 152.867 C 158.891 153.842 158.029 154.067 156.154 154.029 C 154.879 154.029 153.192 153.767 152.367 153.392 Z " fill="rgb(0,0,0)"/><path d=" M 127.357 151.255 C 125.407 150.167 124.695 147.467 125.745 144.993 C 126.157 143.905 126.57 143.605 127.994 143.193 C 130.057 142.593 132.419 143.193 133.319 144.543 C 135.906 148.48 131.482 153.467 127.357 151.255 Z " fill="rgb(0,0,0)"/><path d=" M 117.608 143.343 C 116.22 142.63 115.433 140.981 115.433 138.993 C 115.471 135.956 117.308 134.194 120.495 134.194 C 123.682 134.194 125.52 135.956 125.557 138.993 C 125.557 141.018 124.732 142.63 123.307 143.38 C 121.92 144.093 118.92 144.093 117.608 143.343 Z " fill="rgb(0,0,0)"/><path d=" M 45.502 138.918 C 42.952 137.718 41.378 135.919 40.665 133.481 C 39.915 130.894 39.915 130.444 40.74 127.669 C 41.865 123.77 45.052 121.445 49.252 121.445 C 51.914 121.445 53.939 122.307 55.814 124.145 C 57.951 126.244 58.813 130.069 57.913 133.256 C 57.089 136.031 55.214 138.056 52.589 139.068 C 49.889 140.043 47.827 140.006 45.502 138.918 Z " fill="rgb(0,0,0)"/><path d=" M 105.159 137.493 C 103.922 136.781 102.722 135.206 102.309 133.706 C 101.034 129.207 105.047 125.495 109.884 126.732 C 111.421 127.144 111.908 127.482 112.808 128.907 C 114.608 131.569 114.308 134.044 111.946 136.556 C 110.709 137.868 110.559 137.943 108.271 137.943 C 106.959 137.943 105.534 137.718 105.159 137.493 Z " fill="rgb(0,0,0)"/><path d=" M 70.025 134.194 C 66.538 133.144 64.438 130.257 64.438 126.469 C 64.438 123.732 65.45 121.82 67.738 120.058 C 69.237 118.933 69.575 118.82 72.05 118.82 C 74.974 118.858 75.649 119.12 77.712 120.957 C 79.361 122.495 79.961 124.595 79.699 127.707 C 79.436 130.407 78.837 131.456 76.849 132.844 C 74.562 134.419 72.275 134.906 70.025 134.194 Z " fill="rgb(0,0,0)"/><path d=" M 89.748 134.119 C 86.823 133.069 85.098 130.594 85.061 127.369 C 85.061 125.457 85.211 125.082 86.561 123.395 C 87.911 121.632 88.173 121.482 90.123 121.257 C 93.31 120.845 95.26 121.257 96.572 122.682 C 98.222 124.407 98.56 125.27 98.56 127.632 C 98.56 130.107 97.96 131.381 96.122 132.806 C 93.985 134.494 91.96 134.906 89.748 134.119 Z " fill="rgb(0,0,0)"/><path d=" M 148.767 123.17 C 145.393 121.97 142.993 119.72 141.418 116.383 C 139.206 111.583 140.593 105.359 144.568 102.059 C 147.568 99.547 148.28 99.322 152.855 99.322 L 156.942 99.322 L 159.154 100.747 C 163.204 103.372 164.928 106.521 164.928 111.246 C 164.928 114.096 164.066 117.283 162.979 118.483 C 162.566 118.97 161.966 119.72 161.704 120.17 C 161.404 120.582 159.941 121.557 158.442 122.307 C 155.967 123.545 155.367 123.695 152.892 123.695 C 151.355 123.657 149.517 123.432 148.767 123.17 Z " fill="rgb(0,0,0)"/></g></g></svg>