<?xml version="1.0" encoding="UTF-8" standalone="no"?><!-- Generator: Gravit.io --><svg xmlns="http://www.w3.org/2000/svg" xmlns:xlink="http://www.w3.org/1999/xlink" style="isolation:isolate" viewBox="0 0 600 400" width="600pt" height="400pt"><defs><clipPath id="_clipPath_VbltkJ530YykI4SlYcR6Qg7o3zGUe2A6"><rect width="600" height="400"/></clipPath></defs><g clip-path="url(#_clipPath_VbltkJ530YykI4SlYcR6Qg7o3zGUe2A6)"><g><g><path d=" M 242.553 232.286 L 222.921 208.915 L 222.921 232.286 L 212.529 232.286 L 212.529 161.907 L 222.921 161.907 L 222.921 205.365 L 241.006 183.157 L 254.416 183.157 L 233.994 206.559 L 255.972 232.286 L 242.553 232.286 Z  M 279.622 210.317 C 277.032 210.317 268.58 210.861 268.58 217.857 C 268.58 219.252 269.216 223.805 277.393 223.805 C 278.586 223.805 289.159 223.62 293.073 217.227 L 293.105 217.175 L 293.105 213.253 L 292.97 213.199 C 288.093 211.208 282.752 210.317 279.622 210.317 Z  M 276.969 233.347 C 265.45 233.347 258.294 227.411 258.294 217.857 C 258.294 207.877 265.991 202.154 279.41 202.154 C 283.864 202.154 288.404 203.218 292.903 205.318 L 293.211 205.461 L 293.211 202.892 C 293.211 195.991 288.21 191.532 280.471 191.532 C 275.164 191.532 269.564 194.205 266.445 198.206 L 260.479 191.836 C 266.562 183.366 276.07 182.096 281.214 182.096 C 295.652 182.096 303.603 189.481 303.603 202.892 L 303.603 232.286 L 293.211 232.286 L 293.211 226.465 L 292.824 226.956 C 288.446 232.517 281.011 233.347 276.969 233.347 Z  M 315.471 232.286 L 315.471 161.907 L 325.969 161.907 L 325.969 232.286 L 315.471 232.286 Z  M 360.763 191.213 C 352.781 191.213 346.948 196.078 345.902 203.606 L 345.868 203.852 L 375.126 203.852 L 375.093 203.606 C 374.046 195.962 368.555 191.213 360.763 191.213 Z  M 360.763 233.347 C 346.129 233.347 335.508 222.503 335.508 207.562 C 335.508 200.082 338.059 193.659 342.885 188.986 C 347.474 184.542 353.823 182.096 360.763 182.096 C 375.258 182.096 385.381 192.568 385.381 207.562 C 385.381 208.671 385.381 210.313 385.293 211.378 L 345.868 211.378 L 345.902 211.624 C 346.966 219.281 353.007 224.229 361.294 224.229 C 367.07 224.229 372.37 221.469 374.862 217.181 C 376.509 217.938 378.35 218.737 380.133 219.511 C 381.242 219.991 382.343 220.47 383.391 220.934 C 379.398 228.712 370.958 233.347 360.763 233.347 Z  M 394.444 232.286 L 394.444 183.157 L 404.836 183.157 L 404.836 232.286 L 394.444 232.286 Z  M 439.807 192.275 C 431.072 192.275 424.732 198.704 424.732 207.562 C 424.732 216.605 431.072 223.168 439.807 223.168 C 447.457 223.168 455.2 217.807 455.2 207.562 C 455.2 197.633 447.27 192.275 439.807 192.275 Z  M 438.427 233.347 C 424.453 233.347 413.915 222.354 413.915 207.774 C 413.915 192.895 424.224 182.095 438.427 182.095 C 445.827 182.095 452.18 185.185 455.008 190.157 L 455.412 190.87 L 455.412 161.907 L 465.805 161.907 L 465.805 232.286 L 455.412 232.286 L 455.412 224.48 L 455.009 225.177 C 452.13 230.14 445.622 233.347 438.427 233.347 Z  M 501.21 192.381 C 492.414 192.381 486.029 198.766 486.029 207.562 C 486.029 216.605 492.414 223.168 501.21 223.168 C 510.068 223.168 516.497 216.605 516.497 207.562 C 516.497 198.766 510.068 192.381 501.21 192.381 Z  M 501.21 233.347 C 494.31 233.347 487.918 230.844 483.212 226.297 C 478.327 221.578 475.637 214.924 475.637 207.562 C 475.637 192.806 486.392 182.096 501.21 182.096 C 516.151 182.096 526.996 192.806 526.996 207.562 C 526.996 214.923 524.282 221.577 519.355 226.297 C 514.609 230.843 508.165 233.347 501.21 233.347 Z  M 399.64 173.862 C 395.722 173.862 392.534 170.865 392.534 167.181 C 392.534 163.496 395.722 160.499 399.64 160.499 C 403.566 160.499 406.641 163.434 406.641 167.181 C 406.641 170.927 403.566 173.862 399.64 173.862 Z " fill-rule="evenodd" fill="rgb(32,44,224)"/><g><path d=" M 172.296 179.997 L 172.296 192.936 L 134.886 171.337 L 151.481 161.756 L 166.907 170.662 C 170.232 172.581 172.296 176.158 172.296 179.997 L 172.296 179.997 Z  M 81.448 207.064 L 118.857 228.663 L 102.263 238.244 L 86.837 229.337 C 83.513 227.418 81.448 223.842 81.448 220.003 L 81.448 207.064 Z  M 106.056 212.018 L 106.056 192.609 L 143.681 214.332 L 126.912 224.059 L 106.056 212.018 Z  M 126.872 175.964 L 147.688 187.982 L 147.688 207.391 L 110.063 185.668 L 126.872 175.964 Z  M 126.872 149.221 C 128.767 149.221 130.63 149.718 132.261 150.66 L 143.466 157.129 L 106.056 178.728 L 106.016 159.59 L 121.482 150.66 C 123.114 149.718 124.977 149.221 126.872 149.221 L 126.872 149.221 Z  M 86.837 170.663 L 98.042 164.194 L 98.042 207.391 L 81.448 197.856 L 81.448 179.997 C 81.448 176.158 83.513 172.581 86.837 170.663 L 86.837 170.663 Z  M 147.728 240.41 L 132.261 249.34 C 130.63 250.282 128.766 250.779 126.872 250.779 C 124.978 250.779 123.115 250.282 121.482 249.34 L 110.278 242.871 L 147.688 221.272 L 147.728 240.41 Z  M 166.907 229.337 L 155.702 235.806 L 155.702 192.608 L 172.296 202.144 L 172.296 220.003 C 172.296 223.842 170.232 227.418 166.907 229.337 L 166.907 229.337 Z  M 171.129 163.351 L 136.483 143.348 C 133.575 141.668 130.251 140.781 126.872 140.781 C 123.493 140.781 120.169 141.668 117.261 143.348 L 82.615 163.351 C 76.687 166.774 73.004 173.152 73.004 179.997 L 73.004 220.003 C 73.004 226.848 76.687 233.227 82.615 236.649 L 117.261 256.652 C 120.17 258.331 123.493 259.219 126.872 259.219 C 130.25 259.219 133.574 258.331 136.483 256.652 L 171.129 236.649 C 177.057 233.227 180.74 226.848 180.74 220.003 L 180.74 179.997 C 180.74 173.152 177.057 166.773 171.129 163.351 L 171.129 163.351 Z " fill-rule="evenodd" fill="rgb(32,44,224)"/></g></g></g></g></svg>