<?xml version="1.0" encoding="UTF-8" standalone="no"?><!-- Generator: Gravit.io --><svg xmlns="http://www.w3.org/2000/svg" xmlns:xlink="http://www.w3.org/1999/xlink" style="isolation:isolate" viewBox="0 0 400 233.266" width="400pt" height="233.266pt"><defs><clipPath id="_clipPath_QL4jmBzbGKPAz1SucJw4redG1l2ukMGb"><rect width="400" height="233.266"/></clipPath></defs><g clip-path="url(#_clipPath_QL4jmBzbGKPAz1SucJw4redG1l2ukMGb)"><path d=" M 147.737 13.211 C 146.909 13.392 146.174 13.625 146.103 13.729 C 146.032 13.833 145.478 14.155 144.871 14.445 C 144.264 14.735 143.372 15.329 142.887 15.766 C 142.403 16.202 141.928 16.561 141.832 16.564 C 141.736 16.567 141.657 16.663 141.657 16.778 C 141.657 16.893 141.35 17.316 140.974 17.718 C 137.714 21.207 137.325 28.171 140.144 32.577 C 142.859 36.822 148.671 39.5 152.859 38.436 C 153.18 38.354 153.905 38.175 154.471 38.037 C 155.79 37.717 157.76 36.872 157.76 36.626 C 157.76 36.523 157.996 36.363 158.285 36.271 C 159.036 36.033 161.364 33.505 162.002 32.233 C 162.3 31.64 162.612 31.103 162.696 31.039 C 162.941 30.85 163.556 28.461 163.717 27.071 C 163.977 24.83 163.322 21.3 162.364 19.778 C 162.142 19.425 161.787 18.848 161.576 18.495 C 161.145 17.775 160.708 17.263 159.878 16.503 C 159.568 16.219 159.123 15.804 158.891 15.582 C 158.659 15.36 157.916 14.905 157.239 14.57 C 156.563 14.235 155.747 13.823 155.426 13.654 C 153.892 12.846 150.344 12.641 147.737 13.211 Z  M 199.3 18.822 C 198.851 18.875 198.273 19.007 198.016 19.116 C 197.76 19.225 197.077 19.503 196.499 19.734 C 195.922 19.965 195.318 20.313 195.158 20.507 C 194.997 20.701 194.866 20.795 194.866 20.716 C 194.866 20.301 193.007 22.552 192.652 23.397 C 192.423 23.942 192.084 24.735 191.9 25.159 C 191.069 27.068 191.962 31.735 193.456 33.297 C 196.262 36.232 201.719 37.4 204.122 35.579 C 204.358 35.4 204.688 35.251 204.856 35.247 C 205.144 35.24 206.469 33.961 207.646 32.556 C 209.149 30.762 209.488 26.359 208.31 23.951 C 206.673 20.606 202.821 18.413 199.3 18.822 Z  M 180.163 23.546 C 176.2 24.434 173.268 28.931 174.116 32.819 C 174.281 33.573 174.396 34.268 174.372 34.364 C 174.348 34.46 174.421 34.539 174.534 34.539 C 174.647 34.539 174.859 34.829 175.006 35.183 C 176.613 39.063 182.925 40.511 186.536 37.828 C 190.073 35.201 190.906 29.557 188.189 26.628 C 187.882 26.297 187.627 25.92 187.623 25.79 C 187.614 25.552 186.272 24.644 184.907 23.952 C 184.042 23.514 181.339 23.282 180.163 23.546 Z  M 164.877 34.807 C 163.539 35.248 162.427 35.778 162.427 35.975 C 162.427 36.084 162.296 36.175 162.135 36.178 C 161.335 36.193 159.832 39.095 159.697 40.887 C 159.202 47.436 166.277 50.986 171.422 46.771 C 171.998 46.299 172.531 45.664 172.607 45.36 C 172.684 45.056 172.836 44.807 172.945 44.807 C 173.252 44.807 173.662 43.02 173.662 41.681 C 173.662 40.309 173.208 38.273 172.901 38.273 C 172.788 38.273 172.695 38.129 172.695 37.952 C 172.695 37.51 170.195 35.24 169.707 35.238 C 169.49 35.237 169.011 35.079 168.643 34.888 C 167.895 34.497 165.943 34.455 164.877 34.807 Z  M 132.62 37.48 C 131.949 37.662 130.868 38.125 130.217 38.509 C 129.567 38.893 128.982 39.207 128.919 39.207 C 128.685 39.207 126.513 41.542 126.107 42.23 C 125.876 42.621 125.605 42.94 125.504 42.94 C 125.403 42.94 125.321 43.133 125.321 43.368 C 125.321 43.604 125.244 43.873 125.15 43.967 C 122.943 46.174 124.325 53.605 127.585 57.06 C 130.347 59.987 137.938 61.369 140.265 59.369 C 140.462 59.2 141.096 58.852 141.674 58.597 C 145.561 56.877 148.646 48.997 146.853 45.368 C 146.733 45.124 146.285 44.205 145.858 43.326 C 143.588 38.649 137.771 36.08 132.62 37.48 Z  M 199.3 39.401 C 195.88 40.315 194.557 43.882 196.482 46.996 C 197.849 49.209 202.545 49.106 204.115 46.828 C 206.457 43.43 203.174 38.364 199.3 39.401 Z  M 210.406 41.232 C 209.448 41.391 207.129 43.754 206.925 44.778 C 206.121 48.806 208.641 51.805 212.591 51.522 C 214.451 51.389 216.48 50.165 216.521 49.151 C 216.526 49.037 216.646 48.872 216.789 48.783 C 217.477 48.358 217.353 44.625 216.619 43.65 C 215.744 42.487 214.634 41.555 213.92 41.384 C 213.127 41.194 211.149 41.109 210.406 41.232 Z  M 186.746 42.534 C 186.323 42.67 185.749 43.105 185.47 43.502 C 185.191 43.899 184.818 44.373 184.64 44.556 C 183.516 45.712 185.18 50.175 186.735 50.175 C 186.971 50.175 187.165 50.269 187.165 50.384 C 187.165 50.712 189.292 50.52 190.215 50.109 C 195.142 47.912 191.92 40.877 186.746 42.534 Z  M 220.77 47.514 C 220.578 47.586 220.263 47.706 220.07 47.781 C 219.877 47.856 219.65 47.927 219.565 47.938 C 218.426 48.086 216.637 50.909 216.445 52.859 C 215.838 59.028 225.587 61.256 227.704 55.432 C 229.328 50.962 224.942 45.953 220.77 47.514 Z  M 177.343 49.698 C 173.438 50.878 174.122 56.709 178.166 56.709 C 179.556 56.709 180.736 56.093 181.204 55.124 C 181.768 53.954 182.04 52.975 181.801 52.975 C 181.693 52.975 181.631 52.797 181.663 52.579 C 181.911 50.89 179.257 49.12 177.343 49.698 Z  M 154.565 51.023 C 151.44 51.769 149.463 55.72 150.552 59.043 C 150.962 60.291 152.586 62.293 153.209 62.317 C 153.337 62.322 153.862 62.525 154.376 62.768 C 157.03 64.023 161.577 61.909 162.088 59.181 C 162.175 58.72 162.319 58.343 162.409 58.343 C 162.673 58.343 162.534 55.485 162.235 54.769 C 162.084 54.408 161.96 54.027 161.96 53.923 C 161.96 53.535 159.59 51.452 158.864 51.203 C 157.492 50.73 156.044 50.67 154.565 51.023 Z  M 170.719 60.39 C 168.099 61.002 167.546 64.799 169.904 65.984 C 171.205 66.637 171.814 66.643 172.931 66.015 C 175.759 64.426 173.882 59.651 170.719 60.39 Z  M 129.288 65.037 C 128.114 65.152 126.429 65.605 126.021 65.915 C 125.828 66.061 125.363 66.334 124.987 66.521 C 121.625 68.194 118.987 74.892 120.527 77.845 C 120.723 78.222 120.885 78.658 120.885 78.815 C 120.887 79.234 121.883 81.214 122.092 81.214 C 122.19 81.214 122.519 81.58 122.823 82.027 C 123.77 83.42 126.111 84.814 127.983 85.099 C 128.508 85.179 129.061 85.341 129.211 85.459 C 129.476 85.667 131.378 85.595 132.089 85.35 C 132.281 85.283 133.058 85.064 133.816 84.862 C 141.768 82.745 143.155 70.235 135.855 66.478 C 135.516 66.304 135.187 66.098 135.123 66.021 C 134.67 65.474 131.056 64.865 129.288 65.037 Z  M 150.456 70.403 C 147.668 71.559 146.245 76.2 148.108 78.063 C 148.3 78.255 148.392 78.413 148.31 78.413 C 147.997 78.413 149.728 79.826 150.514 80.212 C 151.442 80.668 154.418 80.772 154.684 80.358 C 154.771 80.222 155.172 79.943 155.576 79.736 C 161.314 76.797 156.444 67.92 150.456 70.403 Z  M 167.75 73.235 C 166.135 74.214 166.275 76.542 168.006 77.468 C 168.866 77.928 170.559 77.582 170.878 76.88 C 171.02 76.568 171.225 76.313 171.333 76.313 C 171.44 76.313 171.529 75.848 171.529 75.28 C 171.529 73.392 169.396 72.238 167.75 73.235 Z  M 170.912 85.296 C 169.311 86.107 169.11 88.121 170.569 88.745 C 171.982 89.35 173.576 88.2 173.308 86.771 C 173.115 85.741 171.723 84.884 170.912 85.296 Z  M 155.019 89.365 C 151.698 90.202 150.888 94.848 153.66 97.167 C 155.866 99.013 159.995 98.1 160.483 95.658 C 160.558 95.287 160.71 94.982 160.822 94.982 C 161.039 94.982 160.989 93.156 160.761 92.765 C 160.686 92.637 160.56 92.27 160.482 91.949 C 160.026 90.09 157.286 88.793 155.019 89.365 Z  M 132.789 93.187 C 131.026 93.795 127.888 96.389 127.888 97.24 C 127.888 97.392 127.723 97.681 127.521 97.883 C 127.32 98.085 127.227 98.25 127.316 98.25 C 127.406 98.25 127.334 98.423 127.158 98.636 C 125.824 100.243 127.171 106.108 129.362 108.231 C 131.936 110.724 137.895 111.78 139.626 110.049 C 139.793 109.882 140.286 109.561 140.721 109.336 C 144.202 107.536 145.801 101.565 143.833 97.712 C 141.954 94.032 136.647 91.858 132.789 93.187 Z  M 165.445 105.442 C 161.34 107.224 163.064 113.268 167.473 112.552 C 168.596 112.37 170.033 110.842 170.228 109.623 C 170.652 106.968 167.759 104.438 165.445 105.442 Z  M 181.588 116.486 C 181.281 116.602 180.981 116.648 180.923 116.59 C 180.467 116.135 179.23 118.011 179.23 119.157 C 179.23 120.392 179.294 120.515 180.443 121.493 C 182.11 122.911 184.605 121.511 184.59 119.166 C 184.579 117.425 182.953 115.974 181.588 116.486 Z  M 148.075 117.56 C 144.863 118.72 143.248 121.341 143.379 125.182 C 143.526 129.479 146.417 132.271 150.924 132.465 C 152.067 132.515 152.815 132.429 153.257 132.198 C 153.616 132.011 154.032 131.858 154.183 131.857 C 154.333 131.856 154.78 131.583 155.175 131.251 C 155.57 130.919 155.893 130.709 155.893 130.785 C 155.893 130.861 156.248 130.529 156.683 130.047 C 160.185 126.168 159.03 120.258 154.261 117.649 C 153.285 117.115 149.459 117.06 148.075 117.56 Z  M 171.937 133.65 C 171.712 133.708 171.529 133.833 171.529 133.926 C 171.529 134.019 171.171 134.225 170.734 134.383 C 169.679 134.764 168.386 136.275 168.002 137.574 C 167.832 138.151 167.611 138.623 167.51 138.623 C 167.126 138.623 167.353 140.679 167.909 142.241 C 168.559 144.066 170.042 145.699 171.298 145.975 C 171.682 146.059 171.995 146.207 171.995 146.304 C 171.995 146.507 172.109 146.523 173.936 146.578 C 174.692 146.601 175.411 146.502 175.558 146.355 C 175.704 146.21 176.005 146.091 176.228 146.091 C 176.737 146.091 178.631 144.93 178.907 144.448 C 182.431 138.312 178.342 131.976 171.937 133.65 Z  M 225.214 136.476 C 223.926 137.109 222.985 138.651 222.999 140.102 C 223.036 144.036 228.167 145.455 230.344 142.134 C 232.503 138.841 228.772 134.725 225.214 136.476 Z  M 198.46 140.333 C 198.062 140.483 197.556 140.791 197.335 141.015 C 197.114 141.24 196.837 141.424 196.719 141.424 C 195.728 141.424 194.73 145.775 195.436 147.025 C 195.617 147.345 195.941 147.945 196.155 148.358 C 196.369 148.77 196.748 149.172 196.997 149.251 C 197.245 149.33 197.641 149.601 197.877 149.854 C 199 151.06 202.25 150.626 204.014 149.036 C 208.173 145.285 203.737 138.334 198.46 140.333 Z " fill-rule="evenodd" fill="rgb(4,164,204)"/><path d=" M 197.493 0.481 C 196.948 0.737 196.319 1.232 196.095 1.581 C 195.872 1.931 195.56 2.352 195.403 2.516 C 194.424 3.542 194.736 6.828 195.951 8.282 C 199.449 12.471 205.786 9.801 205.296 4.345 C 204.982 0.849 200.958 -1.143 197.493 0.481 Z  M 225.088 3.892 C 222.476 4.472 220.708 6.319 220.384 8.806 C 220.304 9.418 220.143 10.04 220.026 10.189 C 219.896 10.356 219.908 10.518 220.059 10.611 C 220.193 10.695 220.305 11.098 220.306 11.507 C 220.317 14.173 223.428 16.803 226.57 16.803 C 227.96 16.803 230.086 16.19 230.259 15.74 C 230.33 15.554 230.527 15.403 230.696 15.403 C 230.866 15.403 231.221 15.114 231.486 14.761 C 231.75 14.408 232.09 13.974 232.241 13.796 C 233.376 12.46 233.356 7.423 232.214 7.043 C 232.081 6.999 231.972 6.823 231.972 6.653 C 231.972 5.059 227.646 3.324 225.088 3.892 Z  M 171.995 6.47 C 171.803 6.543 171.561 6.745 171.459 6.919 C 171.356 7.092 171.132 7.235 170.96 7.235 C 169.943 7.235 169.273 10.662 169.993 12.179 C 172.036 16.486 178.437 13.925 177.384 9.223 C 177.16 8.221 176.937 7.831 176.355 7.422 C 175.947 7.135 175.474 6.765 175.304 6.6 C 174.995 6.3 172.685 6.209 171.995 6.47 Z  M 247.684 17.966 C 246.463 18.225 245.25 18.841 244.853 19.405 C 244.685 19.642 244.422 19.839 244.269 19.841 C 243.883 19.847 242.424 22.09 242.072 23.221 C 240.906 26.959 243.135 31.744 246.485 32.698 C 247.038 32.855 247.591 33.071 247.713 33.178 C 248.032 33.457 251.342 33.421 251.342 33.139 C 251.342 33.011 251.539 32.905 251.78 32.905 C 253.111 32.905 256.041 30.707 256.35 29.476 C 256.424 29.18 256.578 28.938 256.691 28.938 C 257.078 28.938 257.468 26.561 257.359 24.863 C 257.061 20.215 252.479 16.949 247.684 17.966 Z  M 217.375 28.566 C 215.671 29.308 215.256 31.723 216.597 33.095 C 218.343 34.88 221.237 33.72 221.237 31.236 C 221.237 28.846 219.496 27.642 217.375 28.566 Z  M 232.494 37.815 C 230.65 38.556 229.489 41.708 230.58 43.014 C 230.706 43.166 231.015 43.565 231.266 43.9 C 232.801 45.953 237.34 44.734 237.34 42.268 C 237.34 42.047 237.466 41.741 237.62 41.587 C 237.837 41.369 237.837 41.245 237.62 41.027 C 237.466 40.873 237.34 40.509 237.34 40.218 C 237.34 38.595 234.301 37.089 232.494 37.815 Z  M 262.485 39.588 C 262.261 39.654 262.077 39.805 262.077 39.924 C 262.077 40.043 261.915 40.14 261.718 40.14 C 260.335 40.14 257.843 42.324 256.677 44.559 C 254.231 49.244 257.115 55.991 262.016 57.049 C 262.432 57.139 262.832 57.309 262.905 57.428 C 263.087 57.723 266.744 57.706 266.744 57.41 C 266.744 57.281 266.961 57.176 267.226 57.176 C 267.853 57.176 270.245 56.082 270.245 55.795 C 270.245 55.673 270.459 55.506 270.721 55.423 C 270.982 55.34 271.481 54.834 271.829 54.299 C 272.177 53.764 272.59 53.189 272.748 53.023 C 273.672 52.046 274.059 47.607 273.407 45.457 C 272.193 41.456 266.522 38.409 262.485 39.588 Z  M 241.506 52.947 C 237.832 55.277 239.847 61.176 244.317 61.177 C 245.009 61.177 245.639 61.078 245.717 60.958 C 245.794 60.838 246.092 60.666 246.379 60.577 C 248.193 60.011 249.53 55.316 248.136 54.406 C 248.012 54.325 247.782 54.014 247.624 53.714 C 246.838 52.222 243.34 51.784 241.506 52.947 Z  M 227.771 61.844 C 226.591 63.024 227.457 65.111 229.128 65.111 C 231.113 65.111 231.891 62.546 230.179 61.645 C 229.394 61.232 228.292 61.323 227.771 61.844 Z  M 266.947 65.203 C 263.99 66.057 260.443 69.554 260.443 71.617 C 260.443 71.868 260.312 72.117 260.152 72.17 C 259.766 72.299 259.748 77.176 260.131 77.969 C 260.28 78.277 260.595 79.04 260.831 79.663 C 263.463 86.615 275.526 87.125 278.92 80.428 C 279.189 79.898 279.483 79.411 279.573 79.347 C 280.224 78.885 280.554 73.996 280.059 72.159 C 279.493 70.056 277.269 67.101 275.793 66.489 C 275.437 66.342 275.146 66.139 275.146 66.038 C 275.146 65.215 269.053 64.595 266.947 65.203 Z  M 245.973 69.982 C 244.52 70.459 243.845 70.992 243.341 72.064 C 243.057 72.668 242.732 73.229 242.62 73.311 C 242.126 73.67 242.4 76.438 243.028 77.433 C 243.365 77.967 243.641 78.495 243.641 78.607 C 243.641 78.719 244.192 79.162 244.866 79.593 C 248.064 81.637 252.975 79.604 252.975 76.236 C 252.975 75.945 253.104 75.577 253.261 75.42 C 253.487 75.194 253.487 75.038 253.261 74.676 C 253.104 74.425 252.975 74.028 252.975 73.795 C 252.975 71.164 248.988 68.994 245.973 69.982 Z  M 229.812 73.178 C 228.214 75.008 229.189 77.488 231.499 77.472 C 233.105 77.461 233.839 76.669 233.839 74.946 C 233.839 72.818 231.155 71.64 229.812 73.178 Z  M 228.588 83.947 C 225.024 84.66 225.391 89.817 229.008 89.841 C 231.032 89.854 232.045 88.856 232.028 86.864 C 232.011 84.787 230.556 83.553 228.588 83.947 Z  M 242.24 87.42 C 235.405 89.95 237.202 100.026 244.413 99.601 C 246.407 99.483 248.451 98.42 249.14 97.141 C 249.365 96.724 249.623 96.383 249.715 96.383 C 250.086 96.383 250.466 94.209 250.35 92.754 C 250.052 89.042 245.66 86.154 242.24 87.42 Z  M 262.676 90.107 C 261.915 90.218 261.232 90.394 261.159 90.499 C 261.086 90.604 260.554 90.866 259.976 91.083 C 257.672 91.946 254.707 95.131 253.958 97.546 C 253.027 100.548 253.689 107.182 254.968 107.672 C 255.156 107.744 255.309 107.927 255.309 108.078 C 255.309 108.545 256.896 110.318 257.818 110.882 C 258.299 111.177 258.823 111.544 258.982 111.698 C 259.348 112.054 261.185 112.668 262.809 112.976 C 265.254 113.441 265.523 113.462 265.68 113.208 C 265.767 113.067 266.191 112.952 266.621 112.952 C 269.809 112.952 274.189 109.71 275.368 106.477 C 275.637 105.739 275.987 104.882 276.144 104.573 C 276.594 103.689 276.497 99.236 276.009 98.366 C 275.792 97.981 275.615 97.532 275.614 97.367 C 275.606 95.734 272.112 91.951 269.833 91.11 C 269.225 90.885 268.615 90.617 268.477 90.513 C 268.204 90.309 265.288 89.843 264.527 89.881 C 264.271 89.894 263.438 89.996 262.676 90.107 Z  M 176.138 91.622 C 175.528 91.809 175.029 92.067 175.029 92.194 C 175.029 92.321 174.777 92.541 174.468 92.681 C 174.159 92.822 173.715 93.292 173.481 93.726 C 173.247 94.161 172.982 94.516 172.892 94.516 C 172.498 94.516 172.194 97.102 172.449 98.29 C 173.472 103.06 180.553 104.763 182.893 100.802 C 183.116 100.425 183.375 100.117 183.47 100.117 C 183.764 100.117 184.128 98.429 184.129 97.059 C 184.131 95.732 183.768 94.282 183.435 94.282 C 183.334 94.282 183.202 94.092 183.141 93.858 C 182.652 91.99 178.869 90.782 176.138 91.622 Z  M 221.587 93.542 C 221.202 93.587 220.699 93.824 220.469 94.069 C 220.24 94.315 219.954 94.516 219.834 94.516 C 219.508 94.516 218.937 95.74 218.767 96.805 C 218.576 97.994 219.322 99.597 220.336 100.179 C 221.6 100.904 224.971 100.495 224.971 99.616 C 224.971 99.525 225.155 99.266 225.379 99.042 C 225.685 98.735 225.788 98.249 225.788 97.1 C 225.788 94.684 224.097 93.253 221.587 93.542 Z  M 187.058 98.746 C 186.55 98.865 186.077 99.044 186.007 99.143 C 185.938 99.241 185.527 99.569 185.095 99.871 C 182.756 101.506 182.833 106.46 185.222 108.116 C 189.166 110.849 194.04 108.198 193.653 103.531 C 193.366 100.075 190.441 97.954 187.058 98.746 Z  M 209.873 100.34 C 207.16 101.994 207.447 106.593 210.324 107.586 C 210.932 107.796 211.501 108.039 211.588 108.126 C 211.832 108.371 212.602 108.314 212.602 108.051 C 212.602 107.923 212.816 107.818 213.078 107.818 C 216.356 107.818 217.387 102.368 214.48 100.409 C 213.432 99.703 210.978 99.666 209.873 100.34 Z  M 198.802 101.681 C 196.347 102.059 194.94 105.896 196.258 108.618 C 197.619 111.43 201.904 111.754 203.938 109.2 C 205.695 106.993 205.46 104.766 203.224 102.426 C 202.518 101.687 200.726 101.385 198.802 101.681 Z  M 232.539 101.767 C 230.22 102.072 227.305 104.566 227.305 106.244 C 227.305 106.446 227.18 106.654 227.028 106.704 C 226.845 106.766 226.752 107.453 226.752 108.751 C 226.752 110.05 226.845 110.737 227.028 110.799 C 227.18 110.849 227.305 111.057 227.305 111.259 C 227.305 112.472 229.618 114.758 231.614 115.516 C 232.844 115.984 237.106 115.66 237.106 115.099 C 237.106 115.008 237.401 114.802 237.762 114.643 C 241.142 113.147 241.953 106.973 239.166 103.95 C 237.511 102.155 235.25 101.41 232.539 101.767 Z  M 217.095 111.007 C 216.677 111.066 216.336 111.2 216.336 111.304 C 216.336 111.408 216.044 111.552 215.686 111.624 C 214.425 111.876 212.768 113.235 211.789 114.819 L 210.852 116.336 L 210.852 118.97 C 210.852 120.51 210.951 121.673 211.092 121.77 C 211.224 121.862 211.522 122.368 211.754 122.895 C 213.563 127.002 220.111 128.18 223.827 125.068 C 224.456 124.541 224.971 123.968 224.971 123.794 C 224.971 123.62 225.113 123.393 225.287 123.29 C 226.618 122.504 226.929 116.559 225.704 115.312 C 225.493 115.097 225.163 114.618 224.971 114.248 C 224.603 113.539 222.554 111.786 222.091 111.784 C 221.942 111.783 221.513 111.622 221.136 111.426 C 220.406 111.045 218.34 110.831 217.095 111.007 Z  M 246.553 112.128 C 242.411 113.03 237.592 117.376 237.575 120.226 C 237.574 120.44 237.459 120.653 237.32 120.699 C 236.661 120.918 236.626 127.853 237.28 128.34 C 237.377 128.412 237.652 129.049 237.892 129.755 C 238.573 131.763 241.312 135.03 242.677 135.463 C 242.95 135.55 243.174 135.711 243.174 135.822 C 243.174 136.183 245.655 136.961 247.662 137.228 C 250.718 137.634 255 136.865 256.165 135.701 C 256.354 135.511 256.611 135.356 256.734 135.356 C 257.084 135.356 259.977 132.507 259.977 132.163 C 259.977 131.994 260.087 131.855 260.223 131.855 C 260.487 131.855 261.431 129.858 261.711 128.707 C 261.804 128.323 262.004 127.933 262.154 127.84 C 262.526 127.611 262.536 121.639 262.165 121.403 C 262.02 121.312 261.825 120.881 261.731 120.447 C 261.497 119.371 260.91 118.106 260.21 117.17 C 259.51 116.234 257.151 113.886 256.911 113.886 C 256.817 113.886 256.233 113.57 255.613 113.185 C 253.565 111.911 249.647 111.455 246.553 112.128 Z  M 197.255 114.245 C 196.708 114.417 196.097 114.721 195.897 114.922 C 195.696 115.122 195.432 115.286 195.309 115.286 C 194.957 115.286 192.801 117.604 192.63 118.165 C 192.546 118.443 192.347 118.827 192.187 119.02 C 191.132 120.296 191.157 125.377 192.224 126.446 C 192.394 126.616 192.532 126.921 192.532 127.123 C 192.532 127.579 195.204 130.222 195.665 130.222 C 195.849 130.222 196.141 130.363 196.314 130.537 C 197.388 131.61 203.967 131.743 203.967 130.69 C 203.967 130.589 204.229 130.44 204.55 130.359 C 205.24 130.186 207.701 127.796 207.701 127.299 C 207.701 127.11 207.803 126.954 207.928 126.954 C 208.703 126.954 209.217 122.034 208.655 120.002 C 208.125 118.087 205.566 115.053 204.48 115.053 C 204.326 115.053 204.201 114.952 204.201 114.828 C 204.201 114.039 199.235 113.622 197.255 114.245 Z  M 107.351 179.622 C 106.902 179.668 106.298 179.758 106.009 179.822 L 105.484 179.939 L 105.484 206.556 L 105.484 233.172 L 106.826 233.027 C 107.564 232.947 108.562 232.825 109.043 232.756 L 109.918 232.631 L 109.918 220.297 C 109.918 213.513 110.009 207.906 110.119 207.838 C 110.23 207.77 110.382 207.258 110.459 206.701 C 110.632 205.439 111.379 203.665 112.029 202.974 C 112.3 202.686 112.685 202.176 112.885 201.84 C 113.085 201.505 113.55 201.052 113.917 200.835 C 114.285 200.618 114.586 200.344 114.586 200.227 C 114.586 199.408 118.696 198.023 121.12 198.025 C 124.524 198.028 128.821 200.381 128.821 202.242 C 128.821 202.421 128.922 202.567 129.045 202.567 C 130.194 202.567 130.688 208.347 130.688 221.755 L 130.688 233.192 L 131.68 233.058 C 132.226 232.984 133.282 232.855 134.027 232.77 L 135.383 232.615 L 135.3 218.816 C 135.218 205.209 135.059 202.334 134.39 202.334 C 134.28 202.334 134.189 202.189 134.189 202.013 C 134.189 199.186 129.232 194.817 125.3 194.179 C 119.101 193.173 111.629 196.147 110.087 200.233 C 110.015 200.426 109.947 195.831 109.937 190.023 L 109.918 179.463 L 109.043 179.501 C 108.562 179.521 107.8 179.576 107.351 179.622 Z  M 0.72 181.739 C 0.28 183.397 0.011 184.716 0.006 185.239 L 0 185.764 L 7.001 185.764 L 14.002 185.764 L 14.002 209.484 L 14.002 233.203 L 15.788 233.041 C 16.771 232.952 17.873 232.82 18.239 232.747 L 18.903 232.614 L 18.903 209.189 L 18.903 185.764 L 25.554 185.764 L 32.205 185.764 L 32.205 183.314 L 32.205 180.863 L 16.578 180.863 L 0.951 180.863 L 0.72 181.739 Z  M 294.037 183.871 C 293.581 184.116 292.812 184.584 292.327 184.913 C 291.843 185.242 291.245 185.575 290.998 185.653 C 290.574 185.788 290.548 186.062 290.548 190.447 L 290.548 195.099 L 288.34 195.099 L 286.132 195.099 L 285.765 196.324 C 285.562 196.998 285.334 197.996 285.257 198.541 L 285.117 199.533 L 287.82 199.533 L 290.522 199.533 L 290.605 211.96 C 290.684 223.949 290.846 226.809 291.475 227.305 C 291.556 227.369 291.816 227.946 292.052 228.588 C 293.224 231.771 296.927 233.414 302.1 233.047 C 305.457 232.809 305.251 232.978 305.251 230.466 L 305.251 228.314 L 301.86 228.334 C 299.724 228.347 298.406 228.264 298.301 228.109 C 298.208 227.974 297.762 227.638 297.308 227.363 C 296.356 226.785 295.737 225.359 295.518 223.239 C 295.444 222.516 295.293 221.868 295.183 221.8 C 295.073 221.732 294.982 216.694 294.982 210.605 L 294.982 199.533 L 299.883 199.533 L 304.784 199.533 L 304.784 197.316 L 304.784 195.099 L 299.887 195.099 L 294.991 195.099 L 294.928 189.263 L 294.866 183.427 L 294.037 183.871 Z  M 360.91 193.862 C 357.498 194.314 353.454 196.891 351.641 199.767 C 350.545 201.505 350.525 201.468 350.525 197.772 L 350.525 194.344 L 348.499 194.513 C 347.385 194.605 346.282 194.801 346.049 194.946 C 345.644 195.199 345.624 196.096 345.624 214.202 L 345.624 233.193 L 346.966 233.037 C 347.704 232.952 348.799 232.822 349.398 232.749 L 350.488 232.617 L 350.565 222.201 C 350.62 214.723 350.72 211.654 350.918 211.319 C 351.07 211.062 351.313 210.188 351.458 209.377 C 351.768 207.644 352.553 205.093 352.832 204.911 C 352.939 204.841 353.208 204.431 353.429 203.999 C 354.413 202.08 357.092 199.838 359.16 199.203 C 359.866 198.986 360.626 198.709 360.849 198.587 C 361.072 198.466 361.56 198.366 361.934 198.366 C 362.457 198.366 362.72 198.187 363.072 197.591 C 363.547 196.785 364.527 194.316 364.527 193.924 C 364.527 193.707 362.356 193.67 360.91 193.862 Z  M 155.426 194.239 C 152.767 194.858 150.716 196.08 148.373 198.441 L 147.025 199.8 L 147.025 197.075 L 147.025 194.35 L 144.879 194.519 C 141.809 194.762 142.124 192.507 142.124 214.249 L 142.124 233.199 L 143.232 233.064 C 143.842 232.99 144.945 232.859 145.683 232.774 L 147.025 232.618 L 147.03 220.101 C 147.034 212.727 147.131 207.153 147.267 206.534 C 147.507 205.442 148.184 203.703 148.447 203.501 C 148.531 203.436 148.879 202.97 149.221 202.464 C 150.039 201.252 151.807 199.76 153.103 199.188 C 153.675 198.936 154.199 198.651 154.268 198.556 C 154.784 197.842 160.948 197.81 161.465 198.518 C 161.545 198.627 162.203 199.022 162.927 199.395 C 163.968 199.931 164.442 200.375 165.196 201.522 C 167.275 204.685 167.328 205.153 167.328 220.467 L 167.328 233.193 L 168.67 233.037 C 169.408 232.952 170.52 232.82 171.142 232.744 L 172.272 232.606 L 172.158 218.929 C 172.05 206.005 171.899 203 171.333 202.568 C 171.248 202.503 170.983 201.873 170.743 201.167 C 169.733 198.192 166.898 195.594 163.361 194.402 C 162.135 193.989 156.956 193.882 155.426 194.239 Z  M 266.161 194.072 C 263.806 194.413 262.406 194.688 262.198 194.85 C 262.067 194.952 261.645 195.108 261.26 195.197 C 259.185 195.676 258.81 195.832 258.808 196.217 C 258.808 196.436 258.667 196.884 258.496 197.212 C 257.792 198.562 257.126 201.167 257.485 201.167 C 257.725 201.167 259.88 200.367 259.977 200.242 C 260.12 200.058 263.247 199.16 264.527 198.936 C 265.041 198.846 265.602 198.66 265.774 198.523 C 267.306 197.304 274.544 198.844 275.324 200.556 C 275.477 200.892 275.706 201.167 275.832 201.167 C 276.345 201.167 276.779 203.601 276.779 206.48 L 276.779 209.374 L 275.882 208.663 C 269.689 203.758 258.495 205.584 255.452 211.996 C 255.233 212.458 254.962 212.835 254.851 212.835 C 254.55 212.835 253.705 215.536 253.423 217.398 C 252.585 222.942 254.874 228.431 259.166 231.168 C 259.548 231.412 259.923 231.7 260.001 231.808 C 261.405 233.774 272.549 233.748 273.974 231.775 C 274.041 231.682 274.641 231.262 275.306 230.841 C 275.972 230.42 276.568 229.95 276.63 229.798 C 276.692 229.646 276.751 230.402 276.761 231.479 L 276.779 233.436 L 278.045 233.288 C 278.741 233.206 279.849 233.015 280.507 232.863 L 281.705 232.586 L 281.634 217.379 C 281.584 206.482 281.489 202.079 281.299 201.844 C 281.153 201.664 280.958 201.162 280.865 200.727 C 280.398 198.547 278.75 196.374 276.928 195.538 C 276.269 195.235 275.677 194.919 275.613 194.836 C 275.182 194.277 268.483 193.735 266.161 194.072 Z  M 42.649 194.456 C 41.911 194.582 41.307 194.779 41.307 194.892 C 41.307 195.006 41.123 195.103 40.898 195.107 C 40.374 195.118 37.263 196.342 36.843 196.703 C 36.667 196.855 36.05 197.288 35.473 197.666 C 33.56 198.918 31.014 201.604 30.174 203.254 C 29.944 203.706 29.627 204.214 29.47 204.382 C 29.143 204.733 28.005 208.211 28.005 208.861 C 28.005 209.1 27.873 209.34 27.713 209.393 C 27.329 209.521 27.293 217.732 27.674 218.225 C 27.814 218.406 28.116 219.288 28.346 220.187 C 28.766 221.826 30.157 224.658 31.111 225.817 C 32.35 227.323 34.432 229.405 34.698 229.405 C 34.858 229.405 35.089 229.591 35.211 229.819 C 35.333 230.047 36.098 230.546 36.911 230.928 C 37.724 231.31 38.447 231.698 38.516 231.79 C 40.006 233.775 54.99 233.739 56.476 231.747 C 56.54 231.661 57.325 231.251 58.22 230.836 C 59.115 230.42 59.903 230.002 59.97 229.907 C 60.038 229.811 60.592 229.444 61.202 229.092 L 62.31 228.452 L 62.31 225.428 C 62.31 222.319 62.052 221.61 61.377 222.87 C 61.24 223.127 61.022 223.337 60.892 223.337 C 60.654 223.337 59.438 224.141 58.85 224.687 C 58.673 224.851 58.092 225.207 57.56 225.477 C 57.028 225.747 56.351 226.157 56.055 226.388 C 55.759 226.619 54.814 227.039 53.955 227.321 C 53.095 227.603 52.287 227.915 52.159 228.014 C 51.023 228.893 42.707 228.857 42.707 227.972 C 42.707 227.862 42.563 227.771 42.386 227.771 C 41.846 227.771 39.335 226.582 39.137 226.233 C 39.034 226.052 38.815 225.904 38.65 225.904 C 38.335 225.904 35.692 223.212 34.889 222.074 C 34.129 220.996 34.039 220.579 34.533 220.422 C 34.774 220.346 35.36 220.019 35.836 219.696 C 36.312 219.373 37.213 218.841 37.839 218.514 C 38.465 218.186 39.032 217.83 39.098 217.722 C 39.165 217.614 39.873 217.196 40.672 216.792 C 41.47 216.389 42.281 215.923 42.474 215.758 C 42.666 215.592 43.296 215.221 43.874 214.932 C 44.452 214.643 44.977 214.329 45.041 214.234 C 45.105 214.14 45.794 213.743 46.572 213.351 C 47.35 212.96 48.124 212.474 48.292 212.271 C 48.461 212.068 48.719 211.902 48.867 211.902 C 49.015 211.902 49.711 211.523 50.414 211.06 C 51.117 210.597 52.112 210.005 52.625 209.745 C 53.139 209.485 53.611 209.199 53.676 209.11 C 53.74 209.021 54.37 208.643 55.076 208.271 C 55.782 207.898 56.622 207.424 56.943 207.218 C 58.176 206.424 60.146 205.263 61.377 204.606 C 63.141 203.663 63.428 203.366 63.067 202.854 C 62.91 202.632 62.58 202.083 62.334 201.634 C 61.7 200.477 59.714 198.335 58.53 197.532 C 57.978 197.157 57.47 196.776 57.402 196.685 C 57.209 196.428 54.816 195.413 53.967 195.227 C 53.55 195.137 53.209 194.981 53.209 194.881 C 53.209 194.264 45.567 193.955 42.649 194.456 Z  M 81.33 194.434 C 80.688 194.553 79.832 194.804 79.428 194.991 C 79.024 195.179 78.59 195.333 78.465 195.333 C 78.168 195.333 75.531 196.499 75.379 196.698 C 75.315 196.782 74.958 197.008 74.585 197.2 C 72.919 198.06 69.41 201.684 68.542 203.442 C 68.272 203.988 67.972 204.434 67.875 204.434 C 67.668 204.434 66.511 207.99 66.511 208.627 C 66.511 208.867 66.38 209.106 66.219 209.16 C 65.836 209.287 65.804 217.626 66.183 218.459 C 66.323 218.767 66.733 219.939 67.093 221.062 C 67.453 222.185 67.816 223.104 67.9 223.104 C 67.983 223.104 68.291 223.603 68.584 224.212 C 69.173 225.438 69.299 225.593 71.486 227.771 C 73.6 229.876 74.143 230.302 75.613 231.007 C 76.319 231.345 76.931 231.699 76.973 231.793 C 77.095 232.068 79.774 232.828 81.725 233.143 C 85.506 233.752 94.311 232.825 94.977 231.748 C 95.055 231.622 95.534 231.372 96.042 231.192 C 98.36 230.37 100.5 228.738 99.824 228.308 C 99.662 228.205 99.223 227.701 98.847 227.188 C 98.471 226.674 97.919 226.003 97.621 225.695 L 97.078 225.136 L 96.113 225.571 C 95.582 225.81 95.032 226.114 94.89 226.247 C 94.519 226.594 92.462 227.538 92.076 227.538 C 91.896 227.538 91.608 227.678 91.437 227.85 C 90.259 229.028 81.303 229.191 80.529 228.049 C 80.456 227.941 79.892 227.651 79.275 227.404 C 75.82 226.02 71.737 221.062 70.966 217.316 C 70.443 214.773 70.869 208.697 71.607 208.176 C 71.704 208.108 72.071 207.458 72.421 206.732 C 72.771 206.007 73.344 205.08 73.693 204.674 C 74.699 203.504 76.773 201.413 76.96 201.381 C 77.053 201.365 77.812 200.952 78.646 200.464 C 81.874 198.575 87.27 198.263 91.832 199.701 C 92.474 199.903 93.051 200.138 93.116 200.223 C 93.18 200.308 93.941 200.715 94.807 201.129 C 95.674 201.543 96.383 201.983 96.383 202.107 C 96.383 202.232 96.54 202.334 96.733 202.334 C 96.925 202.334 97.083 202.232 97.083 202.108 C 97.083 201.984 97.424 201.516 97.841 201.068 C 98.258 200.619 98.908 199.87 99.286 199.402 L 99.971 198.552 L 99.402 198.114 C 99.089 197.874 98.466 197.501 98.016 197.287 C 97.567 197.073 97.147 196.823 97.083 196.731 C 96.912 196.489 94.922 195.643 94.015 195.428 C 93.584 195.326 93.153 195.223 93.057 195.2 C 92.961 195.177 92.666 195.144 92.402 195.128 C 92.137 195.112 91.977 195.009 92.045 194.899 C 92.423 194.287 84.078 193.925 81.33 194.434 Z  M 192.882 194.434 C 192.24 194.553 191.384 194.804 190.98 194.991 C 190.575 195.179 190.136 195.333 190.003 195.333 C 189.561 195.333 186.931 196.557 186.931 196.763 C 186.931 196.875 186.819 196.966 186.681 196.966 C 184.976 196.966 179.892 202.883 178.737 206.211 C 178.431 207.095 178.115 207.87 178.036 207.935 C 177.154 208.651 177.177 217.817 178.065 219.72 C 178.185 219.977 178.552 220.918 178.881 221.812 C 179.21 222.705 179.567 223.493 179.673 223.562 C 179.78 223.631 180.086 224.118 180.352 224.644 C 181.401 226.713 185.007 229.949 187.952 231.463 C 193.919 234.532 204.776 233.794 209.331 230.011 C 210.799 228.792 214 225.285 214.347 224.515 C 214.582 223.996 214.852 223.571 214.948 223.571 C 215.043 223.571 215.404 222.757 215.749 221.762 C 216.094 220.767 216.469 219.776 216.582 219.56 C 217.477 217.85 217.478 210.121 216.583 208.051 C 216.472 207.795 216.145 206.92 215.857 206.107 C 215.568 205.295 215.216 204.505 215.075 204.353 C 214.934 204.201 214.62 203.686 214.376 203.209 C 213.493 201.479 210.116 198.036 208.472 197.187 C 208.112 197.002 207.762 196.776 207.693 196.684 C 207.522 196.457 204.955 195.333 204.602 195.331 C 204.446 195.33 204.018 195.173 203.651 194.982 C 202.182 194.216 195.81 193.892 192.882 194.434 Z  M 219.778 194.47 C 219.297 194.604 218.903 194.801 218.903 194.907 C 218.903 195.013 218.667 195.101 218.378 195.103 C 217.168 195.111 217.016 196.679 218.119 197.782 C 218.277 197.94 218.736 198.924 219.138 199.968 C 219.541 201.013 219.968 201.867 220.087 201.867 C 220.206 201.867 220.303 201.975 220.303 202.107 C 220.303 202.35 221.062 204.025 223.102 208.285 C 223.717 209.568 224.692 211.616 225.269 212.835 C 225.846 214.055 226.803 216.069 227.395 217.312 C 227.987 218.555 228.471 219.684 228.471 219.821 C 228.471 219.958 228.565 220.07 228.68 220.07 C 228.795 220.07 229.17 220.779 229.514 221.645 C 229.858 222.512 230.282 223.441 230.455 223.71 C 230.628 223.979 231.052 224.872 231.397 225.694 C 231.742 226.515 232.095 227.24 232.18 227.305 C 232.266 227.369 232.638 228.183 233.008 229.113 C 233.377 230.044 233.749 230.805 233.833 230.805 C 233.917 230.805 234.226 231.383 234.518 232.089 C 234.811 232.795 235.119 233.371 235.203 233.369 C 235.587 233.36 235.951 232.933 236.305 232.081 C 236.516 231.572 237.137 230.21 237.686 229.055 C 240.185 223.788 240.607 222.866 240.607 222.659 C 240.607 222.537 240.747 222.297 240.919 222.125 C 241.091 221.953 241.521 221.087 241.876 220.201 C 242.231 219.315 242.668 218.443 242.847 218.263 C 243.027 218.083 243.174 217.837 243.174 217.715 C 243.174 217.5 244.024 215.631 246.085 211.319 C 246.637 210.163 247.284 208.72 247.523 208.111 C 247.762 207.501 248.027 207.003 248.112 207.002 C 248.197 207.002 248.561 206.24 248.922 205.309 C 249.282 204.379 249.654 203.561 249.75 203.492 C 249.845 203.424 250.096 202.951 250.307 202.442 C 250.518 201.933 251.204 200.437 251.833 199.117 C 252.461 197.797 252.975 196.616 252.975 196.492 C 252.975 196.368 253.068 196.266 253.182 196.266 C 253.754 196.266 253.607 195.325 253.012 195.183 C 252.671 195.101 252.287 194.959 252.159 194.867 C 251.856 194.65 249.859 194.163 249.313 194.173 C 249.02 194.179 248.63 194.731 248.033 195.982 C 247.56 196.973 246.687 198.794 246.091 200.03 C 245.495 201.266 244.979 202.421 244.943 202.597 C 244.84 203.105 244.507 203.84 244.322 203.967 C 244.082 204.133 242.94 206.76 242.94 207.147 C 242.94 207.323 242.848 207.468 242.735 207.468 C 242.623 207.468 242.395 207.809 242.228 208.226 C 241.915 209.014 240.782 211.471 237.519 218.436 C 236.947 219.656 236.346 220.995 236.181 221.412 C 236.017 221.829 235.798 222.17 235.695 222.17 C 235.591 222.17 235.47 222.354 235.424 222.579 C 235.373 222.829 235.124 222.466 234.781 221.645 C 234.472 220.907 234.148 220.303 234.061 220.303 C 233.973 220.303 233.612 219.511 233.259 218.542 C 232.906 217.573 232.492 216.654 232.34 216.5 C 232.188 216.346 231.77 215.484 231.412 214.586 C 231.054 213.687 230.681 212.9 230.585 212.835 C 230.488 212.771 230.119 211.989 229.764 211.097 C 229.41 210.205 228.869 208.997 228.562 208.413 C 228.256 207.829 227.494 206.249 226.869 204.901 C 225.762 202.513 225.472 201.892 223.242 197.127 C 222.653 195.868 222.17 194.75 222.17 194.643 C 222.17 194.151 221.176 194.078 219.778 194.47 Z  M 380.054 194.414 C 379.416 194.521 378.681 194.715 378.42 194.846 C 378.16 194.976 377.264 195.306 376.429 195.578 C 373.507 196.531 368.683 200.477 367.445 202.927 C 367.188 203.435 366.809 204.083 366.602 204.366 C 366.395 204.649 365.985 205.647 365.69 206.583 C 365.395 207.519 365.071 208.394 364.97 208.527 C 364.272 209.446 364.266 218.396 364.963 218.902 C 365.053 218.967 365.269 219.597 365.444 220.303 C 365.758 221.566 366.373 223.108 366.655 223.337 C 366.734 223.401 367.015 223.88 367.279 224.401 C 368.478 226.768 371.549 229.67 374.625 231.342 C 380.76 234.678 392.237 233.799 397.428 229.595 C 397.874 229.234 398.357 228.938 398.5 228.938 C 399.303 228.938 399.533 228.114 399.533 225.244 C 399.533 221.893 399.657 221.96 397.016 223.891 C 395.898 224.708 394.765 225.445 394.499 225.527 C 394.232 225.609 393.812 225.859 393.565 226.082 C 393.088 226.512 391.505 227.305 391.121 227.305 C 390.996 227.305 390.448 227.513 389.904 227.768 C 387.576 228.858 380.417 229.041 379.697 228.029 C 379.632 227.939 378.988 227.642 378.264 227.369 C 376.109 226.557 373.867 224.668 371.937 222.037 C 371.08 220.869 371.122 220.634 372.287 220.043 C 372.833 219.767 373.331 219.475 373.396 219.395 C 373.46 219.315 374.09 218.944 374.796 218.57 C 375.502 218.196 376.132 217.816 376.196 217.727 C 376.26 217.637 376.838 217.293 377.48 216.963 C 378.121 216.632 379.119 216.041 379.697 215.649 C 380.274 215.258 380.858 214.937 380.995 214.937 C 381.131 214.936 381.449 214.752 381.702 214.527 C 381.955 214.303 382.841 213.757 383.671 213.314 C 384.502 212.871 385.286 212.422 385.414 212.316 C 385.907 211.91 389.54 209.802 389.747 209.802 C 389.867 209.802 390.153 209.614 390.382 209.384 C 390.612 209.155 391.478 208.615 392.308 208.185 C 393.137 207.756 393.868 207.327 393.932 207.233 C 393.996 207.139 394.627 206.772 395.333 206.418 C 396.039 206.063 396.669 205.694 396.733 205.597 C 396.797 205.501 397.508 205.077 398.313 204.656 C 399.981 203.784 400.248 203.261 399.636 202.067 C 398.831 200.497 396.182 197.641 395.079 197.153 C 394.705 196.988 394.399 196.772 394.399 196.673 C 394.399 196.477 391.937 195.333 391.511 195.331 C 391.367 195.33 390.949 195.173 390.582 194.982 C 389.137 194.229 383.109 193.904 380.054 194.414 Z  M 310.112 194.57 C 309.512 194.618 308.904 194.799 308.76 194.972 C 308.396 195.411 308.522 223.355 308.89 223.827 C 309.031 224.007 309.283 224.679 309.452 225.321 C 310.296 228.543 313.061 231.588 316.173 232.724 C 319.313 233.871 327.764 233.24 329.256 231.748 C 329.466 231.537 329.953 231.17 330.338 230.932 C 331.281 230.348 333.022 228.66 333.022 228.328 C 333.022 228.182 333.176 227.934 333.365 227.778 C 333.662 227.531 333.716 227.859 333.773 230.258 L 333.839 233.022 L 334.889 232.968 C 335.467 232.939 336.491 232.852 337.165 232.776 L 338.39 232.639 L 338.39 213.491 L 338.39 194.344 L 336.365 194.513 C 333.454 194.755 333.722 193.385 333.722 208.021 C 333.722 216.25 333.64 220.794 333.489 220.887 C 333.361 220.966 333.256 221.195 333.256 221.396 C 333.256 222.083 332.017 224.524 331.235 225.377 C 330.806 225.846 330.455 226.295 330.455 226.375 C 330.455 226.742 327.078 228.777 325.971 229.077 C 321.15 230.384 316.869 228.849 314.846 225.088 C 313.362 222.328 313.353 222.233 313.248 207.643 L 313.152 194.399 L 312.177 194.441 C 311.641 194.464 310.711 194.522 310.112 194.57 Z  M 51.925 199.402 C 53.074 199.767 56.243 201.745 56.243 202.097 C 56.243 202.196 55.166 202.916 53.851 203.697 C 52.535 204.478 51.343 205.215 51.201 205.336 C 51.06 205.457 50.305 205.888 49.525 206.294 C 48.745 206.7 47.981 207.183 47.828 207.367 C 47.676 207.551 47.43 207.701 47.282 207.701 C 47.135 207.701 46.439 208.08 45.736 208.543 C 45.033 209.006 44.037 209.596 43.524 209.854 C 43.011 210.112 42.433 210.456 42.24 210.62 C 42.048 210.783 41.338 211.202 40.663 211.551 C 39.988 211.901 39.38 212.276 39.312 212.386 C 39.244 212.497 38.642 212.861 37.975 213.196 C 37.307 213.532 36.707 213.889 36.642 213.991 C 36.576 214.092 35.945 214.473 35.239 214.836 C 34.533 215.199 33.668 215.703 33.317 215.958 C 32.965 216.212 32.598 216.339 32.5 216.24 C 31.978 215.713 32.602 208.635 33.171 208.635 C 33.282 208.635 33.372 208.502 33.372 208.34 C 33.372 206.597 37.05 202.336 40.023 200.635 C 43.121 198.862 48.477 198.307 51.925 199.402 Z  M 201.542 199.26 C 203.516 199.778 205.971 201.206 207.701 202.84 C 208.407 203.507 209.06 204.035 209.151 204.013 C 209.243 203.991 209.258 204.128 209.186 204.318 C 209.112 204.51 209.211 204.724 209.409 204.8 C 209.604 204.875 210.06 205.532 210.422 206.26 C 210.784 206.989 211.14 207.637 211.213 207.701 C 212.359 208.712 212.725 215.833 211.77 218.536 C 211.057 220.554 209.796 222.561 207.982 224.569 C 207.316 225.307 204.795 227.048 203.897 227.391 C 203.294 227.622 202.8 227.888 202.8 227.984 C 202.8 228.61 197.184 229.121 194.651 228.725 C 192.138 228.333 188.856 226.631 186.624 224.564 C 186.013 223.998 184.305 221.699 183.979 221.004 C 183.768 220.555 183.513 220.133 183.414 220.067 C 182.069 219.18 181.956 209.296 183.275 207.868 C 183.425 207.705 183.808 207.05 184.128 206.412 C 187 200.666 194.759 197.479 201.542 199.26 Z  M 387.937 199.178 C 390.454 199.711 394.699 202.567 392.974 202.567 C 392.833 202.567 392.246 202.884 391.672 203.272 C 391.097 203.66 390.189 204.197 389.654 204.466 C 389.119 204.735 388.52 205.096 388.323 205.269 C 388.126 205.441 387.339 205.915 386.573 206.322 C 385.807 206.729 385.128 207.139 385.064 207.234 C 385 207.328 384.475 207.642 383.897 207.93 C 383.32 208.219 382.69 208.593 382.497 208.76 C 382.305 208.928 381.6 209.339 380.931 209.674 C 380.262 210.01 379.575 210.412 379.406 210.568 C 379.236 210.724 378.523 211.159 377.822 211.533 C 377.12 211.908 376.494 212.288 376.429 212.378 C 376.365 212.468 375.771 212.814 375.109 213.148 C 374.447 213.482 373.87 213.837 373.826 213.937 C 373.782 214.037 373.15 214.407 372.422 214.759 C 371.694 215.111 370.955 215.531 370.78 215.692 C 370.604 215.854 370.228 216.118 369.944 216.28 L 369.428 216.573 L 369.428 214.136 C 369.428 211.8 369.937 208.442 370.33 208.177 C 370.434 208.108 370.782 207.474 371.104 206.768 C 373.742 200.991 381.016 197.711 387.937 199.178 Z  M 270.907 210.643 C 270.992 210.765 271.502 211.059 272.039 211.296 C 273.05 211.741 274.91 213.447 275.498 214.469 C 277.344 217.677 277.28 221.83 275.335 224.987 C 274.685 226.043 274.053 226.731 273.309 227.194 C 272.715 227.565 272.176 227.927 272.112 227.999 C 271.43 228.768 266.94 229.219 264.952 228.718 C 262.696 228.15 259.635 225.597 259.037 223.784 C 258.871 223.282 258.659 222.87 258.565 222.87 C 257.983 222.87 257.911 217.876 258.475 216.687 C 258.682 216.25 258.773 215.756 258.677 215.589 C 258.58 215.422 258.589 215.365 258.695 215.462 C 258.802 215.558 259.133 215.228 259.431 214.728 C 260.501 212.933 262.998 211.095 265.292 210.414 C 265.97 210.213 270.741 210.407 270.907 210.643 Z " fill-rule="evenodd" fill="rgb(4,44,100)"/></g></svg>