<svg id="Layer_1" enable-background="new 0 0 512 512" height="512" viewBox="0 0 512 512" width="512" xmlns="http://www.w3.org/2000/svg"><path d="m504 328v18c0 5.52-4.48 10-10 10h-18c-5.52 0-10-4.48-10-10v-18c0-5.52 4.48-10 10-10h18c5.52 0 10 4.48 10 10z" fill="#7da7fa"/><path d="m504 83v18c0 5.52-4.48 10-10 10h-18c-5.52 0-10-4.48-10-10 0-6.295 0-11.705 0-18 0-5.52 4.48-10 10-10h18c5.52 0 10 4.48 10 10z" fill="#7da7fa"/><path d="m472 439v18c0 5.52-4.48 10-10 10h-18c-5.52 0-10-4.48-10-10 0-6.295 0-11.705 0-18 0-5.52 4.48-10 10-10h18c5.52 0 10 4.48 10 10z" fill="#7da7fa"/><path d="m383 18v18c0 5.52-4.48 10-10 10h-18c-5.52 0-10-4.48-10-10 0-6.295 0-11.705 0-18 0-5.52 4.48-10 10-10h18c5.52 0 10 4.48 10 10z" fill="#8ab2ff"/><path d="m172 494c0 5.52-4.48 10-10 10h-18c-5.52 0-10-4.48-10-10v-18c0-5.52 4.48-10 10-10h18c5.52 0 10 4.48 10 10z" fill="#7da7fa"/><path d="m93 18v18c0 5.52-4.48 10-10 10-6.295 0-11.705 0-18 0-5.52 0-10-4.48-10-10v-18c0-5.52 4.48-10 10-10h18c5.52 0 10 4.48 10 10z" fill="#8ab2ff"/><path d="m63 439v18c0 5.52-4.48 10-10 10h-18c-5.52 0-10-4.48-10-10v-18c0-5.52 4.48-10 10-10h18c5.52 0 10 4.48 10 10z" fill="#8ab2ff"/><path d="m46 145v18c0 5.52-4.48 10-10 10-6.295 0-11.705 0-18 0-5.52 0-10-4.48-10-10v-18c0-5.52 4.48-10 10-10h18c5.52 0 10 4.48 10 10z" fill="#8ab2ff"/><path d="m444.01 256c0 103.835-84.165 188-188 188s-188-84.165-188-188c0-103.933 84.286-188 188-188 103.668 0 188 84.02 188 188z" fill="#ffb446"/><circle cx="256.01" cy="256" fill="#fedf84" r="128.632"/><path d="m444.01 256c0 145.737-158.645 235.018-282.712 162.432 24.935-8.806 48.405-21.016 69.738-36.235 79.296 15.743 153.605-45.039 153.605-126.197 0-36.531-15.238-69.52-39.698-92.912.059-29.526-4.433-56.163-9.994-77.753 68.289 32.128 109.061 98.74 109.061 170.665z" fill="#fba930"/><path d="m384.641 256c0 81.166-74.319 141.938-153.606 126.198 69.483-49.549 113.677-128.77 113.908-219.109 24.461 23.391 39.698 56.38 39.698 92.911z" fill="#fed66b"/><path d="m232.193 129.585c-77.329 14.466-123.998 95.102-97.364 169.655-18.424 11.973-37.046 20.146-53.768 25.766-44.054-111.602 26.929-236.81 146.759-254.908 3.226 16.465 5.521 36.867 4.373 59.487z" fill="#ffc673"/><path d="m232.193 129.585c-3.658 71.467-40.913 133.069-97.364 169.655-26.685-74.696 20.164-155.214 97.364-169.655z" fill="#fee59b"/><g fill="#2c2c3d"><path d="m216.051 313.897h-12.539c-4.418 0-8 3.582-8 8s3.582 8 8 8h21.667v17.103c0 4.418 3.582 8 8 8s8-3.582 8-8v-17.103h29.641v17.103c0 4.418 3.582 8 8 8s8-3.582 8-8v-18.451c31.97-8.524 40.473-50.404 13.673-70.549 26.77-20.122 18.344-62.013-13.673-70.549v-18.451c0-4.418-3.582-8-8-8s-8 3.582-8 8v17.103h-29.64v-17.103c0-4.418-3.582-8-8-8s-8 3.582-8 8v17.103c-6.175 0-11.218 0-21.667 0-4.418 0-8 3.582-8 8s3.582 8 8 8h12.539c-.001 12.588-.001 98.529-.001 111.794zm84.436-23.948c0 13.206-10.743 23.949-23.949 23.949h-44.487v-47.898h44.487c13.206 0 23.949 10.743 23.949 23.949zm0-63.898c0 13.206-10.743 23.949-23.949 23.949h-44.487v-47.897h44.487c13.206 0 23.949 10.743 23.949 23.948z"/><path d="m476 119h18c9.925 0 18-8.075 18-18v-18c0-9.925-8.075-18-18-18h-18c-9.194 0-18 7.016-18 19h-34c-4.418 0-8 3.582-8 8v28.423h-18.504c-35.492-37.019-83.03-58.179-133.496-60.24v-25.183h73c0 12.047 8.873 19 18 19h18c9.925 0 18-8.075 18-18v-18c0-9.925-8.075-18-18-18h-18c-9.194 0-18 7.016-18 19h-81c-4.418 0-8 3.582-8 8v33.177c-40.742 1.644-78.322 15.772-109 38.67v-23.847c0-4.418-3.582-8-8-8h-49v-13c12.047 0 19-8.873 19-18v-18c0-9.925-8.075-18-18-18h-18c-9.925 0-18 8.075-18 18v18c0 9.194 7.016 18 19 18v21c0 4.418 3.582 8 8 8h49v29.172c-36.889 34.137-60.661 82.244-62.823 135.828h-25.177v-67c12.028 0 19-8.858 19-18v-18c0-9.925-8.075-18-18-18h-18c-9.925 0-18 8.075-18 18v18c0 9.194 7.016 18 19 18v75c0 4.418 3.582 8 8 8h33.177c1.748 43.299 17.605 83.021 43.094 114.688h-59.271c-4.418 0-8 3.582-8 8v34.312c-12.047 0-19 8.873-19 18v18c0 9.925 8.075 18 18 18h18c9.925 0 18-8.075 18-18v-18c0-9.194-7.016-18-19-18v-26.312h65.636c33.715 33.637 79.584 55.086 130.364 57.135v25.177h-68c0-12.047-8.873-19-18-19h-18c-9.925 0-18 8.075-18 18v18c0 9.925 8.075 18 18 18h18c9.194 0 18-7.016 18-19h76c4.418 0 8-3.582 8-8v-33.177c39.108-1.578 75.305-14.657 105.278-35.957v32.134c0 4.418 3.582 8 8 8h48.722c0 12.047 8.873 19 18 19h18c9.925 0 18-8.075 18-18v-18c0-9.925-8.075-18-18-18h-18c-9.194 0-18 7.016-18 19h-40.722v-36.813c46.956-41.293 73.144-103.772 65.38-170.187h26.342v77c-12.047 0-19 8.873-19 18v18c0 9.925 8.075 18 18 18h18c9.925 0 18-8.075 18-18v-18c0-9.925-8.075-18-18-18-1.454 0-1 9.452-1-85 0-4.418-3.582-8-8-8h-36.887c-1.62-8.018-3.737-15.931-6.359-23.701-1.413-4.187-5.955-6.435-10.138-5.022-4.187 1.413-6.435 5.951-5.022 10.138 39.322 116.538-47.806 237.585-170.594 237.585-99.252 0-180-80.748-180-180s80.748-180 180-180c63.516 0 119.926 32.599 152.435 84.227 2.354 3.739 7.293 4.863 11.032 2.507 3.739-2.354 4.861-7.293 2.507-11.032-3.315-5.265-6.883-10.362-10.678-15.278h12.704c4.418 0 8-3.582 8-8v-28.424h26c0 12.047 8.873 19 18 19zm-123-101c0-1.103.897-2 2-2h18c1.103 0 2 .897 2 2v18c0 1.103-.897 2-2 2h-18c-1.103 0-2-.897-2-2zm-290 18v-18c0-1.103.897-2 2-2h18c1.103 0 2 .897 2 2v18c0 1.103-.897 2-2 2h-18c-1.103 0-2-.897-2-2zm-47 127v-18c0-1.103.897-2 2-2h18c1.103 0 2 .897 2 2v18c0 1.103-.897 2-2 2h-18c-1.103 0-2-.897-2-2zm39 276v18c0 1.103-.897 2-2 2h-18c-1.103 0-2-.897-2-2v-18c0-1.103.897-2 2-2h18c1.103 0 2 .897 2 2zm109 55c0 1.103-.897 2-2 2h-18c-1.103 0-2-.897-2-2v-18c0-1.103.897-2 2-2h18c1.103 0 2 .897 2 2zm278-55c0-1.103.897-2 2-2h18c1.103 0 2 .897 2 2v18c0 1.103-.897 2-2 2h-18c-1.103 0-2-.897-2-2zm54-111v18c0 1.103-.897 2-2 2h-18c-1.103 0-2-.897-2-2v-18c0-1.103.897-2 2-2h18c1.103 0 2 .897 2 2zm-22-245c0-1.103.897-2 2-2h18c1.103 0 2 .897 2 2v18c0 1.103-.897 2-2 2h-18c-1.103 0-2-.897-2-2z"/><path d="m146.05 188.726c-3.903-2.07-8.746-.585-10.817 3.317-48.08 90.607 17.935 200.588 120.767 200.588 75.339 0 136.631-61.292 136.631-136.631 0-112.535-128.778-176.119-218.086-109.706-3.545 2.636-4.282 7.648-1.646 11.193s7.648 4.282 11.193 1.646c78.566-58.426 192.538-2.758 192.538 96.867 0 66.517-54.115 120.631-120.631 120.631-90.899 0-149.019-97.216-106.633-177.089 2.072-3.902.587-8.745-3.316-10.816z"/><path d="m165.7 176.013c7.963-8.926-3.992-19.545-11.984-10.602-2.927 3.31-2.618 8.365.691 11.293 3.311 2.928 8.366 2.616 11.293-.691z"/></g></svg>