<?xml version="1.0"?>
<svg xmlns="http://www.w3.org/2000/svg" viewBox="0 0 64 64" width="512" height="512"><g id="RGB"><path d="M26.11,39.01A18.662,18.662,0,0,0,26,41a17.942,17.942,0,0,0,6,13.41A18,18,0,1,1,14.11,23.99,18,18,0,0,0,26.11,39.01Z" style="fill:#006df0"/><path d="M38,41a17.942,17.942,0,0,1-6,13.41A17.942,17.942,0,0,1,26,41a18.662,18.662,0,0,1,.11-1.99,18.016,18.016,0,0,0,11.78,0A18.662,18.662,0,0,1,38,41Z" style="fill:#ea348b"/><path d="M62,41A17.995,17.995,0,0,1,32,54.41,17.942,17.942,0,0,0,38,41a18.662,18.662,0,0,0-.11-1.99,18,18,0,0,0,12-15.02A18,18,0,0,1,62,41Z" style="fill:#ed1c24"/><path d="M49.89,23.99a18,18,0,0,1-12,15.02A17.909,17.909,0,0,0,32,27.59a17.992,17.992,0,0,1,17.89-3.6Z" style="fill:#ffda44"/><path d="M32,27.59a17.909,17.909,0,0,0-5.89,11.42,18,18,0,0,1-12-15.02A17.992,17.992,0,0,1,32,27.59Z" style="fill:#00d7df"/><path d="M37.89,39.01a18.016,18.016,0,0,1-11.78,0A17.909,17.909,0,0,1,32,27.59,17.909,17.909,0,0,1,37.89,39.01Z" style="fill:#e0e0e2"/><path d="M50,22a18.662,18.662,0,0,1-.11,1.99A17.992,17.992,0,0,0,32,27.59a17.992,17.992,0,0,0-17.89-3.6A18.662,18.662,0,0,1,14,22a18,18,0,0,1,36,0Z" style="fill:#91cc04"/><path d="M50.933,23.328c.03-.44.067-.88.067-1.328a19,19,0,0,0-38,0c0,.448.037.888.067,1.328A18.988,18.988,0,1,0,32,55.715,18.988,18.988,0,1,0,50.933,23.328ZM15,22a17,17,0,0,1,34,0c0,.23-.025.453-.034.681A18.807,18.807,0,0,0,32,26.285a18.807,18.807,0,0,0-16.966-3.6C15.025,22.453,15,22.23,15,22ZM37,41a16.945,16.945,0,0,1-5,12.029A16.945,16.945,0,0,1,27,41c0-.23.025-.453.034-.681a18.447,18.447,0,0,0,9.932,0C36.975,40.547,37,40.77,37,41Zm-5-2a16.94,16.94,0,0,1-4.766-.692A16.968,16.968,0,0,1,32,28.971a16.968,16.968,0,0,1,4.766,9.337A16.94,16.94,0,0,1,32,39Zm-6.682-1.372A17.04,17.04,0,0,1,15.234,24.692,16.86,16.86,0,0,1,30.5,27.654,18.959,18.959,0,0,0,25.318,37.628ZM33.5,27.654a16.86,16.86,0,0,1,15.262-2.962A17.04,17.04,0,0,1,38.682,37.628,18.959,18.959,0,0,0,33.5,27.654ZM3,41A17.024,17.024,0,0,1,13.318,25.372a19.039,19.039,0,0,0,11.749,14.3c-.03.44-.067.88-.067,1.328a18.935,18.935,0,0,0,5.5,13.346A16.975,16.975,0,0,1,3,41ZM44,58a16.9,16.9,0,0,1-10.5-3.654A18.935,18.935,0,0,0,39,41c0-.448-.037-.888-.067-1.328a19.039,19.039,0,0,0,11.749-14.3A17,17,0,0,1,44,58Z"/></g></svg>
