<svg id="Filled_expand" height="512" viewBox="0 0 512 512" width="512" xmlns="http://www.w3.org/2000/svg" data-name="Filled expand"><g id="_11_copy_2" data-name="11 copy 2"><g><rect fill="#31cad0" height="304" rx="30" width="272" x="104" y="104"/><g fill="#fdbf44"><path d="m352 104h-224v-16l9.416-14.124a60 60 0 0 0 8.912-21.515l.776-3.88a30.453 30.453 0 0 1 29.862-24.481h126.068a30.453 30.453 0 0 1 29.866 24.481 80 80 0 0 0 11.883 28.687l7.217 10.832z"/><path d="m352 408h-224v16l9.416 14.124a60 60 0 0 1 8.912 21.515l.776 3.88a30.453 30.453 0 0 0 29.862 24.481h126.068a30.453 30.453 0 0 0 29.866-24.481 80 80 0 0 1 11.883-28.687l7.217-10.832z"/><path d="m376 224h12a20 20 0 0 1 20 20v24a20 20 0 0 1 -20 20h-12a0 0 0 0 1 0 0v-64a0 0 0 0 1 0 0z"/></g><path d="m388 216h-4v-82a38.063 38.063 0 0 0 -24-35.328v-10.672a8 8 0 0 0 -1.344-4.438l-7.221-10.832a71.639 71.639 0 0 1 -10.694-25.818 38.558 38.558 0 0 0 -37.707-30.912h-126.068a38.558 38.558 0 0 0 -37.707 30.914l-.776 3.878a51.73 51.73 0 0 1 -7.723 18.646l-9.416 14.124a8 8 0 0 0 -1.344 4.438v10.672a38.063 38.063 0 0 0 -24 35.328v42h16v-42a22.025 22.025 0 0 1 22-22h212a22.025 22.025 0 0 1 22 22v244a22.025 22.025 0 0 1 -22 22h-212a22.025 22.025 0 0 1 -22-22v-186h-16v186a38.063 38.063 0 0 0 24 35.328v10.672a8 8 0 0 0 1.344 4.438l9.416 14.124a51.733 51.733 0 0 1 7.723 18.645l.776 3.881a38.558 38.558 0 0 0 37.707 30.912h87.034v-16h-87.034a22.515 22.515 0 0 1 -22.018-18.049l-.775-3.881a67.666 67.666 0 0 0 -10.1-24.383l-8.073-12.109v-5.578h208v5.578l-5.878 8.817a87.553 87.553 0 0 0 -13.07 31.554 22.515 22.515 0 0 1 -22.018 18.051h-23.034v16h23.034a38.558 38.558 0 0 0 37.707-30.913 71.642 71.642 0 0 1 10.694-25.817l7.221-10.832a8 8 0 0 0 1.344-4.438v-10.672a38.063 38.063 0 0 0 24-35.328v-82h4a28.032 28.032 0 0 0 28-28v-24a28.032 28.032 0 0 0 -28-28zm-252-120v-5.578l8.072-12.108a67.676 67.676 0 0 0 10.1-24.385l.775-3.878a22.515 22.515 0 0 1 22.019-18.051h126.068a22.515 22.515 0 0 1 22.018 18.05 87.551 87.551 0 0 0 13.07 31.555l5.878 8.817v5.578zm264 172a12.013 12.013 0 0 1 -12 12h-4v-48h4a12.013 12.013 0 0 1 12 12z"/><rect fill="#effbfb" height="240" rx="10" width="208" x="136" y="136"/><path d="m296 248-56-40-56 40v8h16v56h80v-56h16z" fill="#fdbf44"/><path d="m334 384h-188a18.021 18.021 0 0 1 -18-18v-220a18.021 18.021 0 0 1 18-18h188a18.021 18.021 0 0 1 18 18v174h-16v-174a2 2 0 0 0 -2-2h-188a2 2 0 0 0 -2 2v220a2 2 0 0 0 2 2h188a2 2 0 0 0 2-2v-30h16v30a18.021 18.021 0 0 1 -18 18z"/><path d="m280 320h-80a8 8 0 0 1 -8-8v-48h16v40h64v-40h16v48a8 8 0 0 1 -8 8z"/><path d="m304 256h-16v-3.883l-48-34.286-48 34.286v3.883h-16v-8a8 8 0 0 1 3.351-6.51l56-40a8 8 0 0 1 9.3 0l56 40a8 8 0 0 1 3.349 6.51z"/><path d="m240 256a16 16 0 0 1 16 16v40a0 0 0 0 1 0 0h-32a0 0 0 0 1 0 0v-40a16 16 0 0 1 16-16z" fill="#effbfb"/><path d="m256 320h-32a8 8 0 0 1 -8-8v-40a24 24 0 0 1 48 0v40a8 8 0 0 1 -8 8zm-24-16h16v-32a8 8 0 0 0 -16 0z"/><path d="m304 160h16v24h-16z"/><path d="m280 168h16v16h-16z"/></g></g></svg>