<?xml version="1.0" encoding="iso-8859-1"?>
<!-- Generator: Adobe Illustrator 19.0.0, SVG Export Plug-In . SVG Version: 6.00 Build 0)  -->
<svg version="1.1" id="Layer_1" xmlns="http://www.w3.org/2000/svg" xmlns:xlink="http://www.w3.org/1999/xlink" x="0px" y="0px"
	 viewBox="0 0 512 512" style="enable-background:new 0 0 512 512;" xml:space="preserve">
<path style="fill:#FF1E1E;" d="M150.783,275.516c-9.011-10.118-21.949-15.922-35.499-15.922H73.125
	c-13.549,0-26.488,5.803-35.499,15.922c-9.011,10.117-13.283,23.64-11.72,37.098l9.434,81.229c0.759,6.541,6.3,11.474,12.885,11.474
	h91.957c6.585,0,12.125-4.933,12.885-11.474l9.434-81.229C164.065,299.156,159.794,285.633,150.783,275.516z"/>
<path style="fill:#FF7F55;" d="M94.205,259.594h-21.08c-13.549,0-26.488,5.803-35.499,15.922
	c-9.011,10.117-13.283,23.64-11.72,37.098l9.434,81.229c0.759,6.541,6.3,11.474,12.885,11.474h45.978V259.594H94.205z"/>
<path style="fill:#FF1E1E;" d="M94.205,174.709c-21.691,0-39.339,17.648-39.339,39.339s17.647,39.339,39.339,39.339
	s39.339-17.648,39.339-39.339S115.896,174.709,94.205,174.709z"/>
<path style="fill:#FF7F55;" d="M94.205,174.709c-21.691,0-39.339,17.648-39.339,39.339s17.647,39.339,39.339,39.339V174.709z"/>
<path style="fill:#3F54C0;" d="M299.874,252.255c-11.367-12.765-27.691-20.086-44.784-20.086h-53.186
	c-17.093,0-33.416,7.321-44.784,20.086c-11.369,12.764-16.757,29.824-14.785,46.802l11.903,102.477
	c0.958,8.252,7.947,14.477,16.255,14.477h116.009c8.307,0,15.296-6.224,16.255-14.477l11.903-102.477
	C316.631,282.079,311.243,265.02,299.874,252.255z"/>
<path style="fill:#5F7BF0;" d="M228.497,232.169h-26.594c-17.093,0-33.416,7.321-44.784,20.086
	c-11.369,12.764-16.757,29.824-14.785,46.802l11.903,102.477c0.958,8.252,7.947,14.477,16.255,14.477h58.005V232.169z"/>
<path style="fill:#3F54C0;" d="M228.497,125.08c-27.365,0-49.629,22.264-49.629,49.629s22.264,49.629,49.629,49.629
	c27.366,0,49.63-22.264,49.63-49.629S255.863,125.08,228.497,125.08z"/>
<path style="fill:#5F7BF0;" d="M228.497,125.08c-27.365,0-49.629,22.264-49.629,49.629s22.264,49.629,49.629,49.629V125.08z"/>
<path style="fill:#1E2E57;" d="M473.88,232.677c-13.366-15.009-32.559-23.618-52.657-23.618h-62.536
	c-20.098,0-39.291,8.609-52.657,23.618c-13.367,15.008-19.703,35.067-17.384,55.03l13.996,120.492
	c1.127,9.703,9.345,17.021,19.112,17.021h136.403c9.767,0,17.985-7.318,19.112-17.021l13.996-120.492
	C493.583,267.743,487.247,247.684,473.88,232.677z"/>
<path style="fill:#40467C;" d="M389.955,209.059h-31.268c-20.098,0-39.291,8.609-52.657,23.618
	c-13.367,15.008-19.703,35.067-17.384,55.03l13.996,120.492c1.127,9.703,9.345,17.021,19.112,17.021h68.202L389.955,209.059
	L389.955,209.059z"/>
<path style="fill:#1E2E57;" d="M389.955,83.145c-32.176,0-58.353,26.178-58.353,58.353s26.177,58.353,58.353,58.353
	c32.177,0,58.354-26.178,58.354-58.353S422.131,83.145,389.955,83.145z"/>
<path style="fill:#40467C;" d="M389.955,83.145c-32.176,0-58.353,26.178-58.353,58.353s26.177,58.353,58.353,58.353L389.955,83.145
	L389.955,83.145z"/>
<path style="fill:#3BC0DA;" d="M495.636,428.855H16.364C7.327,428.855,0,421.528,0,412.491c0-9.037,7.327-16.364,16.364-16.364
	h479.272c9.037,0,16.364,7.327,16.364,16.364C512,421.528,504.673,428.855,495.636,428.855z"/>
<path style="fill:#98DAE5;" d="M256.001,428.855H16.364C7.327,428.855,0,421.528,0,412.491c0-9.037,7.327-16.364,16.364-16.364
	h239.637V428.855z"/>
<g>
</g>
<g>
</g>
<g>
</g>
<g>
</g>
<g>
</g>
<g>
</g>
<g>
</g>
<g>
</g>
<g>
</g>
<g>
</g>
<g>
</g>
<g>
</g>
<g>
</g>
<g>
</g>
<g>
</g>
</svg>
