<?xml version="1.0" standalone="no"?>
<!DOCTYPE svg PUBLIC "-//W3C//DTD SVG 20010904//EN"
 "http://www.w3.org/TR/2001/REC-SVG-20010904/DTD/svg10.dtd">
<svg version="1.0" xmlns="http://www.w3.org/2000/svg"
 width="1000.000000pt" height="367.000000pt" viewBox="0 0 1000.000000 367.000000"
 preserveAspectRatio="xMidYMid meet">

<g transform="translate(0.000000,367.000000) scale(0.100000,-0.100000)"
fill="#000000" stroke="none">
<path d="M5392 3629 c-630 -85 -1051 -560 -1147 -1292 -18 -141 -21 -780 -4
-935 75 -695 464 -1179 1049 -1307 44 -9 146 -19 245 -22 144 -4 189 -2 290
15 417 72 731 306 923 688 78 155 137 356 169 569 22 152 26 821 5 975 -77
572 -323 970 -728 1177 -109 56 -217 93 -345 118 -101 20 -355 28 -457 14z
m370 -254 c276 -41 496 -183 655 -420 128 -191 200 -430 224 -743 16 -202 6
-732 -16 -872 -50 -323 -152 -554 -324 -734 -135 -141 -287 -223 -496 -268
-95 -20 -363 -17 -460 6 -329 76 -561 281 -708 626 -84 197 -116 396 -124 770
-11 503 26 781 138 1036 102 233 289 432 495 525 176 80 399 107 616 74z"/>
<path d="M8535 3631 c-344 -40 -625 -178 -798 -391 -117 -145 -167 -294 -167
-495 0 -464 293 -738 1025 -960 570 -172 759 -256 902 -401 108 -109 156 -242
155 -425 -2 -309 -228 -539 -612 -620 -151 -32 -418 -32 -576 -1 -131 26 -197
47 -294 96 -194 97 -315 227 -381 407 -23 63 -49 199 -49 257 0 10 -31 12
-142 10 l-143 -3 3 -70 c28 -574 550 -964 1294 -965 411 0 723 104 950 318
164 155 240 338 242 582 2 300 -107 514 -355 700 -177 132 -394 220 -909 370
-426 125 -663 266 -761 455 -46 88 -62 157 -61 260 0 161 53 286 167 400 142
141 319 213 583 236 264 24 512 -27 685 -140 208 -137 336 -359 337 -583 l0
-58 148 0 148 0 -8 93 c-16 206 -107 413 -252 574 -142 158 -402 293 -651 338
-103 19 -376 28 -480 16z"/>
<path d="M530 3030 l0 -330 -240 0 -240 0 0 -115 0 -115 238 -2 237 -3 5 -970
c5 -902 7 -975 24 -1035 77 -274 240 -390 547 -390 112 0 263 20 281 38 5 5 5
59 2 121 -7 108 -8 112 -28 106 -12 -3 -80 -9 -151 -12 -199 -9 -284 26 -341
139 -53 105 -54 109 -54 1096 l0 912 265 0 265 0 0 115 0 115 -265 0 -265 0 0
330 0 330 -140 0 -140 0 0 -330z"/>
<path d="M1796 2343 c73 -197 290 -776 482 -1288 l349 -930 118 0 118 0 97
260 c134 359 456 1222 676 1813 101 271 184 495 184 497 0 10 -279 5 -285 -5
-3 -5 -179 -492 -391 -1082 -212 -590 -389 -1079 -393 -1086 -4 -7 -171 438
-390 1045 -211 582 -390 1075 -398 1096 l-15 37 -143 0 -142 0 133 -357z"/>
</g>
</svg>
