<svg height="512" viewBox="0 0 64 64" width="512" xmlns="http://www.w3.org/2000/svg"><g id="Map-2" data-name="Map"><path d="m3 15h58a0 0 0 0 1 0 0v46a0 0 0 0 1 0 0h-52a6 6 0 0 1 -6-6v-40a0 0 0 0 1 0 0z" fill="#006df0"/><path d="m15 27v24a6 6 0 0 0 -12 0v-36a6 6 0 0 1 6-6 6.009 6.009 0 0 1 6 6z" fill="#ff9811"/><path d="m9 45a6 6 0 0 1 0 12z" fill="#cc7400"/><path d="m61 20.9v12.76l-28.74 27.34h-12.78l15.02-14.5-19.5-19.5v-12l25.6 25.6z" fill="#d1d3d4"/><path d="m61 33.66v27.34h-28.74z" fill="#5eac24"/><path d="m61 15v5.9l-20.4 19.7-25.6-25.6z" fill="#ffcd00"/><path d="m52 14a5.9 5.9 0 0 1 -.09 1c-1.03 6.29-10.91 17-10.91 17s-9.88-10.71-10.91-17a5.9 5.9 0 0 1 -.09-1 11 11 0 0 1 22 0z" fill="#ed1c24"/><circle cx="41" cy="14" fill="#d1e7f8" r="6"/><path d="m48.154 5.651c-.936 1.393-1.936 2.738-2.976 4.05a5.993 5.993 0 0 1 -8.286 8.661c-1.273 1.1-2.582 2.164-3.939 3.165a80.723 80.723 0 0 0 8.047 10.473s9.88-10.71 10.91-17a5.9 5.9 0 0 0 .09-1 10.966 10.966 0 0 0 -3.846-8.349z" fill="#cf1820"/><path d="m36.892 18.362a5.993 5.993 0 0 0 8.286-8.662 64.388 64.388 0 0 1 -8.286 8.662z" fill="#b7cad9"/></g></svg>