<svg id="Layer_1" enable-background="new 0 0 512 512" height="512" viewBox="0 0 512 512" width="512" xmlns="http://www.w3.org/2000/svg"><path d="m85.333 232c-8.836 0-16-7.164-16-16v-200c0-8.836 7.164-16 16-16s16 7.164 16 16v200c0 8.836-7.163 16-16 16z" fill="#80aaff"/><path d="m426.667 232c-8.837 0-16-7.164-16-16v-200c0-8.836 7.163-16 16-16s16 7.164 16 16v200c0 8.836-7.163 16-16 16z" fill="#80aaff"/><path d="m56 512c-8.836 0-16-7.164-16-16v-32c0-8.836 7.164-16 16-16s16 7.164 16 16v32c0 8.836-7.164 16-16 16z" fill="#999"/><path d="m456 512c-8.837 0-16-7.164-16-16v-32c0-8.836 7.163-16 16-16s16 7.164 16 16v32c0 8.836-7.163 16-16 16z" fill="#999"/><path d="m469.333 284.533h-85.333c9.36-42.125 6.105-27.481 17.067-76.8h51.2c11.507 51.777 7.923 35.647 17.066 76.8z" fill="#aaa"/><path d="m128 284.533h-85.333c9.36-42.125 6.106-27.481 17.067-76.8h51.2c11.507 51.777 7.922 35.647 17.066 76.8z" fill="#aaa"/><path d="m461.749 250.4h-70.165l9.483-42.667h51.2z" fill="#b2b2b2"/><path d="m120.416 250.4h-70.165l9.482-42.667h51.2z" fill="#b2b2b2"/><path d="m512 318.667v119.467c0 18.848-15.285 34.133-34.133 34.133h-443.734c-18.848 0-34.133-15.286-34.133-34.134v-119.466c0-18.848 15.285-34.133 34.133-34.133h443.733c18.849-.001 34.134 15.285 34.134 34.133z" fill="#aaa"/><path d="m512 318.667v119.467h-443.733c-18.848 0-34.133-15.285-34.133-34.133v-119.468h443.733c18.848 0 34.133 15.286 34.133 34.134z" fill="#b2b2b2"/><circle cx="409.6" cy="378.4" fill="#b9dcff" r="34.133"/><circle cx="76.8" cy="378.4" fill="#ffec8f" r="25.6"/><circle cx="162.133" cy="378.4" fill="#ffec8f" r="25.6"/><circle cx="247.467" cy="378.4" fill="#ffec8f" r="25.6"/><g fill="#80aaff"><circle cx="255.83" cy="192" r="24"/><path d="m306.745 157.088c-4.095 0-8.189-1.562-11.313-4.686-21.834-21.835-57.362-21.834-79.196 0-6.249 6.249-16.379 6.249-22.627 0-6.249-6.248-6.249-16.379 0-22.627 34.311-34.311 90.14-34.311 124.45 0 10.108 10.107 2.812 27.313-11.314 27.313z"/><path d="m352 111.833c-4.095 0-8.189-1.562-11.313-4.687-46.79-46.788-122.918-46.787-169.706 0-6.248 6.249-16.379 6.249-22.627 0-6.249-6.248-6.249-16.379 0-22.627 59.264-59.266 155.696-59.265 214.96 0 10.108 10.108 2.812 27.314-11.314 27.314z"/></g></svg>