<svg height="512" viewBox="0 0 64 64" width="512" xmlns="http://www.w3.org/2000/svg"><rect fill="#57a4ff" height="58" rx="4" width="36" x="5" y="3"/><path d="m5 26v31a4 4 0 0 0 4 4h27.4c-18.02-3.79-31.4-18.006-31.4-35z" fill="#2488ff"/><circle cx="41" cy="32" fill="#ffcd00" r="18"/><path d="m14 9h18a2 2 0 0 0 2-2v-4h-22v4a2 2 0 0 0 2 2z" fill="#6d6e71"/><path d="m33 38h3a2 2 0 0 1 4 0h7v-12h-14z" fill="#ff3051"/><path d="m49 38a2 2 0 0 1 4 0h2v-4l-3-4h-5v8z" fill="#6d6e71"/><circle cx="51" cy="38" fill="#58595b" r="2"/><circle cx="38" cy="38" fill="#58595b" r="2"/><path d="m30 35h-1a1 1 0 0 0 0 2h1a1 1 0 0 0 0-2z" fill="#df2a47"/><path d="m29 32a1 1 0 0 0 -1-1h-1a1 1 0 0 0 0 2h1a1 1 0 0 0 1-1z" fill="#df2a47"/><path d="m34 56h-22a1 1 0 0 0 0 2h22a1 1 0 0 0 0-2z" fill="#6d6e71"/><g fill="#ff3051"><path d="m48 52h-2v2h-2v2h2v2h2v-2h2v-2h-2z"/><path d="m44 60h6v2h-6z"/><path d="m18 31h2v2h-2z"/><path d="m18.75 36.694h2v2h-2z" transform="matrix(.966 -.259 .259 .966 -9.083 6.396)"/><path d="m20.947 42h2v2h-2z" transform="matrix(.866 -.5 .5 .866 -18.557 16.731)"/><path d="m24.443 46.557h2v2h-2z" transform="matrix(.707 -.707 .707 .707 -26.175 31.92)"/><path d="m29 50.052h2v2h-2z" transform="matrix(.5 -.866 .866 .5 -29.213 51.512)"/><path d="m18.75 25.306h2v2h-2z" transform="matrix(.259 -.966 .966 .259 -10.771 38.575)"/><path d="m20.947 20h2v2h-2z" transform="matrix(.5 -.866 .866 .5 -7.212 29.51)"/><path d="m24.443 15.444h2v2h-2z" transform="matrix(.707 -.707 .707 .707 -4.176 22.802)"/><path d="m29 11.948h2v2h-2z" transform="matrix(.866 -.5 .5 .866 -2.454 16.736)"/></g><path d="m51 12a1 1 0 0 1 1 1 1 1 0 0 0 2 0 3 3 0 0 0 -3-3 1 1 0 0 0 0 2z" fill="#006df0"/><path d="m51 2a1 1 0 0 0 0 2 9.01 9.01 0 0 1 9 9 1 1 0 0 0 2 0 11.013 11.013 0 0 0 -11-11z" fill="#006df0"/><path d="m51 8a5.006 5.006 0 0 1 5 5 1 1 0 0 0 2 0 7.008 7.008 0 0 0 -7-7 1 1 0 0 0 0 2z" fill="#006df0"/><path d="m31 31a1 1 0 0 0 0 2h2v-2z" fill="#df2a47"/><path d="m27 27a1 1 0 0 0 0 2h6v-2z" fill="#df2a47"/></svg>