<svg height="682pt" viewBox="-21 -97 682.66669 682" width="682pt" xmlns="http://www.w3.org/2000/svg"><path d="m320-4.75c-175.875 0-320 142.875-320 318.75 0 55.5 15 109.125 44.25 159.375l5.25 9.375h541l5.25-9.375c29.25-50.25 44.25-103.875 44.25-159.375 0-175.875-144.125-318.75-320-318.75zm0 0" fill="#ff641a"/><path d="m640 314c0 55.5-15 109.125-44.25 159.375l-5.25 9.375h-270.5v-487.5c175.875 0 320 142.875 320 318.75zm0 0" fill="#f03800"/><path d="m602.5 314c0 45.375-11.25 89.625-33.75 131.25h-192.5l-37.5-18.75h-37.5l-37.5 18.75h-192.5c-22.5-41.625-33.75-85.875-33.75-131.25 0-155.25 127.25-281.25 282.5-281.25s282.5 126 282.5 281.25zm0 0" fill="#f2f6fc"/><path d="m602.5 314c0 45.375-11.25 89.625-33.75 131.25h-192.5l-37.5-18.75h-18.75v-393.75c155.25 0 282.5 126 282.5 281.25zm0 0" fill="#dce1eb"/><path d="m146.390625 141.640625 3.023437 78.023437 76.527344 1.527344c23.75-23.75 57.8125-38.441406 94.058594-38.441406l37.5-58.59375-37.5-53.90625c-67.308594 0-129.496094 27.28125-173.609375 71.390625zm0 0" fill="#fdbf00"/><path d="m493.609375 141.640625c-44.113281-44.109375-106.300781-71.390625-173.609375-71.390625v112.5c36.246094 0 70.308594 14.691406 94.058594 38.441406l76.527344-39.027344zm0 0" fill="#ff641a"/><path d="m414.058594 221.191406c23.75 23.75 38.441406 56.5625 38.441406 92.808594v18.75h112.5v-18.75c0-67.308594-27.28125-128.246094-71.390625-172.359375zm0 0" fill="#cd0000"/><path d="m358.066406 408.941406-29.296875-23.4375 115.488281-142.800781 29.300782 23.4375zm0 0" fill="#32393f"/><path d="m376.25 426.5v18.75h-112.5v-18.75c0-31.128906 25.121094-56.25 56.25-56.25s56.25 25.121094 56.25 56.25zm0 0" fill="#575f64"/><path d="m376.25 426.5v18.75h-56.25v-75c31.128906 0 56.25 25.121094 56.25 56.25zm0 0" fill="#32393f"/><path d="m75 314v18.75h112.5v-18.75c0-36.246094 14.691406-69.058594 38.441406-92.808594l-79.550781-79.550781c-44.109375 44.113281-71.390625 105.050781-71.390625 172.359375zm0 0" fill="#4bb9ec"/></svg>