<svg height="512pt" viewBox="-10 0 512 512.00118" width="512pt" xmlns="http://www.w3.org/2000/svg"><path d="m10 386.566406 45.574219-45.574218c2.210937-2.210938 5.796875-2.210938 8.007812 0l114.203125 114.203124c2.214844 2.210938 2.214844 5.800782 0 8.011719l-38.789062 38.792969zm0 0" fill="#dff6fc"/><path d="m79.300781 354.28125 69.777344-37.261719c26.476563-14.136719 57.375-17.546875 86.292969-9.523437l89.988281 24.96875c11.605469 3.21875 19.210937 14.328125 18.015625 26.316406-1.265625 12.65625-11.914062 22.296875-24.632812 22.296875h-114.398438l70.136719.066406h-.03125 43.886719c14.640624 0 28.734374-5.546875 39.445312-15.523437l78.546875-73.152344c9.390625-8.746094 23.6875-9.542969 33.992187-1.898438 13.359376 9.914063 14.449219 29.515626 2.277344 40.851563l-91.171875 84.871094c-21.890625 20.378906-50.6875 31.707031-80.59375 31.707031h-125.503906zm0 0" fill="#ffddcf"/><path d="m412.667969 138.933594c0 71.210937-57.726563 128.9375-128.9375 128.9375-71.210938 0-128.941407-57.726563-128.941407-128.9375 0-71.210938 57.730469-128.9375 128.941407-128.9375 71.210937 0 128.9375 57.726562 128.9375 128.9375zm0 0" fill="#fff"/><path d="m436.667969 128.984375c0 13.253906-10.746094 24-24 24-13.253907 0-24-10.746094-24-24s10.746093-24 24-24c13.253906 0 24 10.746094 24 24zm0 0" fill="#f5737f"/><path d="m178.792969 148.882812c0 13.253907-10.746094 24-24 24-13.257813 0-24-10.746093-24-24 0-13.257812 10.742187-24 24-24 13.253906 0 24 10.742188 24 24zm0 0" fill="#91def5"/><path d="m283.730469 68.496094-61.003907 35.21875v70.4375l61.003907 35.21875 61-35.21875v-70.4375zm0 0" fill="#e2f1a1"/><path d="m344.730469 174.152344v-70.4375l-61 35.21875v70.4375zm0 0" fill="#cbe558"/><path d="m222.726562 174.152344v-70.4375l61.003907 35.21875v70.4375zm0 0" fill="#d8ec84"/><path d="m154.792969 182.882812c18.746093 0 34-15.253906 34-34 0-14.515624-9.144531-26.925781-21.972657-31.796874 4.375-23.652344 15.628907-45.074219 32.808594-62.253907 39.351563-39.351562 101.792969-46.054687 148.480469-15.9375 4.640625 2.992188 10.832031 1.65625 13.824219-2.984375 2.996094-4.640625 1.660156-10.828125-2.980469-13.824218-26.273437-16.945313-57.96875-24.542969-89.242187-21.386719-31.726563 3.199219-61.636719 17.402343-84.226563 39.988281-20.652344 20.652344-33.980469 46.5625-38.753906 75.167969-14.867188 3.628906-25.9375 17.054687-25.9375 33.027343 0 18.746094 15.25 34 34 34zm0-48c7.71875 0 14 6.277344 14 14 0 7.71875-6.28125 14-14 14-7.722657 0-14-6.28125-14-14 0-7.722656 6.277343-14 14-14zm0 0"/><path d="m216.914062 237.359375c-4.566406-3.109375-10.789062-1.925781-13.894531 2.640625-3.109375 4.566406-1.925781 10.785156 2.640625 13.894531 23.667969 16.105469 50.867188 23.984375 77.9375 23.984375 35.871094 0 71.511719-13.839844 98.375-40.699218 20.640625-20.640626 33.972656-46.5625 38.75-75.164063 14.871094-3.628906 25.945313-17.058594 25.945313-33.03125 0-18.746094-15.253907-34-34-34-18.75 0-34 15.253906-34 34 0 14.515625 9.144531 26.929687 21.976562 31.796875-4.378906 23.65625-15.644531 45.085938-32.8125 62.253906-40.351562 40.351563-103.824219 46.375-150.917969 14.324219zm195.753907-122.375c7.71875 0 14 6.28125 14 14s-6.28125 14-14 14-14-6.28125-14-14 6.28125-14 14-14zm0 0"/><path d="m278.730469 218.03125c1.546875.894531 3.273437 1.339844 5 1.339844 1.726562 0 3.453125-.445313 5-1.339844l61-35.21875c3.09375-1.785156 5-5.089844 5-8.660156v-70.4375c0-3.574219-1.90625-6.875-5-8.660156l-61-35.21875c-3.09375-1.789063-6.90625-1.789063-10 0l-61.003907 35.21875c-3.09375 1.785156-5 5.085937-5 8.660156v70.4375c0 3.570312 1.90625 6.875 5 8.660156zm-46-96.996094 41 23.671875v47.34375l-41-23.671875zm61 71.015625v-47.34375l41-23.671875v47.34375zm-10-112.007812 41 23.671875-41 23.671875-41-23.671875zm0 0"/><path d="m491.019531 309.90625c-.609375-10.894531-5.980469-20.867188-14.742187-27.367188-14.175782-10.519531-33.84375-9.421874-46.765625 2.609376l-76.023438 70.800781c-.140625-15.351563-10.359375-28.933594-25.457031-33.121094l-89.984375-24.96875c-31.539063-8.75-64.808594-5.078125-93.675781 10.335937l-64.824219 34.617188-8.890625-8.890625c-6.109375-6.109375-16.046875-6.109375-22.15625 0l-45.570312 45.570313c-3.90625 3.90625-3.90625 10.238281 0 14.144531s10.238281 3.90625 14.140624 0l42.507813-42.507813 108.070313 108.074219-35.726563 35.726563c-3.902344 3.90625-3.902344 10.238281 0 14.140624 1.953125 1.953126 4.511719 2.929688 7.070313 2.929688 2.558593 0 5.121093-.976562 7.074218-2.929688l38.789063-38.792968c3.359375-3.359375 4.859375-7.875 4.523437-12.277344h111.453125c32.542969 0 63.585938-12.210938 87.40625-34.386719l91.171875-84.875c7.984375-7.429687 12.214844-17.941406 11.609375-28.832031zm-25.238281 14.195312-91.171875 84.871094c-20.105469 18.71875-46.308594 29.027344-73.777344 29.027344h-125.503906c-.191406 0-.378906.015625-.566406.027344l-80.433594-80.433594 59.460937-31.75c24.320313-12.988281 52.34375-16.078125 78.910157-8.710938l89.984375 24.96875c6.941406 1.925782 11.457031 8.523438 10.738281 15.6875-.753906 7.578126-7.066406 13.289063-14.683594 13.289063h-114.394531c-5.519531 0-9.996094 4.476563-10 9.996094 0 5.519531 4.472656 10 9.992188 10.003906l70.113281.066406h43.886719c17.226562 0 33.65625-6.464843 46.261718-18.207031l78.546875-73.148438c5.859375-5.460937 14.785157-5.957031 21.214844-1.183593 3.976563 2.945312 6.414063 7.472656 6.6875 12.414062.277344 4.941407-1.640625 9.707031-5.265625 13.082031zm0 0"/><path d="m386.527344 71.085938c2.632812 0 5.210937-1.070313 7.070312-2.929688 1.863282-1.871094 2.929688-4.441406 2.929688-7.082031 0-2.628907-1.066406-5.199219-2.929688-7.070313-1.859375-1.859375-4.4375-2.917968-7.070312-2.917968-2.628906 0-5.207032 1.058593-7.066406 2.917968-1.863282 1.863282-2.933594 4.441406-2.933594 7.070313 0 2.640625 1.070312 5.222656 2.933594 7.082031 1.859374 1.859375 4.4375 2.929688 7.066406 2.929688zm0 0"/><path d="m179.046875 204.238281c-2.640625 0-5.210937 1.066407-7.070313 2.929688-1.871093 1.859375-2.929687 4.4375-2.929687 7.070312 0 2.628907 1.058594 5.210938 2.929687 7.066407 1.859376 1.863281 4.429688 2.933593 7.070313 2.933593 2.628906 0 5.199219-1.070312 7.070313-2.933593 1.859374-1.855469 2.929687-4.4375 2.929687-7.066407 0-2.632812-1.070313-5.210937-2.929687-7.070312-1.859376-1.859375-4.441407-2.929688-7.070313-2.929688zm0 0"/></svg>