<?xml version="1.0" encoding="iso-8859-1"?>
<!-- Generator: Adobe Illustrator 19.0.0, SVG Export Plug-In . SVG Version: 6.00 Build 0)  -->
<svg version="1.1" id="Layer_1" xmlns="http://www.w3.org/2000/svg" xmlns:xlink="http://www.w3.org/1999/xlink" x="0px" y="0px"
	 viewBox="0 0 512.001 512.001" style="enable-background:new 0 0 512.001 512.001;" xml:space="preserve">
<path style="fill:#F4D853;" d="M367.63,506.88l10.779-83.941H460.8c23.812,0,43.116-19.304,43.116-43.116V212.736
	c0,0-23.534,4.869-42.956,10.691c-19.061,5.714-35.37,17.625-35.37,37.524v102.57h-74.263c-11.906,0-21.558,9.651-21.558,21.558
	v122.88"/>
<path d="M337.853,507.958h-16.168v-122.88c0-16.345,13.298-29.642,29.642-29.642h66.178V260.95
	c0-20.932,14.992-37.432,41.134-45.267c19.537-5.856,42.665-10.661,43.64-10.863l9.723-2.011v177.016
	c0,28.231-22.969,51.2-51.2,51.2h-75.279l-9.874,76.886l-16.036-2.059l11.684-90.995H460.8c19.317,0,35.032-15.716,35.032-35.032
	V222.787c-8.54,1.943-21.316,5.015-32.551,8.383c-11.057,3.315-29.608,11.591-29.608,29.78v110.655h-82.347
	c-7.43,0-13.474,6.044-13.474,13.474v122.88H337.853z"/>
<path style="fill:#F4D8AA;" d="M465.116,86.641h-0.009c-21.429,0-38.8,17.371-38.8,38.8l0,0l-18.324,42.042h18.324v26.947h36.648
	c22.622,0,40.96-18.338,40.96-40.96v-28.03C503.916,104.012,486.544,86.641,465.116,86.641z"/>
<path d="M462.956,202.514h-44.733v-26.947h-22.582l22.614-51.887c0.927-25.041,21.588-45.124,46.852-45.124h0.009
	c25.851,0,46.884,21.032,46.884,46.884v28.03C512,180.513,489.999,202.514,462.956,202.514z M434.392,186.346h28.564
	c18.127,0,32.876-14.748,32.876-32.876v-28.03c0-16.937-13.779-30.716-30.716-30.716h-0.009c-16.937,0-30.716,13.779-30.716,30.716
	v1.685l-14.067,32.272h14.067V186.346z"/>
<rect x="465.631" y="105.461" transform="matrix(-0.7071 -0.7071 0.7071 -0.7071 728.3933 528.8007)" style="fill:#FFFFFF;" width="16.168" height="16.168"/>
<path style="fill:#3D6DEB;" d="M144.37,506.88l-10.779-83.941H51.2c-23.812,0-43.116-19.304-43.116-43.116V212.736
	c0,0,23.534,4.869,42.956,10.691c19.061,5.714,35.37,17.625,35.37,37.524v102.57h74.263c11.906,0,21.558,9.651,21.558,21.558v122.88
	"/>
<path d="M190.316,507.958h-16.168v-122.88c0-7.43-6.044-13.474-13.474-13.474H78.327V260.95c0-18.189-18.551-26.466-29.608-29.78
	c-11.244-3.37-24.015-6.441-32.551-8.383v157.037c0,19.316,15.715,35.032,35.032,35.032h89.504l11.684,90.995l-16.036,2.059
	l-9.874-76.886H51.2c-28.231,0-51.2-22.969-51.2-51.2V202.809l9.723,2.011c0.974,0.202,24.103,5.007,43.64,10.863
	c26.141,7.836,41.134,24.336,41.134,45.267v94.486h66.178c16.344,0,29.642,13.297,29.642,29.642V507.958z"/>
<path style="fill:#F4D8AA;" d="M46.884,86.641h0.009c21.429,0,38.8,17.371,38.8,38.8l0,0l18.324,42.042H85.693v26.947H49.044
	c-22.622,0-40.96-18.338-40.96-40.96v-28.03C8.084,104.012,25.456,86.641,46.884,86.641z"/>
<path d="M93.777,202.514H49.044C22.001,202.514,0,180.513,0,153.47v-28.03c0-25.852,21.033-46.884,46.884-46.884h0.009
	c25.264,0,45.924,20.083,46.852,45.124l22.614,51.887H93.777V202.514z M46.884,94.725c-16.937,0-30.716,13.779-30.716,30.716v28.03
	c0,18.128,14.749,32.876,32.876,32.876h28.564v-26.947h14.067l-14.067-32.273v-1.685c0-16.937-13.779-30.716-30.716-30.716H46.884z"
	/>
<rect x="34.01" y="105.446" transform="matrix(-0.7071 -0.7071 0.7071 -0.7071 -8.4179 223.5734)" style="fill:#FFFFFF;" width="16.168" height="16.168"/>
<g>
	<polyline style="fill:#A9A8AE;" points="240.044,507.958 240.044,313.937 272.381,313.937 272.381,507.958 	"/>
	<rect x="121.209" y="281.601" style="fill:#A9A8AE;" width="264.084" height="32.337"/>
</g>
<path d="M393.376,273.516H113.123v48.505H231.96v185.937h16.168V322.022h16.168v185.937h16.168V322.022h112.911V273.516z
	 M377.207,305.853H129.291v-16.168h247.916V305.853z"/>
<polygon style="fill:#3D6DEB;" points="312.051,119.916 312.051,12.127 139.587,12.127 139.587,47.968 109.38,84.885 
	139.561,84.885 139.587,119.916 "/>
<polygon style="fill:#F4D853;" points="357.322,55.243 357.322,91.084 387.529,128.001 357.322,128.001 357.322,163.032 
	184.859,163.032 184.859,55.243 "/>
<rect x="184.837" y="55.243" style="fill:#A9A8AE;" width="127.213" height="64.674"/>
<path d="M365.406,88.198v-41.04h-45.272V4.043H131.503v41.04L92.321,92.969h39.163l0.025,35.032h33.767v-16.168h-17.612
	l-0.025-35.032H126.44l21.231-25.946V20.211h156.295v26.947H176.775v123.958h188.632v-35.032h39.183L365.406,88.198z
	 M349.238,119.916v35.032H192.943v-26.947h127.192V73.709h-16.168v38.123H192.943V63.327h156.295V93.97l21.23,25.946H349.238z"/>
<path d="M309.3,230.736h-16.168v-16.168H309.3V230.736z M264.028,230.736H247.86v-16.168h16.168V230.736z M218.757,230.736h-16.168
	v-16.168h16.168V230.736z"/>
<g>
</g>
<g>
</g>
<g>
</g>
<g>
</g>
<g>
</g>
<g>
</g>
<g>
</g>
<g>
</g>
<g>
</g>
<g>
</g>
<g>
</g>
<g>
</g>
<g>
</g>
<g>
</g>
<g>
</g>
</svg>
