<svg height="464pt" viewBox="0 -60 464 464" width="464pt" xmlns="http://www.w3.org/2000/svg"><path d="m464 288v40c-.027344 8.824219-7.175781 15.972656-16 16h-432c-8.824219-.027344-15.9726562-7.175781-16-16v-40zm0 0" fill="#898890"/><path d="m448 16v272h-432v-272c.027344-8.824219 7.175781-15.9726562 16-16h400c8.824219.0273438 15.972656 7.175781 16 16zm0 0" fill="#bdfdff"/><path d="m304 0h-272c-8.824219.0273438-15.972656 7.175781-16 16v272c.464844-158.863281 129.136719-287.535156 288-288zm0 0" fill="#d3feff"/><path d="m424 184h-56v-56c30.929688 0 56 25.070312 56 56zm0 0" fill="#c2fb3b"/><path d="m344 208h56c0 30.929688-25.070312 56-56 56s-56-25.070312-56-56 25.070312-56 56-56zm0 0" fill="#ffda44"/><path d="m48 96h32v56h-32zm0 0" fill="#d80027"/><path d="m112 56h32v96h-32zm0 0" fill="#d80027"/><path d="m176 32h32v120h-32zm0 0" fill="#d80027"/><path d="m296 288v16c-.027344 8.824219-7.175781 15.972656-16 16h-96c-8.824219-.027344-15.972656-7.175781-16-16v-16zm0 0" fill="#e0e0e2"/><path d="m32 144h192v16h-192zm0 0" fill="#e0e0e2"/><path d="m208 176c-8.835938 0-16 7.164062-16 16 .019531 1.792969.34375 3.570312.960938 5.257812l-30.03125 35.039063c-.964844-.1875-1.945313-.289063-2.929688-.296875-2.277344.007812-4.527344.507812-6.59375 1.464844l-33.558594-24c.046875-.503906.152344-.984375.152344-1.496094.050781-6.101562-3.371094-11.699219-8.824219-14.433594-5.453125-2.738281-11.988281-2.132812-16.847656 1.554688s-7.199219 9.816406-6.03125 15.804687l-35.039063 30.066407c-1.6875-.617188-3.464843-.941407-5.257812-.960938-6.828125-.0625-12.960938 4.175781-15.316406 10.585938-2.351563 6.410156-.417969 13.609374 4.832031 17.980468 5.25 4.367188 12.679687 4.964844 18.558594 1.488282 5.875-3.480469 8.933593-10.277344 7.628906-16.984376l35.039063-30.03125c3.859374 1.4375 8.128906 1.253907 11.851562-.503906l33.558594 24c-.046875.503906-.152344.984375-.152344 1.496094 0 8.835938 7.164062 16 16 16s16-7.164062 16-16c-.019531-1.792969-.34375-3.570312-.960938-5.253906l30.03125-35.042969c5.960938 1.097656 12.03125-1.265625 15.675782-6.109375 3.648437-4.839844 4.246094-11.324219 1.546875-16.75s-8.234375-8.863281-14.292969-8.875zm0 0" fill="#009698"/><g fill="#1a6fb0"><path d="m256 40h16v16h-16zm0 0"/><path d="m288 40h120v16h-120zm0 0"/><path d="m256 72h32v16h-32zm0 0"/><path d="m304 72h64v16h-64zm0 0"/><path d="m256 104h32v16h-32zm0 0"/></g></svg>