<?xml version="1.0" encoding="iso-8859-1"?>
<!-- Generator: Adobe Illustrator 21.1.0, SVG Export Plug-In . SVG Version: 6.00 Build 0)  -->
<svg xmlns="http://www.w3.org/2000/svg" xmlns:xlink="http://www.w3.org/1999/xlink" version="1.1" id="icons" x="0px" y="0px" viewBox="0 0 64 64" style="enable-background:new 0 0 64 64;" xml:space="preserve" width="512" height="512">
<g>
	<g>
		<g>
			<g>
				<circle style="fill:#4DBAF8;" cx="32" cy="32" r="22"/>
			</g>
			<g>
				<path style="fill:#FDCD3B;" d="M43.226,39C41.551,46.352,37.306,52.055,32,54c-5.251-1.925-9.462-7.53-11.173-14.772L43.226,39z      "/>
			</g>
			<g>
				<path style="fill:#FDCD3B;" d="M43.226,25C41.551,17.648,37.306,11.945,32,10c-5.251,1.925-9.462,7.53-11.173,14.772L43.226,25z      "/>
			</g>
			<g>
				<circle style="fill:#FDCD3B;" cx="32" cy="3" r="2"/>
			</g>
			<g>
				<circle style="fill:#FDCD3B;" cx="32" cy="61" r="2"/>
			</g>
			<g>
				<circle style="fill:#FDCD3B;" cx="61" cy="32" r="2"/>
			</g>
			<g>
				<circle style="fill:#FDCD3B;" cx="3" cy="32" r="2"/>
			</g>
			<g>
				<circle style="fill:#FDCD3B;" cx="55" cy="9" r="2"/>
			</g>
			<g>
				<circle style="fill:#FDCD3B;" cx="55" cy="55" r="2"/>
			</g>
			<g>
				<circle style="fill:#FDCD3B;" cx="9" cy="9" r="2"/>
			</g>
			<g>
				<circle style="fill:#FDCD3B;" cx="9" cy="55" r="2"/>
			</g>
			<g>
				<path style="fill:none;stroke:#000000;stroke-width:2;stroke-linejoin:round;stroke-miterlimit:10;" d="M32,16"/>
			</g>
			<g>
				<path style="fill:none;stroke:#000000;stroke-width:2;stroke-linejoin:round;stroke-miterlimit:10;" d="M32,54"/>
			</g>
			<path d="M61,29c-1.302,0-2.402,0.839-2.816,2h-3.21c-0.216-5.011-2.043-9.609-4.975-13.293V10h2.184c0.414,1.161,1.514,2,2.816,2     c1.654,0,3-1.346,3-3s-1.346-3-3-3c-1.302,0-2.402,0.839-2.816,2H49c-0.553,0-1,0.447-1,1v6.5c-3.92-3.802-9.182-6.224-15-6.475     v-3.21C34.161,5.402,35,4.302,35,3c0-1.654-1.346-3-3-3s-3,1.346-3,3c0,1.302,0.839,2.402,2,2.816v3.21     c-5.818,0.25-11.08,2.673-15,6.475V9c0-0.553-0.448-1-1-1h-3.184C11.402,6.839,10.302,6,9,6C7.346,6,6,7.346,6,9s1.346,3,3,3     c1.302,0,2.402-0.839,2.816-2H14v7.707C11.068,21.391,9.241,25.989,9.025,31h-3.21C5.402,29.839,4.302,29,3,29     c-1.654,0-3,1.346-3,3s1.346,3,3,3c1.302,0,2.402-0.839,2.816-2h3.21c0.216,5.011,2.043,9.609,4.975,13.293V54h-2.184     c-0.414-1.161-1.514-2-2.816-2c-1.654,0-3,1.346-3,3s1.346,3,3,3c1.302,0,2.402-0.839,2.816-2H15c0.552,0,1-0.447,1-1v-6.5     c3.92,3.802,9.182,6.224,15,6.475v3.21c-1.161,0.414-2,1.514-2,2.816c0,1.654,1.346,3,3,3s3-1.346,3-3     c0-1.302-0.839-2.402-2-2.816v-3.21c5.818-0.25,11.08-2.673,15-6.475V55c0,0.553,0.447,1,1,1h3.184c0.414,1.161,1.514,2,2.816,2     c1.654,0,3-1.346,3-3s-1.346-3-3-3c-1.302,0-2.402,0.839-2.816,2H50v-7.707c2.932-3.684,4.759-8.282,4.975-13.293h3.21     c0.414,1.161,1.514,2,2.816,2c1.654,0,3-1.346,3-3S62.654,29,61,29z M55,8c0.552,0,1,0.448,1,1s-0.448,1-1,1s-1-0.448-1-1     S54.448,8,55,8z M9,10c-0.551,0-1-0.448-1-1s0.449-1,1-1s1,0.448,1,1S9.551,10,9,10z M9,56c-0.551,0-1-0.448-1-1s0.449-1,1-1     s1,0.448,1,1S9.551,56,9,56z M55,54c0.552,0,1,0.448,1,1s-0.448,1-1,1s-1-0.448-1-1S54.448,54,55,54z M49.209,20h-6.534     c-1.47-3.522-3.557-6.432-6.072-8.476C41.791,12.69,46.254,15.776,49.209,20z M31,11.538V20h-7.477     C25.317,16.132,27.951,13.12,31,11.538z M33,11.537c3.055,1.584,5.684,4.593,7.477,8.463H33V11.537z M32,2c0.551,0,1,0.448,1,1     s-0.449,1-1,1s-1-0.448-1-1S31.449,2,32,2z M27.404,11.523c-2.514,2.044-4.605,4.956-6.078,8.477h-6.536     C17.747,15.774,22.213,12.687,27.404,11.523z M3,33c-0.551,0-1-0.448-1-1s0.449-1,1-1s1,0.448,1,1S3.551,33,3,33z M14.791,44     h6.535c1.47,3.522,3.558,6.432,6.073,8.476C22.21,51.31,17.746,48.225,14.791,44z M33,52.463V44h7.477     C38.684,47.87,36.055,50.879,33,52.463z M31,52.463c-3.055-1.584-5.684-4.593-7.476-8.463H31V52.463z M32,62     c-0.551,0-1-0.448-1-1s0.449-1,1-1s1,0.448,1,1S32.551,62,32,62z M36.603,52.476c2.515-2.043,4.602-4.954,6.072-8.476h6.534     C46.254,48.224,41.791,51.31,36.603,52.476z M50.462,42h-7.034c0.296-0.895,0.555-1.821,0.772-2.776l-1.949-0.445     C41.997,39.896,41.674,40.969,41.3,42H33v-3h-2v3h-8.299c-0.374-1.031-0.697-2.104-0.952-3.221l-1.95,0.445     c0.218,0.955,0.477,1.881,0.772,2.775h-7.034c-1.467-2.697-2.333-5.757-2.487-9H13v-2h-1.949c0.154-3.243,1.02-6.303,2.487-9     h7.039c-0.272,0.822-0.517,1.668-0.723,2.542l1.946,0.459c0.245-1.038,0.552-2.038,0.901-3.001H31v3h2v-3h8.3     c0.374,1.031,0.697,2.105,0.952,3.223l1.949-0.445c-0.218-0.956-0.477-1.882-0.773-2.777h7.034c1.467,2.697,2.333,5.757,2.487,9     H51v2h1.949C52.795,36.243,51.929,39.303,50.462,42z M61,33c-0.552,0-1-0.448-1-1s0.448-1,1-1s1,0.448,1,1S61.552,33,61,33z"/>
		</g>
	</g>
	<g>
		<g>
			<path d="M21,37h-4c-1.103,0-2-0.897-2-2v-6c0-1.103,0.897-2,2-2h5v2h-5v6h3v-2h-1v-2h2c0.552,0,1,0.447,1,1v4     C22,36.553,21.552,37,21,37z"/>
		</g>
		<g>
			<path d="M28,37h-3c-0.552,0-1-0.447-1-1v-8c0-0.553,0.448-1,1-1h3c1.654,0,3,1.346,3,3v4C31,35.654,29.654,37,28,37z M26,35h2     c0.551,0,1-0.448,1-1v-4c0-0.552-0.449-1-1-1h-2V35z"/>
		</g>
		<path d="M37,27h-3c-0.553,0-1,0.447-1,1v1v8h2v-3h2c1.654,0,3-1.346,3-3v-1C40,28.346,38.654,27,37,27z M38,31    c0,0.552-0.448,1-1,1h-2v-3h2c0.552,0,1,0.448,1,1V31z"/>
		<path d="M49,31v-1c0-1.654-1.346-3-3-3h-3c-0.553,0-1,0.447-1,1v1v8h2v-3h2h0.195L47,35.287V37h2v-2    c0-0.188-0.053-0.371-0.152-0.53l-0.804-1.286C48.629,32.636,49,31.863,49,31z M44,32v-3h2c0.552,0,1,0.448,1,1v1    c0,0.552-0.448,1-1,1H44z"/>
	</g>
</g>
</svg>
