<svg id="Layer_5" enable-background="new 0 0 64 64" height="512" viewBox="0 0 64 64" width="512" xmlns="http://www.w3.org/2000/svg"><g><g><g fill="#ccd1d9"><path d="m4 54h6v6h-6z"/><path d="m60 18v12h-6v-6h-44v6h-6v-12h2 52z"/><path d="m54 54h6v6h-6z"/></g><path d="m62 12v6h-2-2v-3.15l-25.67-8.85h-.66l-25.67 8.85v3.15h-2-2v-6l28.05-9.67c.63-.22 1.29-.33 1.95-.33s1.32.11 1.95.33z" fill="#969faa"/><path d="m58 14.85v3.15h-52v-3.15l25.67-8.85h.66z" fill="#48cfad"/><path d="m62 30v24h-2-6-6v-24h6 6z" fill="#f0d0b4"/><path d="m52 34h6v8h-6z" fill="#5cd6b3"/><path d="m54 54v6h-10v-4c0-1.1-.9-2-2-2h-1v-4h1c1.1 0 2-.9 2-2v-4c0-1.1-.9-2-2-2h-1v-4h1c1.1 0 2-.9 2-2v-4c0-1.1-.9-2-2-2h-20c-1.1 0-2 .9-2 2v4c0 1.1.9 2 2 2h1v4h-1c-1.1 0-2 .9-2 2v4c0 1.1.9 2 2 2h1v4h-1c-1.1 0-2 .9-2 2v4h-10v-6h6v-24h-6v-6h44v6h-6v24z" fill="#e6e9ed"/><path d="m44 56v4c0 1.1-.9 2-2 2h-20c-1.1 0-2-.9-2-2v-4c0-1.1.9-2 2-2h1 18 1c1.1 0 2 .9 2 2z" fill="#fcd770"/><path d="m44 44v4c0 1.1-.9 2-2 2h-1-18-1c-1.1 0-2-.9-2-2v-4c0-1.1.9-2 2-2h1 18 1c1.1 0 2 .9 2 2z" fill="#fcd770"/><path d="m44 32v4c0 1.1-.9 2-2 2h-1-18-1c-1.1 0-2-.9-2-2v-4c0-1.1.9-2 2-2h20c1.1 0 2 .9 2 2z" fill="#fcd770"/><path d="m23 50h18v4h-18z" fill="#5cd6b3"/><path d="m23 38h18v4h-18z" fill="#5cd6b3"/><circle cx="32" cy="12" fill="#fcd770" r="2"/><path d="m16 30v24h-6-6-2v-24h2 6z" fill="#f0d0b4"/><path d="m6 34h6v8h-6z" fill="#5cd6b3"/></g><g><path d="m63 19v-7.713l-28.729-9.906c-1.467-.506-3.076-.506-4.543 0l-28.728 9.906v7.713h2v10h-2v26h2v6h16.184c.414 1.161 1.514 2 2.816 2h20c1.302 0 2.402-.839 2.816-2h16.184v-6h2v-26h-2v-10zm-6-2h-50v-1.435l24.838-8.565h.324l24.838 8.565zm-54-4.287 27.381-9.441c1.045-.36 2.193-.36 3.238 0l27.381 9.441v4.287h-2v-2.861l-26.502-9.139h-.996l-26.502 9.139v2.861h-2zm0 18.287h12v22h-12zm50-2h-6v26h6v4h-8v-3c0-1.654-1.346-3-3-3v-2c1.654 0 3-1.346 3-3v-4c0-1.654-1.346-3-3-3v-2c1.654 0 3-1.346 3-3v-4c0-1.654-1.346-3-3-3h-20c-1.654 0-3 1.346-3 3v4c0 1.654 1.346 3 3 3v2c-1.654 0-3 1.346-3 3v4c0 1.654 1.346 3 3 3v2c-1.654 0-3 1.346-3 3v3h-8v-4h6v-26h-6v-4h42zm-31 8c-.552 0-1-.448-1-1v-4c0-.551.448-1 1-1h20c.552 0 1 .449 1 1v4c0 .552-.448 1-1 1zm18 2v2h-16v-2zm2 4c.552 0 1 .448 1 1v4c0 .552-.448 1-1 1h-20c-.552 0-1-.448-1-1v-4c0-.552.448-1 1-1zm-2 8v2h-16v-2zm-35 4h4v4h-4zm38 5c0 .552-.448 1-1 1h-20c-.552 0-1-.448-1-1v-4c0-.552.448-1 1-1h20c.552 0 1 .448 1 1zm16-1h-4v-4h4zm2-6h-12v-22h12zm-2-24h-4v-6h-46v6h-4v-10h54z"/><path d="m29 12c0 1.654 1.346 3 3 3s3-1.346 3-3-1.346-3-3-3-3 1.346-3 3zm4 0c0 .551-.448 1-1 1s-1-.449-1-1 .448-1 1-1 1 .449 1 1z"/><path d="m23 33h2v2h-2z"/><path d="m27 33h2v2h-2z"/><path d="m39 45h2v2h-2z"/><path d="m35 45h2v2h-2z"/><path d="m27 57h2v2h-2z"/><path d="m23 57h2v2h-2z"/><path d="m59 33h-8v10h8zm-2 8h-4v-6h4z"/><path d="m51 45h8v2h-8z"/><path d="m51 49h8v2h-8z"/><path d="m5 43h8v-10h-8zm2-8h4v6h-4z"/><path d="m5 45h8v2h-8z"/><path d="m5 49h8v2h-8z"/></g></g></svg>