<?xml version="1.0" encoding="iso-8859-1"?>
<!-- Generator: Adobe Illustrator 19.0.0, SVG Export Plug-In . SVG Version: 6.00 Build 0)  -->
<svg version="1.1" id="Capa_1" xmlns="http://www.w3.org/2000/svg" xmlns:xlink="http://www.w3.org/1999/xlink" x="0px" y="0px"
	 viewBox="0 0 511.742 511.742" style="enable-background:new 0 0 511.742 511.742;" xml:space="preserve">
<path style="fill:#AAB2BD;" d="M131.933,399.799c0,3.678-0.558,7.277-1.601,10.713c-4.556,14.633-18.229,25.269-34.381,25.269
	c-14.953,0-27.666-9.034-33.183-21.989c-1.761-4.232-2.799-9.034-2.799-13.992c0-19.912,16.07-35.982,35.981-35.982
	C115.864,363.816,131.933,379.887,131.933,399.799z"/>
<g style="opacity:0.5;">
	<path style="fill:#FFFFFF;" d="M70.765,413.791c-1.761-4.232-2.799-9.034-2.799-13.992c0-18.538,13.989-33.577,31.983-35.576
		c-1.331-0.156-2.627-0.406-3.998-0.406c-19.912,0-35.981,16.07-35.981,35.982c0,4.958,1.038,9.76,2.799,13.992
		c5.517,12.955,18.229,21.989,33.183,21.989c1.304,0,2.562-0.18,3.83-0.312C86.671,433.953,75.759,425.519,70.765,413.791z"/>
</g>
<g style="opacity:0.2;">
	<path d="M121.138,385.806c1.761,4.231,2.8,9.034,2.8,13.993c0,18.537-13.989,33.576-31.984,35.575
		c1.332,0.156,2.628,0.406,3.998,0.406c19.912,0,35.982-16.07,35.982-35.981c0-4.959-1.039-9.762-2.799-13.993
		c-5.517-12.954-18.229-21.989-33.183-21.989c-1.304,0-2.561,0.18-3.83,0.312C105.232,365.643,116.145,374.077,121.138,385.806z"/>
</g>
<path style="fill:#AAB2BD;" d="M443.775,399.799c0,3.678-0.562,7.277-1.6,10.713c-4.553,14.633-18.234,25.269-34.381,25.269
	c-16.148,0-29.83-10.636-34.381-25.269c-1.039-3.357-1.602-6.949-1.602-10.713c0-19.912,16.07-35.982,35.982-35.982
	C427.705,363.816,443.775,379.887,443.775,399.799z"/>
<g style="opacity:0.5;">
	<path style="fill:#FFFFFF;" d="M382.603,413.791c-1.756-4.232-2.795-9.034-2.795-13.992c0-18.538,13.992-33.577,31.984-35.576
		c-1.328-0.156-2.625-0.406-3.998-0.406c-19.912,0-35.982,16.07-35.982,35.982c0,4.958,1.039,9.76,2.795,13.992
		c5.521,12.955,18.232,21.989,33.188,21.989c1.303,0,2.561-0.18,3.826-0.312C398.517,433.953,387.601,425.519,382.603,413.791z"/>
</g>
<g style="opacity:0.2;">
	<path d="M432.984,385.806c1.758,4.231,2.795,9.034,2.795,13.993c0,18.537-13.992,33.576-31.982,35.575
		c1.326,0.156,2.623,0.406,3.998,0.406c19.91,0,35.98-16.07,35.98-35.981c0-4.959-1.037-9.762-2.795-13.993
		c-5.521-12.954-18.232-21.989-33.186-21.989c-1.305,0-2.562,0.18-3.826,0.312C417.07,365.643,427.986,374.077,432.984,385.806z"/>
</g>
<g>
	<path style="fill:#3A3847;" d="M408.029,403.797c-2.203,0-4.029-1.789-4.029-3.998c0-2.21,1.748-3.998,3.951-3.998h0.078
		c2.217,0,3.998,1.788,3.998,3.998C412.027,402.008,410.246,403.797,408.029,403.797z"/>
	<path style="fill:#3A3847;" d="M96.19,403.797c-2.206,0-4.037-1.789-4.037-3.998c0-2.21,1.749-3.998,3.959-3.998h0.078
		c2.21,0,3.998,1.788,3.998,3.998C100.188,402.008,98.4,403.797,96.19,403.797z"/>
</g>
<path style="fill:#FFCE54;" d="M211.893,91.954h31.984v7.996c0,8.796-7.196,15.992-15.992,15.992s-15.992-7.195-15.992-15.992
	L211.893,91.954L211.893,91.954z"/>
<g style="opacity:0.5;">
	<path style="fill:#FFFFFF;" d="M219.889,99.95v-7.996h-7.996v7.996c0,8.796,7.196,15.992,15.992,15.992
		c1.386,0,2.713-0.234,3.998-0.57C225.016,113.576,219.889,107.36,219.889,99.95z"/>
</g>
<g style="opacity:0.2;">
	<path d="M235.881,99.95v-7.996h7.996v7.996c0,8.796-7.196,15.992-15.992,15.992c-1.386,0-2.714-0.234-3.998-0.57
		C230.755,113.576,235.881,107.36,235.881,99.95z"/>
</g>
<path style="fill:#5D9CEC;" d="M363.816,315.841H43.978l10.956-7.199c134.491-84.833,248.68-31.656,291.127-5.193L363.816,315.841z"
	/>
<path style="fill:#656D78;" d="M67.966,315.841h271.862h23.988c103.947,7.996,135.932,31.5,135.932,31.5v44.462h7.996v19.989
	h-55.973l-9.596-1.28c1.037-3.436,1.6-7.035,1.6-10.713c0-19.912-16.07-35.982-35.98-35.982c-19.912,0-35.982,16.07-35.982,35.982
	c0,3.764,0.562,7.355,1.602,10.713l-9.598,1.28H139.93l-9.597-1.28c1.042-3.436,1.601-7.035,1.601-10.713
	c0-19.912-16.07-35.982-35.982-35.982s-35.981,16.07-35.981,35.982c0,4.958,1.038,9.76,2.799,13.992l-10.795-1.999
	c0,0-47.976,0-47.976-15.991c0-15.992,0-31.984,0-31.984h7.996v-7.996v-39.98h31.984H67.966z"/>
<path style="fill:#ED5565;" d="M11.994,315.841v15.992h7.996c15.992,0,15.992-7.996,15.992-7.996v-7.996H11.994z"/>
<path style="fill:#E6E9ED;" d="M467.764,333.668v14.156l31.984,10.667v-11.15C499.748,347.341,490.892,340.93,467.764,333.668z"/>
<g style="opacity:0.3;">
	<path style="fill:#FFFFFF;" d="M258.783,315.841h16.562l10.775-40.222c-4.928-1.602-10.041-3.132-15.352-4.521L258.783,315.841z"/>
</g>
<g style="opacity:0.3;">
	<path style="fill:#FFFFFF;" d="M279.484,315.841h4.131l10.08-37.622c-1.234-0.452-2.514-0.874-3.779-1.312L279.484,315.841z"/>
</g>
<g style="opacity:0.3;">
	<path style="fill:#FFFFFF;" d="M159.057,315.841h16.558l14.142-52.782c-5.572,0.34-11.221,0.824-16.976,1.566L159.057,315.841z"/>
</g>
<g style="opacity:0.3;">
	<path style="fill:#FFFFFF;" d="M179.753,315.841h4.135l14.246-53.161c-1.39,0.035-2.768,0.059-4.169,0.121L179.753,315.841z"/>
</g>
<g style="opacity:0.3;">
	<path style="fill:#FFFFFF;" d="M59.97,411.792c0,0-47.976,0-47.976-15.991c0-15.992,0-31.984,0-31.984H3.998c0,0,0,15.992,0,31.984
		c0,15.991,47.976,15.991,47.976,15.991l10.795,1.999c-0.207-0.5-0.296-1.062-0.48-1.569L59.97,411.792z"/>
	<polygon style="fill:#FFFFFF;" points="19.99,355.82 19.99,315.841 11.994,315.841 11.994,355.82 11.994,363.816 19.99,363.816 	
		"/>
</g>
<g style="opacity:0.2;">
	<rect x="499.751" y="391.801" width="7.996" height="19.989"/>
	<path d="M363.816,315.841h-7.996c103.947,7.996,135.932,31.5,135.932,31.5v44.462h7.996v-44.462
		C499.748,347.341,467.764,323.837,363.816,315.841z"/>
</g>
<g>
	<path style="fill:#3A3847;" d="M51.974,415.79C43.295,415.79,0,414.822,0,395.801v-31.984c0-2.21,1.788-3.998,3.998-3.998H19.99
		c2.209,0,3.998,1.788,3.998,3.998s-1.789,3.998-3.998,3.998H7.996v27.986c0,7.816,25.542,11.986,43.978,11.993
		c2.21,0,3.998,1.796,3.998,3.998C55.972,414.002,54.18,415.79,51.974,415.79z"/>
	<path style="fill:#3A3847;" d="M499.748,351.338c-0.82,0-1.641-0.249-2.359-0.765l0,0c-0.311-0.227-32.834-22.973-133.885-30.75
		c-0.82-0.062-1.609-0.375-2.248-0.906c-0.062-0.055-6.201-5.138-17.312-12.079c-42.127-26.261-154.441-78.344-286.878,5.192
		c-3.643,2.296-7.207,4.669-10.854,7.121c-0.66,0.453-1.437,0.688-2.233,0.688H11.994c-2.209,0-3.998-1.788-3.998-3.998
		s1.788-3.998,3.998-3.998h30.762c3.361-2.265,6.672-4.451,10.045-6.575c136.267-85.952,251.966-32.272,295.382-5.216
		c9.098,5.685,14.945,10.136,17.18,11.9c102.916,8.074,135.416,31.188,136.75,32.171c1.781,1.312,2.164,3.811,0.852,5.592
		C502.183,350.776,500.975,351.338,499.748,351.338z"/>
	<path style="fill:#3A3847;" d="M499.748,391.803c-2.211,0-3.998-1.789-3.998-3.998v-40.464c0-2.202,1.787-3.998,3.998-3.998
		c2.209,0,3.998,1.796,3.998,3.998v40.464C503.746,390.014,501.957,391.803,499.748,391.803z"/>
	<path style="fill:#3A3847;" d="M407.795,439.778c-17.617,0-32.969-11.283-38.199-28.08c-1.188-3.811-1.781-7.808-1.781-11.899
		c0-22.044,17.936-39.98,39.98-39.98c22.043,0,39.979,17.937,39.979,39.98c0,3.998-0.594,7.995-1.771,11.868
		C440.762,428.495,425.41,439.778,407.795,439.778z M407.795,367.814c-17.633,0-31.984,14.353-31.984,31.984
		c0,3.279,0.477,6.496,1.422,9.525c4.184,13.432,16.459,22.458,30.562,22.458c14.102,0,26.377-9.026,30.562-22.458
		c0.936-3.092,1.42-6.309,1.42-9.525C439.777,382.167,425.426,367.814,407.795,367.814z"/>
	<path style="fill:#3A3847;" d="M95.952,439.778c-16.074,0-30.543-9.589-36.86-24.425c-2.046-4.92-3.119-10.284-3.119-15.555
		c0-22.044,17.936-39.98,39.979-39.98c22.044,0,39.98,17.937,39.98,39.98c0,3.998-0.597,7.995-1.772,11.868
		C128.919,428.495,113.572,439.778,95.952,439.778z M95.952,367.814c-17.636,0-31.983,14.353-31.983,31.984
		c0,4.231,0.862,8.534,2.495,12.462c5.044,11.846,16.625,19.521,29.489,19.521c14.099,0,26.381-9.026,30.562-22.458
		c0.941-3.092,1.422-6.309,1.422-9.525C127.936,382.167,113.587,367.814,95.952,367.814z"/>
	<path style="fill:#3A3847;" d="M507.744,415.79h-55.973c-2.209,0-3.998-1.788-3.998-3.998s1.789-3.998,3.998-3.998h55.973
		c2.209,0,3.998,1.788,3.998,3.998S509.953,415.79,507.744,415.79z"/>
	<path style="fill:#3A3847;" d="M363.816,415.79H139.93c-2.21,0-3.998-1.788-3.998-3.998s1.788-3.998,3.998-3.998h223.887
		c2.209,0,3.998,1.788,3.998,3.998S366.025,415.79,363.816,415.79z"/>
	<path style="fill:#3A3847;" d="M11.994,359.818c-2.209,0-3.998-1.788-3.998-3.998v-39.979c0-2.21,1.788-3.998,3.998-3.998
		s3.998,1.788,3.998,3.998v39.979C15.992,358.03,14.204,359.818,11.994,359.818z"/>
	<path style="fill:#3A3847;" d="M19.99,335.83c-2.21,0-3.998-1.787-3.998-3.997s1.788-3.998,3.998-3.998
		c9.046,0,11.806-2.765,12.001-4.217c0-2.218,1.788-3.889,3.994-3.889c2.21,0,3.994,1.897,3.994,4.107
		C39.98,324.32,39.753,335.83,19.99,335.83z"/>
	<path style="fill:#3A3847;" d="M95.952,391.803c-2.21,0-3.998-1.789-3.998-3.998v-7.996c0-2.21,1.788-3.998,3.998-3.998
		c2.21,0,3.998,1.788,3.998,3.998v7.996C99.95,390.014,98.162,391.803,95.952,391.803z"/>
	<path style="fill:#3A3847;" d="M95.952,423.786c-2.21,0-3.998-1.788-3.998-3.998v-7.996c0-2.21,1.788-3.998,3.998-3.998
		c2.21,0,3.998,1.788,3.998,3.998v7.996C99.95,421.998,98.162,423.786,95.952,423.786z"/>
	<path style="fill:#3A3847;" d="M87.475,395.316c-1.023,0-2.046-0.391-2.827-1.172l-5.677-5.669c-1.562-1.562-1.562-4.091,0-5.653
		s4.092-1.562,5.653,0l5.677,5.669c1.562,1.562,1.562,4.092,0,5.653C89.521,394.926,88.498,395.316,87.475,395.316z"/>
	<path style="fill:#3A3847;" d="M110.105,417.945c-1.023,0-2.046-0.391-2.827-1.171l-5.677-5.669c-1.562-1.562-1.562-4.092,0-5.654
		c1.562-1.561,4.092-1.561,5.653,0l5.677,5.67c1.562,1.562,1.562,4.092,0,5.653C112.151,417.555,111.127,417.945,110.105,417.945z"
		/>
	<path style="fill:#3A3847;" d="M83.957,403.797h-7.996c-2.209,0-3.998-1.789-3.998-3.998c0-2.21,1.789-3.998,3.998-3.998h7.996
		c2.21,0,3.998,1.788,3.998,3.998C87.955,402.008,86.167,403.797,83.957,403.797z"/>
	<path style="fill:#3A3847;" d="M115.942,403.797h-7.996c-2.21,0-3.998-1.789-3.998-3.998c0-2.21,1.788-3.998,3.998-3.998h7.996
		c2.21,0,3.998,1.788,3.998,3.998C119.94,402.008,118.152,403.797,115.942,403.797z"/>
	<path style="fill:#3A3847;" d="M81.799,417.945c-1.023,0-2.046-0.391-2.827-1.171c-1.562-1.562-1.562-4.092,0-5.653l5.677-5.67
		c1.562-1.561,4.092-1.561,5.653,0c1.562,1.562,1.562,4.092,0,5.654l-5.677,5.669C83.845,417.555,82.822,417.945,81.799,417.945z"/>
	<path style="fill:#3A3847;" d="M104.428,395.316c-1.023,0-2.046-0.391-2.827-1.172c-1.562-1.562-1.562-4.092,0-5.653l5.677-5.669
		c1.562-1.562,4.092-1.562,5.654,0s1.562,4.092,0,5.653l-5.677,5.669C106.474,394.926,105.451,395.316,104.428,395.316z"/>
	<path style="fill:#3A3847;" d="M407.795,391.803c-2.211,0-3.998-1.789-3.998-3.998v-7.996c0-2.21,1.787-3.998,3.998-3.998
		c2.209,0,3.998,1.788,3.998,3.998v7.996C411.793,390.014,410.004,391.803,407.795,391.803z"/>
	<path style="fill:#3A3847;" d="M407.795,423.786c-2.211,0-3.998-1.788-3.998-3.998v-7.996c0-2.21,1.787-3.998,3.998-3.998
		c2.209,0,3.998,1.788,3.998,3.998v7.996C411.793,421.998,410.004,423.786,407.795,423.786z"/>
	<path style="fill:#3A3847;" d="M399.314,395.316c-1.016,0-2.047-0.391-2.826-1.172l-5.67-5.669c-1.562-1.562-1.562-4.091,0-5.653
		s4.092-1.562,5.654,0l5.668,5.669c1.562,1.562,1.562,4.092,0,5.653C401.359,394.926,400.346,395.316,399.314,395.316z"/>
	<path style="fill:#3A3847;" d="M421.943,417.945c-1.016,0-2.047-0.391-2.826-1.171l-5.67-5.669c-1.561-1.562-1.561-4.092,0-5.654
		c1.562-1.561,4.092-1.561,5.654,0l5.668,5.67c1.562,1.562,1.562,4.092,0,5.653C423.988,417.555,422.975,417.945,421.943,417.945z"
		/>
	<path style="fill:#3A3847;" d="M395.801,403.797h-7.996c-2.211,0-3.998-1.789-3.998-3.998c0-2.21,1.787-3.998,3.998-3.998h7.996
		c2.209,0,3.998,1.788,3.998,3.998C399.799,402.008,398.01,403.797,395.801,403.797z"/>
	<path style="fill:#3A3847;" d="M427.783,403.797h-7.994c-2.211,0-3.998-1.789-3.998-3.998c0-2.21,1.787-3.998,3.998-3.998h7.994
		c2.211,0,3.998,1.788,3.998,3.998C431.781,402.008,429.994,403.797,427.783,403.797z"/>
	<path style="fill:#3A3847;" d="M393.644,417.945c-1.029,0-2.045-0.391-2.826-1.171c-1.562-1.562-1.562-4.092,0-5.653l5.67-5.67
		c1.561-1.561,4.09-1.561,5.652,0c1.562,1.562,1.562,4.092,0,5.654l-5.668,5.669C395.691,417.555,394.66,417.945,393.644,417.945z"
		/>
	<path style="fill:#3A3847;" d="M416.273,395.316c-1.029,0-2.045-0.391-2.826-1.172c-1.561-1.562-1.561-4.092,0-5.653l5.67-5.669
		c1.561-1.562,4.092-1.562,5.652,0c1.562,1.562,1.562,4.092,0,5.653l-5.668,5.669C418.32,394.926,417.289,395.316,416.273,395.316z"
		/>
	<path style="fill:#3A3847;" d="M363.816,319.839H43.978c-2.21,0-3.998-1.788-3.998-3.998s1.788-3.998,3.998-3.998h319.838
		c2.209,0,3.998,1.788,3.998,3.998S366.025,319.839,363.816,319.839z"/>
	<path style="fill:#3A3847;" d="M227.885,303.847c-2.21,0-3.998-1.788-3.998-3.998v-23.988c0-2.21,1.788-3.998,3.998-3.998
		s3.998,1.788,3.998,3.998v23.987C231.883,302.059,230.095,303.847,227.885,303.847z"/>
	<path style="fill:#3A3847;" d="M123.938,303.847c-2.21,0-3.998-1.788-3.998-3.998v-7.996c0-2.21,1.788-3.997,3.998-3.997
		c2.209,0,3.998,1.787,3.998,3.997v7.996C127.936,302.059,126.147,303.847,123.938,303.847z"/>
	<path style="fill:#3A3847;" d="M147.925,343.826h-15.992c-2.209,0-3.998-1.787-3.998-3.998c0-2.209,1.788-3.998,3.998-3.998h15.992
		c2.21,0,3.998,1.789,3.998,3.998C151.923,342.039,150.135,343.826,147.925,343.826z"/>
	<path style="fill:#3A3847;" d="M259.869,343.826h-15.992c-2.21,0-3.998-1.787-3.998-3.998c0-2.209,1.788-3.998,3.998-3.998h15.992
		c2.209,0,3.998,1.789,3.998,3.998C263.867,342.039,262.078,343.826,259.869,343.826z"/>
	<path style="fill:#3A3847;" d="M491.752,359.818c-0.422,0-0.844-0.062-1.266-0.203l-23.988-7.996
		c-2.092-0.702-3.225-2.967-2.529-5.06c0.703-2.093,2.951-3.225,5.061-2.53l23.988,7.996c2.092,0.703,3.225,2.968,2.529,5.061
		C494.984,358.757,493.422,359.818,491.752,359.818z"/>
	<path style="fill:#3A3847;" d="M467.764,351.822c-2.209,0-3.998-1.788-3.998-3.998v-7.996c0-2.209,1.789-3.998,3.998-3.998
		c2.211,0,3.998,1.789,3.998,3.998v7.996C471.762,350.034,469.975,351.822,467.764,351.822z"/>
	<path style="fill:#3A3847;" d="M507.744,415.79c-2.211,0-3.998-1.788-3.998-3.998v-15.991c0-2.21,1.787-3.998,3.998-3.998
		c2.209,0,3.998,1.788,3.998,3.998v15.991C511.742,414.002,509.953,415.79,507.744,415.79z"/>
	<path style="fill:#3A3847;" d="M227.885,247.875c-2.21,0-3.998-1.788-3.998-3.998v-7.996c0-2.209,1.788-3.998,3.998-3.998
		s3.998,1.789,3.998,3.998v7.996C231.883,246.087,230.095,247.875,227.885,247.875z"/>
	<path style="fill:#3A3847;" d="M227.885,239.879c-2.21,0-3.998-1.788-3.998-3.998c0-11.021,8.968-19.989,19.99-19.989
		c2.209,0,3.998,1.788,3.998,3.998s-1.788,3.998-3.998,3.998c-6.614,0-11.994,5.38-11.994,11.994
		C231.883,238.091,230.095,239.879,227.885,239.879z"/>
	<path style="fill:#3A3847;" d="M211.893,159.919c-2.21,0-3.998-1.788-3.998-3.998s1.788-3.998,3.998-3.998
		c6.614,0,11.994-5.38,11.994-11.994c0-2.21,1.788-3.998,3.998-3.998s3.998,1.788,3.998,3.998
		C231.883,150.951,222.915,159.919,211.893,159.919z"/>
	<path style="fill:#3A3847;" d="M331.832,223.887h-87.955c-2.21,0-3.998-1.788-3.998-3.998c0-2.209,1.788-3.998,3.998-3.998h87.955
		c2.211,0,3.998,1.788,3.998,3.998C335.83,222.099,334.043,223.887,331.832,223.887z"/>
	<path style="fill:#3A3847;" d="M211.893,159.919h-79.959c-2.209,0-3.998-1.788-3.998-3.998s1.788-3.998,3.998-3.998h79.959
		c2.21,0,3.998,1.788,3.998,3.998C215.891,158.131,214.103,159.919,211.893,159.919z"/>
	<path style="fill:#3A3847;" d="M331.832,223.887c-2.209,0-3.998-1.788-3.998-3.998c0-2.209,1.789-3.998,3.998-3.998
		c6.615,0,11.994-5.38,11.994-11.994c0-6.427-5.037-11.697-11.463-11.998c-2.201-0.105-3.904-1.976-3.811-4.182
		c0.109-2.206,2-3.994,4.186-3.807c10.697,0.504,19.084,9.28,19.084,19.986C351.822,214.919,342.857,223.887,331.832,223.887z"/>
	<path style="fill:#3A3847;" d="M131.933,191.903c-11.022,0-19.99-8.968-19.99-19.99s8.968-19.99,19.99-19.99
		c2.21,0,3.998,1.788,3.998,3.998c0,2.209-1.788,3.998-3.998,3.998c-6.614,0-11.994,5.38-11.994,11.994s5.38,11.994,11.994,11.994
		c2.21,0,3.998,1.788,3.998,3.998S134.143,191.903,131.933,191.903z"/>
	<path style="fill:#3A3847;" d="M332.551,191.903H131.933c-2.209,0-3.998-1.788-3.998-3.998s1.788-3.998,3.998-3.998h199.898
		c2.211,0,4.357,1.788,4.357,3.998S334.762,191.903,332.551,191.903z"/>
	<path style="fill:#3A3847;" d="M227.885,143.928c-2.21,0-3.998-1.788-3.998-3.998v-15.992c0-2.21,1.788-3.998,3.998-3.998
		s3.998,1.788,3.998,3.998v15.992C231.883,142.14,230.095,143.928,227.885,143.928z"/>
	<path style="fill:#3A3847;" d="M227.885,119.939c-11.021,0-19.99-8.968-19.99-19.99c0-2.209,1.788-3.998,3.998-3.998
		s3.998,1.788,3.998,3.998c0,6.614,5.38,11.994,11.994,11.994s11.994-5.38,11.994-11.994c0-2.209,1.788-3.998,3.998-3.998
		c2.209,0,3.998,1.788,3.998,3.998C247.875,110.972,238.907,119.939,227.885,119.939z"/>
	<path style="fill:#3A3847;" d="M243.877,95.952h-31.984c-2.21,0-3.998-1.789-3.998-3.998c0-2.21,1.788-3.998,3.998-3.998h31.984
		c2.209,0,3.998,1.788,3.998,3.998C247.875,94.163,246.087,95.952,243.877,95.952z"/>
	<path style="fill:#3A3847;" d="M219.889,87.956c-2.21,0-3.998-1.788-3.998-3.998v-7.996c0-2.21,1.788-3.998,3.998-3.998
		s3.998,1.788,3.998,3.998v7.996C223.887,86.168,222.099,87.956,219.889,87.956z"/>
	<path style="fill:#3A3847;" d="M235.881,87.956c-2.21,0-3.998-1.788-3.998-3.998v-7.996c0-2.21,1.788-3.998,3.998-3.998
		s3.998,1.788,3.998,3.998v7.996C239.879,86.168,238.091,87.956,235.881,87.956z"/>
	<path style="fill:#3A3847;" d="M211.893,103.948c-2.21,0-3.998-1.788-3.998-3.998v-7.996c0-2.21,1.788-3.998,3.998-3.998
		s3.998,1.788,3.998,3.998v7.996C215.891,102.16,214.103,103.948,211.893,103.948z"/>
	<path style="fill:#3A3847;" d="M243.877,103.948c-2.21,0-3.998-1.788-3.998-3.998v-7.996c0-2.21,1.788-3.998,3.998-3.998
		c2.209,0,3.998,1.788,3.998,3.998v7.996C247.875,102.16,246.087,103.948,243.877,103.948z"/>
</g>
<g>
</g>
<g>
</g>
<g>
</g>
<g>
</g>
<g>
</g>
<g>
</g>
<g>
</g>
<g>
</g>
<g>
</g>
<g>
</g>
<g>
</g>
<g>
</g>
<g>
</g>
<g>
</g>
<g>
</g>
</svg>
