<svg height="512" viewBox="0 0 64 64" width="512" xmlns="http://www.w3.org/2000/svg"><g id="wireless"><circle cx="52" cy="25" fill="#ffde55" r="2"/><path d="m44.44 47.76a13.086 13.086 0 0 1 -.98 2.38l2.68 3.76-4.24 4.24-3.76-2.68a13.086 13.086 0 0 1 -2.38.98l-.76 4.56h-6l-.76-4.56a13.086 13.086 0 0 1 -2.38-.98l-3.76 2.68-4.24-4.24 2.68-3.76a13.086 13.086 0 0 1 -.98-2.38l-4.56-.76v-6l4.56-.76a16.936 16.936 0 0 1 .98-2.38l-2.68-3.76 4.24-4.24 3.76 2.68a13.086 13.086 0 0 1 2.38-.98l.76-4.56h6l.76 4.56a13.086 13.086 0 0 1 2.38.98l3.76-2.68 4.24 4.24-2.68 3.76a13.086 13.086 0 0 1 .98 2.38l4.56.76v6z" fill="#57a4ff"/><g fill="#ffde55"><path d="m37 42-5 11v-7h-5l5-11v7z"/><circle cx="32" cy="17" r="2"/><circle cx="12" cy="25" r="2"/></g><path d="m49.164 40.014-3.959-.66a14.017 14.017 0 0 0 -.581-1.408l2.332-3.264a1 1 0 0 0 -.106-1.288l-4.244-4.244a1 1 0 0 0 -1.288-.106l-3.264 2.332a14.017 14.017 0 0 0 -1.408-.581l-.66-3.959a1 1 0 0 0 -.986-.836h-6a1 1 0 0 0 -.986.836l-.66 3.959a13.926 13.926 0 0 0 -1.442.6c-.629-.492-1.639-1.212-3.23-2.349a1 1 0 0 0 -1.288.106l-4.244 4.242a1 1 0 0 0 -.106 1.288l2.343 3.28a13.129 13.129 0 0 0 -.573 1.389l-3.978.663a1 1 0 0 0 -.836.986v6a1 1 0 0 0 .836.986l3.959.66a14.111 14.111 0 0 0 .6 1.442c-.492.629-1.212 1.639-2.349 3.23a1 1 0 0 0 .106 1.288l4.244 4.244a1 1 0 0 0 1.288.106l3.264-2.332a14.017 14.017 0 0 0 1.408.581l.66 3.959a1 1 0 0 0 .984.836h6a1 1 0 0 0 .986-.836l.66-3.959a14.017 14.017 0 0 0 1.408-.581l3.264 2.332a1 1 0 0 0 1.288-.106l4.244-4.244a1 1 0 0 0 .106-1.288l-2.332-3.265a14.2 14.2 0 0 0 .581-1.407l3.959-.66a1 1 0 0 0 .836-.986v-6a1 1 0 0 0 -.836-.986zm-1.164 6.139-3.722.62a1 1 0 0 0 -.793.7 11.955 11.955 0 0 1 -.909 2.2 1 1 0 0 0 .069 1.054l2.191 3.068-3.045 3.045-3.068-2.191a.993.993 0 0 0 -1.054-.068 11.93 11.93 0 0 1 -2.2.908 1 1 0 0 0 -.7.793l-.616 3.718h-4.306l-.62-3.722a1 1 0 0 0 -.7-.793 11.93 11.93 0 0 1 -2.2-.908.993.993 0 0 0 -1.054.068l-3.068 2.191-3.046-3.045 2.187-3.06a1 1 0 0 0 .074-1.062 11.955 11.955 0 0 1 -.909-2.2 1 1 0 0 0 -.793-.7l-3.718-.616v-4.306l3.722-.62a1 1 0 0 0 .777-.651 16.622 16.622 0 0 1 .946-2.289 1 1 0 0 0 -.09-1.01l-2.191-3.068 3.045-3.046 3.06 2.187a1 1 0 0 0 1.062.073 11.93 11.93 0 0 1 2.2-.908 1 1 0 0 0 .7-.793l.616-3.722h4.306l.62 3.722a1 1 0 0 0 .7.793 11.93 11.93 0 0 1 2.2.908 1 1 0 0 0 1.054-.068l3.068-2.191 3.045 3.045-2.191 3.068a1 1 0 0 0 -.068 1.054 11.93 11.93 0 0 1 .908 2.2 1 1 0 0 0 .793.7l3.722.62z"/><path d="m37 41h-4v-6a1 1 0 0 0 -1.91-.414l-5 11a1 1 0 0 0 .91 1.414h4v6a1 1 0 0 0 .788.978 1.025 1.025 0 0 0 .212.022 1 1 0 0 0 .91-.586l5-11a1 1 0 0 0 -.91-1.414zm-4 7.384v-2.384a1 1 0 0 0 -1-1h-3.447l2.447-5.384v2.384a1 1 0 0 0 1 1h3.447z"/><path d="m31 30h2v2h-2z"/><path d="m32 4a12.95 12.95 0 0 1 9.194 3.809l1.412-1.418a15 15 0 0 0 -21.212 0l1.412 1.418a12.95 12.95 0 0 1 9.194-3.809z"/><path d="m39.777 9.223a10.994 10.994 0 0 0 -15.554 0l1.414 1.414a9 9 0 0 1 12.726 0z"/><path d="m36.95 12.056a6.987 6.987 0 0 0 -9.9 0l1.42 1.408a4.988 4.988 0 0 1 7.06 0z"/><path d="m35 17a3 3 0 1 0 -3 3 3 3 0 0 0 3-3zm-3 1a1 1 0 1 1 1-1 1 1 0 0 1 -1 1z"/><path d="m52 10a14.942 14.942 0 0 0 -10.606 4.391l1.412 1.418a13 13 0 0 1 18.388 0l1.412-1.418a14.942 14.942 0 0 0 -10.606-4.391z"/><path d="m44.223 17.223 1.414 1.414a9 9 0 0 1 12.726 0l1.414-1.414a10.994 10.994 0 0 0 -15.554 0z"/><path d="m47.05 20.056 1.42 1.408a4.988 4.988 0 0 1 7.06 0l1.42-1.408a6.987 6.987 0 0 0 -9.9 0z"/><path d="m52 22a3 3 0 1 0 3 3 3 3 0 0 0 -3-3zm0 4a1 1 0 1 1 1-1 1 1 0 0 1 -1 1z"/><path d="m21.808 33.808h2v2h-2z" transform="matrix(.707 -.707 .707 .707 -17.933 26.322)"/><path d="m18 43h2v2h-2z"/><path d="m21.808 52.192h2v2h-2z" transform="matrix(.707 -.707 .707 .707 -30.932 31.707)"/><path d="m31 56h2v2h-2z"/><path d="m40.192 52.192h2v2h-2z" transform="matrix(.707 -.707 .707 .707 -25.548 44.707)"/><path d="m44 43h2v2h-2z"/><path d="m40.192 33.808h2v2h-2z" transform="matrix(.707 -.707 .707 .707 -12.548 39.322)"/><path d="m31 22h2v2h-2z"/><path d="m51 30h2v2h-2z"/><path d="m51 34h2v4h-2z"/><path d="m21.194 15.809 1.412-1.418a15 15 0 0 0 -21.212 0l1.412 1.418a13 13 0 0 1 18.388 0z"/><path d="m18.363 18.637 1.414-1.414a10.994 10.994 0 0 0 -15.554 0l1.414 1.414a9 9 0 0 1 12.726 0z"/><path d="m15.53 21.464 1.42-1.408a6.987 6.987 0 0 0 -9.9 0l1.42 1.408a4.988 4.988 0 0 1 7.06 0z"/><path d="m15 25a3 3 0 1 0 -3 3 3 3 0 0 0 3-3zm-4 0a1 1 0 1 1 1 1 1 1 0 0 1 -1-1z"/><path d="m11 30h2v2h-2z"/><path d="m11 34h2v4h-2z"/></g></svg>