<svg height="508pt" viewBox="0 -52 508.00069 508" width="508pt" xmlns="http://www.w3.org/2000/svg"><path d="m500.308594 324.410156v31.199219c.003906 22.410156-18.160156 40.574219-40.566406 40.570313h-411.480469c-22.410157.003906-40.574219-18.160157-40.570313-40.570313v-31.199219h186.789063l8.238281 8.941406c7.683594 8.332032 18.5 13.070313 29.832031 13.070313h42.898438c11.332031 0 22.148437-4.738281 29.832031-13.070313l8.238281-8.941406zm0 0" fill="#fedb41"/><path d="m478.878906 324.359375v.050781h-165.359375l-8.238281 8.941406c-7.683594 8.332032-18.5 13.070313-29.832031 13.070313h-42.898438c-11.332031 0-22.148437-4.738281-29.832031-13.070313l-8.238281-8.941406h-165.359375v-276.019531c0-22.40625 18.164062-40.570313 40.570312-40.570313h368.617188c22.40625 0 40.570312 18.164063 40.570312 40.570313zm-30.039062-27.300781v-256.328125h-389.679688v256.328125zm0 0" fill="#00acea"/><path d="m407.039062 158.082031c10.710938-.488281 19.03125-9.511719 18.648438-20.222656-.378906-10.714844-9.3125-19.125-20.03125-18.855469-10.71875.273438-19.21875 9.125-19.054688 19.84375.164063 10.71875 8.929688 19.308594 19.648438 19.253906.269531 0 .53125-.011718.789062-.019531zm41.800782-117.351562v256.328125h-389.679688v-256.328125zm-220.800782 131.050781c.035157-40.300781-32.609374-72.996094-72.910156-73.03125-40.296875-.03125-72.996094 32.609375-73.027344 72.910156-.035156 40.300782 32.609376 72.996094 72.910157 73.03125 40.296875.027344 72.992187-32.613281 73.027343-72.910156zm0 0" fill="#00efd1"/><path d="m407.039062 158.082031c-.257812.007813-.519531.019531-.789062.019531-10.832031.054688-19.691406-8.621093-19.855469-19.453124-.167969-10.832032 8.421875-19.777344 19.25-20.050782 10.832031-.273437 19.859375 8.222656 20.242188 19.050782.382812 10.828124-8.023438 19.941406-18.847657 20.433593zm0 0" fill="#fedb41"/><path d="m155.121094 98.75c40.300781.027344 72.945312 32.71875 72.917968 73.019531-.027343 40.300781-32.71875 72.949219-73.019531 72.921875s-72.945312-32.722656-72.917969-73.019531c.03125-40.300781 32.71875-72.945313 73.019532-72.921875zm36.71875 83.660156.011718-21.320312-26.121093-.019532.019531-26.121093-21.320312-.007813-.019532 26.109375-26.109375-.019531-.019531 21.328125 26.117188.011719-.019532 26.121094 21.320313.019531.019531-26.121094zm0 0" fill="#fedb41"/><path d="m191.851562 161.089844-.011718 21.320312-26.121094-.019531-.019531 26.121094-21.320313-.019531.019532-26.121094-26.117188-.011719.019531-21.328125 26.109375.019531.019532-26.109375 21.320312.007813-.019531 26.121093zm0 0" fill="#00acea"/><g fill="#083863"><path d="m457 41c0-4.417969-3.582031-8-8-8h-390c-4.417969 0-8 3.582031-8 8v256c0 4.417969 3.582031 8 8 8h390c4.417969 0 8-3.582031 8-8zm-16 248h-374v-240h374zm0 0"/><path d="m500.308594 316h-13.308594v-267.609375c-.101562-26.800781-21.890625-48.453125-48.691406-48.390625h-368.617188c-26.800781-.0625-48.589844 21.589844-48.691406 48.390625v267.609375h-13.308594c-4.421875 0-7.691406 3.992188-7.691406 8.410156v31.199219c-.046875 12.828125 5.015625 25.144531 14.074219 34.226563 9.058593 9.082031 21.359375 14.179687 34.1875 14.164062h411.480469c12.824218.015625 25.128906-5.082031 34.183593-14.164062 9.058594-9.082032 14.125-21.398438 14.074219-34.226563v-31.199219c0-4.417968-3.273438-8.410156-7.691406-8.410156zm-463.308594-267.609375c.09375-17.96875 14.722656-32.464844 32.691406-32.390625h368.617188c17.96875-.074219 32.601562 14.421875 32.691406 32.390625v267.609375h-157.480469c-2.261719.078125-4.386719 1.085938-5.882812 2.785156l-8.238281 8.832032c-6.183594 6.648437-14.867188 10.414062-23.949219 10.382812h-42.898438c-9.070312.070312-17.753906-3.660156-23.949219-10.28125l-8.242187-9.039062c-1.503906-1.671876-3.632813-2.640626-5.878906-2.679688h-157.480469zm455 307.21875c.054688 8.585937-3.324219 16.835937-9.382812 22.917969-6.054688 6.082031-14.292969 9.492187-22.875 9.472656h-411.480469c-8.585938.019531-16.820313-3.390625-22.878907-9.472656-6.058593-6.082032-9.4375-14.332032-9.382812-22.917969v-23.609375h174.972656l5.867188 6.359375c9.203125 9.957031 22.148437 15.628906 35.710937 15.640625h42.898438c13.5625-.011719 26.507812-5.683594 35.714843-15.640625l5.863282-6.359375h174.972656zm0 0"/><path d="m254.90625 178.351562c.679688 3.824219 3.992188 6.621094 7.875 6.648438h36.21875v24.820312c0 32.03125 25.96875 58 58 58s58-25.96875 58-58v-45.140624c13.007812-4.347657 20.867188-17.566407 18.472656-31.070313-2.398437-13.503906-14.328125-23.210937-28.035156-22.816406s-25.058594 10.777343-26.671875 24.394531c-1.613281 13.621094 6.996094 26.367188 20.234375 29.953125v44.679687c0 23.195313-18.804688 42-42 42s-42-18.804687-42-42v-24.820312h36.609375c3.882813-.027344 7.195313-2.824219 7.875-6.644531l15.730469-87.3125c.417968-2.273438-.21875-4.617188-1.738282-6.363281-1.539062-1.765626-3.792968-2.75-6.136718-2.679688h-14.339844v-4c0-4.417969-3.582031-8-8-8s-8 3.582031-8 8v20c0 4.417969 3.582031 8 8 8s8-3.582031 8-8h4.769531l-12.847656 71h-75.453125l-12.839844-71h5.371094c0 4.417969 3.582031 8 8 8s8-3.582031 8-8v-20c0-4.417969-3.582031-8-8-8s-8 3.582031-8 8v4h-14.941406c-2.347656-.09375-4.609375.890625-6.144532 2.667969-1.53125 1.78125-2.167968 4.167969-1.726562 6.476562zm139.695312-39.902343c-.003906-6.375 5.117188-11.566407 11.492188-11.652344s11.636719 4.96875 11.800781 11.34375c.167969 6.371094-4.816406 11.695313-11.1875 11.945313-.148437.007812-.300781.015624-.457031.015624-6.429688-.007812-11.640625-5.21875-11.648438-11.652343zm0 0"/><path d="m155 253h.0625c44.734375.015625 81.011719-36.234375 81.03125-80.96875.015625-44.734375-36.238281-81.015625-80.972656-81.03125h-.058594c-44.734375-.015625-81.015625 36.234375-81.03125 80.96875s36.234375 81.015625 80.96875 81.03125zm.0625-146h.046875c35.898437.015625 64.988281 29.125 64.976563 65.023438-.011719 35.898437-29.125 64.992187-65.023438 64.976562h-.050781c-35.898438-.011719-64.988281-29.125-64.976563-65.023438.015625-35.898437 29.128906-64.988281 65.027344-64.976562zm0 0"/><path d="m118.277344 190.359375 18.117187.007813-.015625 18.117187c-.019531 4.464844 3.53125 8.132813 7.996094 8.25l21.316406.265625h.007813c4.460937-.230469 7.96875-3.894531 8-8.359375l.015625-18.386719 18.117187-.253906h.007813c2.09375.09375 4.136718-.675781 5.648437-2.128906s2.363281-3.460938 2.351563-5.558594l.011718-21.269531c0-2.117188-.84375-4.152344-2.34375-5.648438-1.5-1.496093-3.53125-2.335937-5.652343-2.328125h-18.117188l.011719-18.113281c.007812-2.121094-.835938-4.160156-2.335938-5.65625-1.503906-1.496094-3.542968-2.332031-5.664062-2.316406l-21.320312.019531c-2.117188-.003906-4.148438.832031-5.652344 2.324219-1.5 1.496093-2.34375 3.523437-2.347656 5.640625l-.011719 18.082031-18.113281-.046875h-.003907c-4.417969.007812-7.996093 3.589844-8 8.007812l-.019531 21.335938c-.007812 4.425781 3.578125 8.011719 8 8.015625zm8.015625-21.347656 18.105469-.011719h.007812c2.117188.007812 4.152344-.832031 5.652344-2.324219 1.5-1.496093 2.34375-3.527343 2.347656-5.644531l.015625-18.101562 5.320313.011718-.015626 18.117188c-.003906 4.421875 3.574219 8.007812 7.992188 8.011718l18.125.011719v5.128907l-18.117188-.210938h-.007812c-4.453125.09375-8.007812 3.734375-8 8.191406l-.011719 18.214844-5.320312.042969.011719-18.101563c0-2.117187-.839844-4.152344-2.34375-5.652344-1.5-1.496093-3.535157-2.335937-5.65625-2.332031l-18.113282-.019531zm0 0"/></g></svg>