<svg id="Capa_1" enable-background="new 0 0 512.034 512.034" height="512" viewBox="0 0 512.034 512.034" width="512" xmlns="http://www.w3.org/2000/svg"><path d="m427.25 219.526c-.061 0-.122 0-.183.001-1.65.014-3.119-.954-3.762-2.458-5.539-12.95-18.488-22.039-33.59-22.039s-28.051 9.089-33.59 22.039c-.643 1.504-2.112 2.471-3.762 2.458-.061 0-.122-.001-.183-.001-8.849 0-16.568 4.732-20.758 11.769 13.65 1.229 25.126 9.89 30.251 21.873.644 1.504 2.112 2.471 3.762 2.458.061 0 .122-.001.183-.001 8.779 0 16.441 4.66 20.654 11.603h40.435c13.509 0 24.892-10.943 24.635-24.312-.248-12.96-10.94-23.39-24.092-23.39z" fill="#b1dbfc"/><path d="m364.677 242.916c.248-12.96 10.94-23.39 24.092-23.39h.183c1.651.014 3.119-.954 3.762-2.458 3.093-7.23 8.498-13.252 15.296-17.165-5.377-3.096-11.624-4.874-18.294-4.874-15.102 0-28.051 9.089-33.59 22.039-.643 1.504-2.112 2.471-3.762 2.458-.061 0-.122 0-.183 0-8.849 0-16.568 4.732-20.758 11.769 13.65 1.229 25.126 9.89 30.251 21.873.643 1.504 2.112 2.471 3.762 2.458h.183c.922 0 1.829.063 2.723.163-2.391-3.741-3.756-8.155-3.665-12.873z" fill="#8bcaff"/><path d="m366.297 255.145c-.061 0-.121 0-.181.001-1.637.013-3.094-.946-3.732-2.439-5.495-12.847-18.342-21.864-33.324-21.864s-27.829 9.017-33.324 21.864c-.638 1.492-2.095 2.452-3.732 2.439-.06-.001-.121-.001-.181-.001-4.084 0-7.928 2.014-11.291 3.801h17.554c4.95 0 7.962 4.012 7.962 8.962v34.561h59.712c13.403 0 24.694-10.856 24.44-24.12-.247-12.857-10.854-23.204-23.903-23.204z" fill="#dfebfa"/><path d="m308.051 278.349c.247-12.857 10.853-23.204 23.902-23.204h.181c1.637.013 3.094-.946 3.732-2.438 2.771-6.479 7.416-11.979 13.258-15.845-5.741-3.799-12.639-6.019-20.066-6.019-14.982 0-27.829 9.016-33.323 21.864-.638 1.492-2.095 2.452-3.732 2.438-.061 0-.121 0-.181 0-4.084 0-7.928 2.014-11.291 3.801h17.554c4.949 0 7.962 4.012 7.962 8.962v34.562h26.445c-13.403-.001-24.695-10.857-24.441-24.121z" fill="#b1dbfc"/><path d="m153.431 338.866h-44.945c-3.797 0-6.876 3.078-6.876 6.876v41.501h58.697v-41.501c-.001-3.797-3.079-6.876-6.876-6.876z" fill="#6c7ed6"/><path d="m138.486 338.866h-30c-3.797 0-6.876 3.078-6.876 6.876v41.501h30v-41.501c0-3.797 3.078-6.876 6.876-6.876z" fill="#4f67d2"/><path d="m183.779 385.243h-104.641c-3.797 0-6.876 3.078-6.876 6.876v112.497h118.393v-112.497c-.001-3.797-3.079-6.876-6.876-6.876z" fill="#4f67d2"/><path d="m109.138 385.243h-30c-3.797 0-6.876 3.078-6.876 6.876v112.497h30v-112.497c0-3.797 3.078-6.876 6.876-6.876z" fill="#324ccc"/><path d="m378.868 398.207-26.067-28.76c-1.565-1.728-3.788-2.712-6.119-2.712h-32.376c-4.561 0-8.258 3.697-8.258 8.258v129.624h74.96v-100.864c-.001-2.051-.763-4.027-2.14-5.546z" fill="#fee55a"/><path d="m344.305 366.734h-30c-4.561 0-8.258 3.697-8.258 8.258v129.624h30v-129.624c0-4.561 3.697-8.258 8.258-8.258z" fill="#ffd301"/><path d="m298.085 257.946h-99.469c-4.949 0-8.962 4.012-8.962 8.962v237.708h117.393v-237.708c0-4.95-4.012-8.962-8.962-8.962z" fill="#dfebfa"/><path d="m228.616 257.946h-30c-4.949 0-8.962 4.012-8.962 8.962v237.708h30v-237.708c0-4.95 4.013-8.962 8.962-8.962z" fill="#b1dbfc"/><path d="m341.66 78.611c-24.924-24.924-58.061-38.65-93.309-38.65s-68.385 13.726-93.309 38.65c-6.315 6.315-16.553 6.315-22.868 0s-6.315-16.553 0-22.868c31.032-31.033 72.292-48.122 116.177-48.122s85.145 17.09 116.177 48.122c6.315 6.315 6.315 16.554 0 22.868-6.31 6.31-16.548 6.321-22.868 0z" fill="#60b8fe"/><path d="m291.851 128.421c-23.986-23.986-63.014-23.985-87-.001-6.314 6.315-16.553 6.315-22.868 0s-6.315-16.553 0-22.868c36.595-36.596 96.14-36.596 132.736 0 6.315 6.314 6.315 16.553.001 22.868-6.316 6.316-16.555 6.315-22.869.001z" fill="#60b8fe"/><path d="m248.352 183.155c-8.922 0-16.17-7.276-16.17-16.17 0-9.603 8.414-17.053 17.755-16.084 7.831.64 14.586 7.493 14.586 16.084-.001 8.863-7.209 16.17-16.171 16.17z" fill="#60b8fe"/><path d="m364.527 62.442c-6.309 6.309-16.547 6.321-22.868 0-24.924-24.924-58.062-38.65-93.309-38.65s-68.385 13.726-93.309 38.65c-6.315 6.315-16.553 6.315-22.868 0-1.022-1.022-1.861-2.155-2.552-3.349-3.579 6.185-2.74 14.226 2.552 19.519 6.315 6.315 16.553 6.315 22.868 0 24.924-24.924 58.062-38.65 93.309-38.65s68.385 13.726 93.309 38.65c6.321 6.321 16.559 6.309 22.868 0 5.293-5.292 6.132-13.334 2.552-19.519-.69 1.194-1.529 2.327-2.552 3.349z" fill="#23a8fe"/><path d="m314.719 112.251c-6.315 6.315-16.554 6.315-22.868 0-23.986-23.986-63.014-23.985-87 0-6.314 6.315-16.553 6.315-22.868 0-1.022-1.022-1.861-2.155-2.552-3.349-3.579 6.185-2.74 14.226 2.552 19.519 6.315 6.315 16.554 6.315 22.868 0 23.986-23.985 63.014-23.985 87 0 6.314 6.314 16.553 6.315 22.868 0 5.292-5.293 6.131-13.334 2.552-19.519-.691 1.194-1.53 2.327-2.552 3.349z" fill="#23a8fe"/><path d="m248.352 166.986c-5.972 0-11.181-3.268-13.981-8.091-1.383 2.369-2.189 5.126-2.189 8.09 0 8.894 7.248 16.17 16.17 16.17 8.962 0 16.17-7.307 16.17-16.17 0-2.965-.819-5.714-2.195-8.081-2.794 4.81-7.986 8.082-13.975 8.082z" fill="#23a8fe"/><g fill="#1d1d1b"><path d="m212.663 298.812v169.588c0 4.142 3.357 7.5 7.5 7.5s7.5-3.358 7.5-7.5v-169.588c0-4.142-3.357-7.5-7.5-7.5s-7.5 3.358-7.5 7.5z"/><path d="m240.488 298.812v169.588c0 4.142 3.357 7.5 7.5 7.5s7.5-3.358 7.5-7.5v-169.588c0-4.142-3.357-7.5-7.5-7.5s-7.5 3.358-7.5 7.5z"/><path d="m268.314 298.812v169.588c0 4.142 3.357 7.5 7.5 7.5s7.5-3.358 7.5-7.5v-169.588c0-4.142-3.357-7.5-7.5-7.5s-7.5 3.358-7.5 7.5z"/><path d="m61.05 512.034h332.214c4.143 0 7.5-3.358 7.5-7.5s-3.357-7.5-7.5-7.5h-5.119v-93.363c0-3.92-1.45-7.678-4.083-10.583l-26.066-28.76c-2.98-3.29-7.236-5.176-11.676-5.176h-31.377c-.256 0-.505.026-.758.038v-10.038c0-4.142-3.357-7.5-7.5-7.5s-7.5 3.358-7.5 7.5v147.881h-102.393c0-10.069 0-220.105 0-230.208 0-.806.656-1.462 1.462-1.462h99.469c.806 0 1.462.656 1.462 1.462v35.562 11.765c0 4.142 3.357 7.5 7.5 7.5s7.5-3.358 7.5-7.5v-4.265h51.211c17.304 0 32.28-14.026 31.939-31.764-.026-1.374-.151-2.724-.354-4.05h29.559c8.609 0 17.011-3.531 23.05-9.687 5.891-6.005 9.048-13.845 8.89-22.076-.31-16.17-13.295-29.448-29.357-30.495-7.291-14.875-22.47-24.369-39.28-24.369s-31.989 9.493-39.281 24.369c-8.706.572-16.81 4.784-22.298 11.46-16.636.163-31.616 9.606-38.845 24.353-3.79.246-7.516 1.18-10.962 2.734h-22.966v-41.919c0-4.142-3.357-7.5-7.5-7.5s-7.5 3.358-7.5 7.5v41.919h-42.234c-9.077 0-16.462 7.385-16.462 16.462v110.835h-14.349v-32.001c0-7.927-6.448-14.375-14.375-14.375h-44.945c-7.927 0-14.376 6.449-14.376 14.375v32.001h-14.974c-7.927 0-14.376 6.449-14.376 14.376v104.996h-3.35c-4.143 0-7.5 3.358-7.5 7.5s3.357 7.503 7.5 7.503zm291.672-285.283h.098c4.624 0 8.774-2.735 10.593-6.989 4.499-10.518 14.873-17.314 26.429-17.314 11.557 0 21.93 6.796 26.429 17.317 1.833 4.282 6.021 7.009 10.688 6.985h.121c8.877 0 16.235 7.109 16.402 15.849.081 4.171-1.553 8.178-4.6 11.284-3.236 3.299-7.734 5.191-12.342 5.191h-36.247c-5.502-6.758-13.507-10.892-22.315-11.447-4.265-8.698-11.462-15.866-20.365-20.099 1.755-.559 3.411-.777 5.109-.777zm2.404 28.826c1.758 4.108 5.741 6.987 10.809 6.987 8.837 0 16.235 7.081 16.402 15.848.177 9.109-7.794 16.476-16.941 16.476h-51.211v-28.062c0-6.527-3.948-12.506-9.909-15.101 12.074-19.381 41.702-17.534 50.85 3.852zm-40.941 119.334c0-.418.34-.758.758-.758h31.377c.213 0 .417.09.562.249l26.067 28.76c.127.14.196.32.196.509v9.401h-29.48c-4.143 0-7.5 3.358-7.5 7.5s3.357 7.5 7.5 7.5h29.48v13.845h-29.48c-4.143 0-7.5 3.358-7.5 7.5s3.357 7.5 7.5 7.5h29.48v13.845h-29.48c-4.143 0-7.5 3.358-7.5 7.5s3.357 7.5 7.5 7.5h29.48v11.272h-58.96zm-205.438-28.626h43.696v31.377h-43.696zm-29.347 46.377h80.544 21.849v104.372h-102.393z"/><path d="m163.878 413.072h-66.565c-4.143 0-7.5 3.358-7.5 7.5s3.357 7.5 7.5 7.5h66.565c4.143 0 7.5-3.358 7.5-7.5s-3.357-7.5-7.5-7.5z"/><path d="m163.878 441.917h-66.565c-4.143 0-7.5 3.358-7.5 7.5s3.357 7.5 7.5 7.5h66.565c4.143 0 7.5-3.358 7.5-7.5s-3.357-7.5-7.5-7.5z"/><path d="m163.878 470.762h-66.565c-4.143 0-7.5 3.358-7.5 7.5s3.357 7.5 7.5 7.5h66.565c4.143 0 7.5-3.358 7.5-7.5s-3.357-7.5-7.5-7.5z"/><path d="m159.984 83.834c48.64-48.641 127.366-48.645 176.01 0h.001c9.23 9.229 24.246 9.228 33.475 0s9.229-24.245 0-33.475c-67.141-67.142-175.813-67.148-242.962 0-9.228 9.229-9.228 24.246 0 33.475 9.229 9.228 24.245 9.229 33.476 0zm-22.87-22.869c29.616-29.615 68.992-45.925 110.874-45.925 41.884 0 81.259 16.31 110.873 45.925 3.381 3.381 3.381 8.881.001 12.261-3.381 3.38-8.882 3.381-12.263 0h.001c-54.505-54.504-142.716-54.508-197.225 0-3.381 3.381-8.883 3.381-12.262 0-3.379-3.379-3.379-8.88.001-12.261z"/><path d="m224.319 166.904c0 13.052 10.618 23.67 23.67 23.67s23.67-10.618 23.67-23.67c0-12.2-9.391-22.529-21.394-23.552-13.76-1.376-25.946 9.572-25.946 23.552zm32.34 0c0 4.781-3.89 8.67-8.67 8.67s-8.67-3.889-8.67-8.67c0-4.916 4.096-8.667 8.636-8.667 4.825-.001 8.704 3.883 8.704 8.667z"/><path d="m319.66 133.642c9.229-9.23 9.228-24.247-.001-33.474-14.452-14.453-32.704-24.09-52.783-27.872-4.066-.767-7.992 1.912-8.758 5.982-.767 4.071 1.911 7.992 5.982 8.759 17.099 3.22 32.644 11.429 44.952 23.738 3.381 3.38 3.381 8.88.001 12.261-3.382 3.38-8.881 3.381-12.263 0-26.909-26.909-70.695-26.91-97.606 0-3.389 3.389-8.871 3.388-12.261 0-3.38-3.381-3.381-8.882 0-12.262 12.308-12.309 27.853-20.517 44.953-23.738 4.07-.767 6.748-4.688 5.981-8.759-.766-4.071-4.686-6.745-8.759-5.982-20.079 3.782-38.331 13.42-52.783 27.873-9.228 9.229-9.228 24.245 0 33.475 9.252 9.251 24.223 9.254 33.475 0 21.063-21.06 55.333-21.061 76.394 0 9.231 9.228 24.246 9.229 33.476-.001z"/></g></svg>