<svg id="Capa_1" enable-background="new 0 0 512 512" height="512" viewBox="0 0 512 512" width="512" xmlns="http://www.w3.org/2000/svg"><g><path d="m473.808 211.5-123.687-104.158c-26.998-22.735-59.619-37.604-94.121-43.264l-75 192.422z" fill="#012631"/><path d="m224.515 61.5h-217.811l249.294 195 .002-45v-147.422c-10.36-1.699-20.887-2.578-31.485-2.578z" fill="#014859"/><path d="m510.128 256.5c-3.027-11.756-9.682-22.568-19.569-30.895l-16.75-14.105h-217.809l-45 105z" fill="#d3dee1"/><path d="m256 211.501c-.002-.001-123.689-104.159-123.689-104.159-35.105-29.562-79.712-45.842-125.607-45.842h-6.704v195l256 60z" fill="#eff7f9"/><g fill="#9da9ad"><path d="m451.777 375.5h30v60h-30z"/><path d="m391.556 375.5h30v60h-30z"/><path d="m331.333 375.5h30v60h-30z"/><path d="m271.111 375.5h30v60h-30z"/></g><path d="m210.889 375.5h30v60h-30z" fill="#b7c5c8"/><path d="m150.667 375.5h30v60h-30z" fill="#b7c5c8"/><path d="m90.444 375.5h30v60h-30z" fill="#b7c5c8"/><path d="m30.222 375.5h30v60h-30z" fill="#b7c5c8"/><path d="m512 450.5v-30h-256l-20 15 20 15z" fill="#4f575b"/><path d="m0 420.5h256v30h-256z" fill="#697276"/><path d="m512 360.5h-256l-20 15 20 15h256z" fill="#4f575b"/><path d="m0 360.5h256v30h-256z" fill="#697276"/><path d="m256 256.5-45 37.5 45 37.5h195.91c25.498 0 47.622-15.477 56.363-39.429 4.31-11.81 4.798-24.137 1.854-35.571z" fill="#00cffa"/><path d="m0 256.5h256v75h-256z" fill="#5ce3ff"/></g></svg>