<?xml version="1.0" encoding="iso-8859-1"?>
<!-- Generator: Adobe Illustrator 19.0.0, SVG Export Plug-In . SVG Version: 6.00 Build 0)  -->
<svg version="1.1" id="Layer_1" xmlns="http://www.w3.org/2000/svg" xmlns:xlink="http://www.w3.org/1999/xlink" x="0px" y="0px"
	 viewBox="0 0 512 512" style="enable-background:new 0 0 512 512;" xml:space="preserve">
<path style="fill:#757982;" d="M495.304,200.348h-77.913c-9.217,0-16.696-7.473-16.696-16.696V116.87
	c0-9.223,7.479-16.696,16.696-16.696h77.913c9.217,0,16.696,7.473,16.696,16.696v66.783
	C512,192.875,504.521,200.348,495.304,200.348z"/>
<path style="fill:#7F838C;" d="M228.174,461.913H50.087C22.468,461.913,0,439.445,0,411.826c0-27.619,22.468-50.087,50.087-50.087
	h116.87c9.206,0,16.696-7.49,16.696-16.696v-33.391c0-9.223,7.479-16.696,16.696-16.696s16.696,7.473,16.696,16.696v33.391
	c0,27.619-22.468,50.087-50.087,50.087H50.087c-9.206,0-16.696,7.49-16.696,16.696c0,9.206,7.49,16.696,16.696,16.696h178.087
	c9.217,0,16.696,7.473,16.696,16.696S237.391,461.913,228.174,461.913z"/>
<path style="fill:#54CCFF;" d="M350.609,0H83.478C37.398,0,0,37.398,0,83.478V244.87c0,40.403,28.718,74.017,66.783,81.809
	c5.343,1.113,11.019,1.67,16.696,1.67h267.13c5.677,0,11.353-0.557,16.696-1.67c38.065-7.791,66.783-41.405,66.783-81.809V83.478
	C434.087,37.398,396.689,0,350.609,0z"/>
<path style="fill:#4BB8E6;" d="M350.609,0H217.043v328.348h133.565c5.677,0,11.353-0.557,16.696-1.67
	c38.065-7.791,66.783-41.405,66.783-81.809V83.478C434.087,37.398,396.689,0,350.609,0z"/>
<path style="fill:#C4CAD9;" d="M367.304,122.435v204.243c-5.343,1.113-11.019,1.67-16.696,1.67H83.478
	c-5.677,0-11.353-0.557-16.696-1.67V122.435H367.304z"/>
<path style="fill:#B8BFCC;" d="M217.043,328.348h133.565c5.677,0,11.353-0.557,16.696-1.67V122.435H217.043V328.348z"/>
<path style="fill:#E6EEFF;" d="M317.217,189.217H116.87c-27.619,0-50.087-22.468-50.087-50.087v-22.26
	c0-27.619,22.468-50.087,50.087-50.087h200.348c27.619,0,50.087,22.468,50.087,50.087v22.261
	C367.304,166.749,344.836,189.217,317.217,189.217z"/>
<path style="fill:#DAE2F2;" d="M317.217,66.783H217.043v122.435h100.174c27.619,0,50.087-22.468,50.087-50.087V116.87
	C367.304,89.25,344.836,66.783,317.217,66.783z"/>
<path style="fill:#5C5F66;" d="M445.217,512c-46.076,0-70.815-4.375-94.728-8.603c-23.544-4.164-45.783-8.093-88.924-8.093
	c-27.619,0-50.087-22.468-50.087-50.087s22.468-50.087,50.087-50.087c43.142,0,65.38-3.929,88.924-8.093
	c23.913-4.227,48.652-8.603,94.728-8.603c36.826,0,66.783,29.956,66.783,66.783S482.044,512,445.217,512z"/>
<path style="fill:#979CA7;" d="M495.304,233.739c-9.217,0-16.696-7.473-16.696-16.696V83.478c0-9.223,7.479-16.696,16.696-16.696
	c9.217,0,16.696,7.473,16.696,16.696v133.565C512,226.266,504.521,233.739,495.304,233.739z"/>
<g>
	<circle style="fill:#5C5F66;" cx="150.26" cy="239.3" r="16.696"/>
	<circle style="fill:#5C5F66;" cx="217.04" cy="239.3" r="16.696"/>
</g>
<g>
	<circle style="fill:#53565C;" cx="283.83" cy="239.3" r="16.696"/>
	<path style="fill:#53565C;" d="M233.739,239.304c0-9.22-7.475-16.696-16.696-16.696V256
		C226.264,256,233.739,248.525,233.739,239.304z"/>
</g>
<g>
</g>
<g>
</g>
<g>
</g>
<g>
</g>
<g>
</g>
<g>
</g>
<g>
</g>
<g>
</g>
<g>
</g>
<g>
</g>
<g>
</g>
<g>
</g>
<g>
</g>
<g>
</g>
<g>
</g>
</svg>
