<svg height="512pt" viewBox="0 -21 512 512" width="512pt" xmlns="http://www.w3.org/2000/svg"><path d="m386.425781 130.445312c0-72.042968-58.394531-130.445312-130.425781-130.445312s-130.425781 58.402344-130.425781 130.445312c0 72.046876 58.394531 130.449219 130.425781 130.449219s130.425781-58.402343 130.425781-130.449219zm0 0" fill="#ffe046"/><path d="m256 0c-5.761719 0-11.433594.378906-16.996094 1.101562 64 8.332032 113.425782 63.0625 113.425782 129.34375s-49.425782 121.011719-113.425782 129.347657c5.5625.722656 11.234375 1.101562 16.996094 1.101562 72.03125 0 130.425781-58.402343 130.425781-130.449219 0-72.042968-58.394531-130.445312-130.425781-130.445312zm0 0" fill="#ffd508"/><path d="m211.300781 180.554688c-.015625 0-.023437 0-.039062 0-3.046875-.015626-5.804688-1.820313-7.035157-4.613282l-34.675781-78.785156c-1.722656-3.90625.050781-8.46875 3.957031-10.1875s8.464844.054688 10.183594 3.960938l27.695313 62.917968 28.414062-62.984375c1.757813-3.886719 6.332031-5.621093 10.222657-3.863281 3.886718 1.753906 5.617187 6.328125 3.863281 10.21875l-35.546875 78.785156c-1.246094 2.773438-4.003906 4.550782-7.039063 4.550782zm0 0" fill="#4172cc"/><path d="m326.902344 180.554688c-1.664063 0-3.339844-.535157-4.75-1.636719l-38.074219-29.722657v23.632813c0 4.265625-3.460937 7.726563-7.726563 7.726563-4.265624 0-7.726562-3.460938-7.726562-7.726563v-78.785156c0-4.269531 3.460938-7.726563 7.726562-7.726563h39.304688c10.464844 0 18.976562 8.511719 18.976562 18.976563v18.652343c0 10.464844-8.511718 18.980469-18.976562 18.980469h-14.5l30.503906 23.8125c3.363282 2.625 3.964844 7.480469 1.335938 10.84375-1.523438 1.953125-3.796875 2.972657-6.09375 2.972657zm-42.824219-53.082032h31.578125c1.941406 0 3.523438-1.582031 3.523438-3.523437v-18.65625c0-1.941407-1.582032-3.523438-3.523438-3.523438h-31.578125zm0 0" fill="#4172cc"/><path d="m481.03125 423.4375h-450.0625c-17.101562 0-30.96875-13.867188-30.96875-30.96875v-70.746094c0-17.105468 13.867188-30.96875 30.96875-30.96875h450.0625c17.101562 0 30.96875 13.863282 30.96875 30.96875v70.746094c0 17.101562-13.867188 30.96875-30.96875 30.96875zm0 0" fill="#9fecfd"/><path d="m481.03125 290.753906h-33.996094c17.101563 0 30.96875 13.863282 30.96875 30.96875v70.746094c0 17.101562-13.867187 30.96875-30.96875 30.96875h33.996094c17.101562 0 30.96875-13.867188 30.96875-30.96875v-70.746094c0-17.105468-13.867188-30.96875-30.96875-30.96875zm0 0" fill="#77e5fd"/><path d="m404.6875 469.113281h-94.503906c-7.738282 0-15.125-3.234375-20.378906-8.917969l-10.660157-11.539062c-5.253906-5.683594-12.640625-8.914062-20.378906-8.914062h-2.863281c-7.738282 0-15.125 3.230468-20.378906 8.914062l-10.660157 11.539062c-5.253906 5.683594-12.640625 8.917969-20.378906 8.917969h-97.171875c-34.226562 0-61.96875-27.75-61.96875-61.980469v-100.074218c0-34.230469 27.742188-61.980469 61.96875-61.980469h297.375c34.222656 0 61.96875 27.75 61.96875 61.980469v100.070312c0 34.234375-27.742188 61.984375-61.96875 61.984375zm0 0" fill="#4172cc"/><path d="m404.6875 245.078125h-33.996094c34.222656 0 61.96875 27.75 61.96875 61.980469v100.070312c0 34.234375-27.742187 61.984375-61.96875 61.984375h33.996094c34.222656 0 61.96875-27.75 61.96875-61.984375v-100.070312c0-34.230469-27.742188-61.980469-61.96875-61.980469zm0 0" fill="#3567c3"/><path d="m214.542969 245.078125-168.824219 168.824219c2.878906 26.484375 22.433594 47.945312 47.949219 53.683594l216.171875-222.507813zm0 0" fill="#2d56a1"/><path d="m327.054688 469.113281h77.632812c34.222656 0 61.96875-27.75 61.96875-61.984375v-100.070312c0-6.332032-.953125-12.4375-2.71875-18.191406zm0 0" fill="#2d56a1"/><path d="m463.9375 288.867188-31.277344 41.183593v77.078125c0 34.234375-27.742187 61.984375-61.96875 61.984375h33.996094c34.222656 0 61.96875-27.75 61.96875-61.984375v-100.070312c0-6.332032-.953125-12.4375-2.71875-18.191406zm0 0" fill="#24447f"/></svg>