<?xml version="1.0" encoding="iso-8859-1"?>
<!-- Generator: Adobe Illustrator 19.0.0, SVG Export Plug-In . SVG Version: 6.00 Build 0)  -->
<svg version="1.1" id="Capa_1" xmlns="http://www.w3.org/2000/svg" xmlns:xlink="http://www.w3.org/1999/xlink" x="0px" y="0px"
	 viewBox="0 0 511.999 511.999" style="enable-background:new 0 0 511.999 511.999;" xml:space="preserve">
<path style="fill:#9BD278;" d="M256,174.685c-61.804,0-120.78,18.364-171.117,53.197c-3.813,2.639-4.56,8.01-1.716,11.672
	l21.8,28.07c2.643,3.403,7.438,4.074,11.005,1.657c41.425-28.07,89.63-42.845,140.026-42.845c50.403,0,98.615,14.772,139.925,42.807
	c3.565,2.42,8.36,1.753,11.006-1.648l21.814-28.036c2.848-3.66,2.105-9.032-1.706-11.674C376.774,193.048,317.8,174.685,256,174.685
	z"/>
<path style="fill:#87C37D;" d="M281.6,412.681c-8.081-3.15-16.792-4.8-25.586-4.8c-8.82,0-17.557,1.66-25.73,4.85
	c-5.008,1.955-6.597,8.324-3.29,12.562l22.592,28.954c3.26,4.178,9.583,4.168,12.83-0.021l22.482-29.009
	C288.183,420.979,286.596,414.628,281.6,412.681z"/>
<g>
	<path style="fill:#9BD278;" d="M256.041,54.625c86.161,0,172.322,25.926,245.081,77.779c3.754,2.675,4.486,8.006,1.662,11.65
		l-21.745,28.056c-2.667,3.441-7.534,4.1-11.088,1.586c-62.797-44.425-136.575-67.844-213.952-67.844
		c-77.378,0-151.156,23.417-213.953,67.844c-3.554,2.514-8.421,1.854-11.088-1.586L9.214,144.053
		c-2.824-3.644-2.092-8.975,1.662-11.65c72.761-51.853,158.922-77.779,245.081-77.779"/>
	<path style="fill:#9BD278;" d="M255.999,295.436c-34.574,0-67.864,9.711-96.697,28.124c-3.962,2.53-4.773,8.006-1.901,11.728
		l21.786,28.228c2.562,3.319,7.161,4.029,10.759,1.876c19.941-11.933,42.625-18.207,66.055-18.207
		c23.428,0,46.112,6.274,66.054,18.207c3.598,2.153,8.197,1.443,10.759-1.876l21.785-28.228c2.872-3.722,2.061-9.198-1.901-11.728
		C323.863,305.147,290.575,295.436,255.999,295.436z"/>
</g>
<g>
	<path style="fill:#87C37D;" d="M255.999,74.634c-89.59,0-172.158,29.942-238.354,80.298l13.314,17.179
		c2.666,3.44,7.534,4.1,11.088,1.585C104.843,129.27,178.622,105.853,256,105.853c77.377,0,151.155,23.417,213.952,67.843
		c3.554,2.515,8.421,1.855,11.088-1.585l13.314-17.179C428.156,104.576,345.589,74.634,255.999,74.634z"/>
	<path style="fill:#87C37D;" d="M255.999,196.527c-61.466,0-118.16,20.389-163.727,54.749l12.696,16.348
		c2.643,3.403,7.438,4.075,11.005,1.657c41.425-28.07,89.63-42.845,140.026-42.845c50.404,0,98.615,14.772,139.925,42.807
		c3.565,2.419,8.36,1.753,11.006-1.648l12.734-16.366C374.109,216.897,317.437,196.527,255.999,196.527z"/>
	<path style="fill:#87C37D;" d="M255.999,318.42c-33.337,0-64.037,10.985-88.966,29.348l12.154,15.746
		c2.562,3.32,7.16,4.029,10.758,1.877c19.941-11.933,42.625-18.206,66.055-18.206c23.428,0,46.112,6.273,66.054,18.206
		c3.598,2.153,8.197,1.443,10.758-1.877l12.153-15.746C320.035,329.405,289.337,318.42,255.999,318.42z"/>
</g>
<path d="M511.834,136.774c-0.623-4.25-2.879-7.955-6.354-10.434c-36.418-25.976-76.675-45.972-119.649-59.434
	c-41.949-13.14-85.637-19.802-129.849-19.802c-44.199,0-87.877,6.658-129.818,19.789C83.2,80.344,42.948,100.326,6.524,126.283
	c-3.475,2.477-5.733,6.18-6.358,10.429c-0.621,4.219,0.517,8.565,3.121,11.925l21.747,28.06c5.115,6.599,14.493,7.965,21.348,3.114
	c61.47-43.487,133.962-66.474,209.642-66.474c61.198,0,119.17,14.566,172.308,43.294c3.642,1.971,8.194,0.612,10.165-3.031
	c1.97-3.644,0.613-8.194-3.031-10.164c-55.353-29.925-115.725-45.099-179.441-45.099c-78.8,0-154.289,23.938-218.306,69.229
	c-0.251,0.178-0.618,0.215-0.829-0.059l-21.747-28.06c-0.151-0.195-0.158-0.408-0.136-0.552c0.039-0.266,0.178-0.365,0.223-0.397
	c35.133-25.037,73.965-44.312,115.415-57.29c40.489-12.676,82.659-19.104,125.337-19.104c42.69,0,84.87,6.432,125.365,19.116
	c41.461,12.987,80.295,32.275,115.423,57.331c0.046,0.033,0.185,0.132,0.224,0.397c0.021,0.144,0.014,0.356-0.138,0.552
	l-21.734,28.007c-0.211,0.274-0.576,0.236-0.828,0.059c-3.598-2.548-7.285-5.063-10.958-7.477c-3.463-2.275-8.113-1.312-10.387,2.15
	s-1.312,8.112,2.15,10.387c3.529,2.317,7.07,4.734,10.527,7.182c2.764,1.957,5.937,2.902,9.076,2.902
	c4.646,0,9.217-2.072,12.27-6.007l21.734-28.006C511.313,145.339,512.453,140.994,511.834,136.774z"/>
<path d="M431.352,221.717c-51.482-35.681-112.11-54.541-175.329-54.541c-63.191,0-123.843,18.857-175.401,54.534
	c-3.477,2.406-5.842,6.199-6.489,10.406c-0.655,4.255,0.481,8.643,3.117,12.036l21.802,28.072c3.036,3.908,7.632,5.978,12.303,5.978
	c3.051,0,6.133-0.883,8.833-2.712c40.122-27.188,87.093-41.559,135.833-41.559c48.771,0,95.705,14.356,135.727,41.518
	c6.83,4.636,16.115,3.208,21.138-3.249l21.816-28.039c2.639-3.391,3.779-7.776,3.128-12.033
	C437.189,227.92,434.827,224.125,431.352,221.717z M422.866,234.951l-21.817,28.039c-0.224,0.29-0.611,0.228-0.875,0.048
	c-42.517-28.854-92.364-44.105-144.15-44.105c-51.752,0-101.632,15.264-144.247,44.141c-0.272,0.185-0.662,0.228-0.876-0.049
	l-21.802-28.073c-0.163-0.209-0.156-0.438-0.138-0.555c0.037-0.239,0.158-0.323,0.198-0.352
	c49.037-33.933,106.739-51.868,166.866-51.868c60.15,0,117.822,17.936,166.784,51.868c0.04,0.028,0.162,0.112,0.198,0.352
	C423.023,234.514,423.029,234.742,422.866,234.951z"/>
<path d="M356.767,317.245c-30.022-19.172-64.859-29.306-100.743-29.306c-18.167,0-36.119,2.584-53.357,7.68
	c-3.972,1.175-6.24,5.347-5.066,9.318c1.175,3.973,5.347,6.24,9.319,5.066c15.856-4.688,32.377-7.064,49.104-7.064
	c33.017,0,65.063,9.318,92.669,26.948c0.032,0.021,0.107,0.068,0.14,0.253c0.017,0.096,0.037,0.345-0.14,0.573l-21.788,28.23
	c-0.233,0.303-0.708,0.18-0.97,0.022c-21.07-12.608-45.245-19.272-69.911-19.272c-24.565,0-48.748,6.61-69.935,19.116
	c-0.31,0.184-0.742,0.253-0.975-0.049l-21.901-28.053c-0.149-0.189-0.153-0.383-0.131-0.512c0.032-0.188,0.122-0.245,0.164-0.271
	c4.817-3.069,9.828-5.926,14.894-8.49c3.696-1.87,5.175-6.383,3.304-10.078c-1.871-3.696-6.383-5.175-10.079-3.305
	c-5.505,2.786-10.949,5.89-16.18,9.224c-3.641,2.32-6.151,6.104-6.886,10.38c-0.746,4.336,0.381,8.813,3.092,12.285l21.883,28.029
	c4.796,6.19,13.584,7.804,20.441,3.757c18.877-11.144,40.422-17.033,62.309-17.033c21.954,0,43.465,5.929,62.209,17.144
	c2.572,1.539,5.414,2.28,8.217,2.28c4.709,0,9.308-2.092,12.331-6.01l21.788-28.23c2.689-3.486,3.798-7.975,3.042-12.314
	C362.868,323.309,360.374,319.548,356.767,317.245z"/>
<path d="M284.351,405.708c-9.042-3.524-18.568-5.312-28.313-5.312c-9.767,0-19.342,1.805-28.46,5.363
	c-4.561,1.78-7.926,5.534-9.235,10.3c-1.313,4.784-0.282,9.967,2.759,13.863l22.594,28.957c2.982,3.823,7.472,6.015,12.319,6.015
	c0.008,0,0.017-0.001,0.025-0.001c4.858-0.007,9.351-2.213,12.328-6.054l22.483-29.012c3.025-3.902,4.042-9.082,2.721-13.857
	C292.259,411.221,288.897,407.48,284.351,405.708z M278.996,420.639l-22.483,29.012c-0.052,0.066-0.188,0.242-0.496,0.243h-0.001
	c-0.306-0.001-0.442-0.176-0.494-0.241l-22.595-28.958c-0.194-0.249-0.159-0.522-0.12-0.664c0.065-0.236,0.173-0.278,0.225-0.299
	c7.372-2.877,15.112-4.336,23.005-4.336c7.873,0,15.565,1.442,22.864,4.288l0,0c0.053,0.021,0.15,0.059,0.213,0.286
	C279.155,420.112,279.192,420.386,278.996,420.639z"/>
<g>
</g>
<g>
</g>
<g>
</g>
<g>
</g>
<g>
</g>
<g>
</g>
<g>
</g>
<g>
</g>
<g>
</g>
<g>
</g>
<g>
</g>
<g>
</g>
<g>
</g>
<g>
</g>
<g>
</g>
</svg>
