<svg id="icons" enable-background="new 0 0 64 64" height="512" viewBox="0 0 64 64" width="512" xmlns="http://www.w3.org/2000/svg"><path d="m42 19.151c-.033.02-.071.025-.104.049l-1.997 1.5c-.441.332-.53.959-.199 1.4.196.262.497.399.801.399.209 0 .42-.065.6-.2l.069-.052c-.975 3.32-4.043 5.753-7.673 5.753-2.425 0-4.691-1.083-6.22-2.971-.347-.429-.978-.495-1.406-.148-.43.348-.496.978-.148 1.406 1.91 2.359 4.743 3.713 7.774 3.713 4.633 0 8.529-3.173 9.659-7.456l.044.059c.196.262.497.399.801.399.209 0 .42-.065.6-.2.441-.332.53-.959.199-1.4l-1.503-2.002c-.015-.02-.036-.028-.052-.046-.046-.053-.098-.095-.153-.137-.05-.037-.097-.074-.151-.102-.056-.028-.116-.044-.178-.062-.065-.019-.128-.035-.195-.04-.025 0-.047-.013-.071-.013-.042 0-.077.019-.117.023-.066.008-.13.018-.194.039-.067.023-.125.054-.186.089z"/><path d="m60.496 26.998c0-5.191-3.979-9.469-9.048-9.95-.5-9.482-8.347-17.048-17.951-17.048-7.442 0-13.845 4.541-16.581 10.998h-.412c-7.168 0-13 5.833-13 13.002 0 5.396 3.305 10.031 7.996 11.995v3.066c-3.939.495-7 3.859-7.001 7.931.001 4.411 3.591 8 8.001 8 4.411 0 7.999-3.589 7.999-8 0-4.072-3.06-7.436-6.999-7.931v-2.426c.966.23 1.969.365 3.004.365h13.997v7.051c-5.046.504-9 4.773-9 9.949 0 5.514 4.486 10 10 10s10-4.486 10-10c0-5.176-3.954-9.445-9-9.949v-7.051h16.995v2.062c-3.939.495-7 3.859-7.001 7.931.001 4.411 3.591 8 8.001 8 4.411 0 7.999-3.589 7.999-8 0-4.072-3.06-7.436-6.999-7.931v-2.112c5.046-.504 9-4.774 9-9.952zm-41.997 19.994c0 3.309-2.691 6-5.999 6-3.309 0-6-2.691-6.001-6 .001-3.309 2.692-6 6.001-6 3.308 0 5.999 2.692 5.999 6zm21.002 7.008c0 4.411-3.589 8-8 8s-8-3.589-8-8 3.589-8 8-8 8 3.589 8 8zm-33.997-30c0-5.969 4.78-10.833 10.712-10.987-.458 1.586-.718 3.256-.718 4.987 0 .553.447 1 1 1s1-.447 1-1c0-8.822 7.177-16 15.999-16s15.999 7.178 15.999 16c0 .553.447 1 1 1h.001c4.411 0 7.999 3.588 7.999 7.998 0 4.412-3.588 8.002-7.999 8.002h-33.993c-6.066 0-11-4.935-11-11zm50.991 22.992c0 3.309-2.691 6-5.999 6-3.309 0-6-2.691-6.001-6 .001-3.309 2.692-6 6.001-6 3.308 0 5.999 2.692 5.999 6z"/><path d="m33.792 56.703c.195.195.451.293.707.293s.512-.098.707-.293l1.993-1.992c.002-.002.004-.002.006-.004.195-.195.293-.452.293-.708s-.098-.513-.293-.708c-.002-.002-.004-.002-.006-.004l-1.993-1.994c-.391-.391-1.023-.391-1.414 0s-.391 1.023 0 1.414l1.291 1.292-1.291 1.29c-.391.391-.391 1.024 0 1.414z"/><path d="m29.208 51.293c-.391-.391-1.023-.391-1.414 0l-1.988 1.99c-.004.004-.009.004-.012.008-.196.196-.293.452-.292.709-.001.257.096.514.292.709.003.004.008.004.012.008l1.988 1.988c.195.195.451.293.707.293s.512-.098.707-.293c.391-.391.391-1.023 0-1.414l-1.291-1.291 1.291-1.293c.391-.391.391-1.024 0-1.414z"/><path d="m30.259 58.972c.081.021.163.03.243.03.448 0 .855-.303.969-.758l1.999-8.002c.135-.535-.191-1.078-.728-1.212-.538-.137-1.079.191-1.212.728l-1.999 8.002c-.135.535.192 1.078.728 1.212z"/><path d="m52.784 48.707c.195.195.451.293.707.293s.512-.098.707-.293l.995-.994c.002-.002.004-.002.006-.004.195-.195.293-.452.293-.708s-.098-.513-.293-.708c-.002-.002-.004-.002-.006-.004l-.99-.99c-.391-.391-1.023-.391-1.414 0s-.391 1.023 0 1.414l.288.288-.293.292c-.39.39-.39 1.023 0 1.414z"/><path d="m48.205 45.295c-.391-.391-1.023-.391-1.414 0l-.995.994c-.002.002-.004.002-.006.004-.195.195-.293.452-.293.708s.098.513.293.708c.002.002.004.002.006.004l.995.994c.195.195.451.293.707.293s.512-.098.707-.293c.391-.391.391-1.024 0-1.414l-.292-.292.292-.292c.391-.39.391-1.023 0-1.414z"/><path d="m50.023 44.754-.998 3.998c-.133.536.192 1.079.729 1.213.081.02.163.029.243.029.448 0 .855-.304.97-.758l.998-3.998c.133-.536-.192-1.079-.729-1.213-.538-.131-1.079.194-1.213.729z"/><path d="m14.788 48.707c.195.195.451.293.707.293s.512-.098.707-.293l.995-.994c.002-.002.004-.002.006-.004.195-.195.293-.452.293-.708s-.098-.513-.293-.708c-.002-.002-.004-.002-.006-.004l-.99-.99c-.391-.391-1.023-.391-1.414 0s-.391 1.023 0 1.414l.288.288-.293.292c-.391.39-.391 1.023 0 1.414z"/><path d="m10.209 45.295c-.391-.391-1.023-.391-1.414 0l-.995.994c-.002.002-.004.002-.006.004-.195.195-.293.452-.293.708s.098.513.293.708c.002.002.004.002.006.004l.995.994c.195.195.451.293.707.293s.512-.098.707-.293c.391-.391.391-1.024 0-1.414l-.292-.292.292-.292c.391-.39.391-1.023 0-1.414z"/><path d="m12.027 44.754-.998 3.998c-.133.536.192 1.079.729 1.213.081.02.163.029.243.029.448 0 .855-.304.97-.758l.998-3.998c.133-.536-.192-1.079-.729-1.213-.535-.131-1.079.194-1.213.729z"/><path d="m23.698 20.604c.001.001.001.001.002.001v.001c.013.017.032.022.046.038.068.081.15.144.241.199.026.017.045.046.072.06.008.004.017.002.024.006.127.059.266.096.415.096h.001c.104 0 .209-.017.311-.05.01-.003.017-.01.025-.013.006-.002.011-.007.017-.009.04-.015.073-.037.11-.057.045-.024.094-.039.136-.071.001 0 .001-.001.002-.002l1.997-1.504c.441-.332.529-.959.197-1.4-.331-.439-.956-.529-1.4-.197l-.067.051c.976-3.317 4.043-5.748 7.672-5.748 2.425 0 4.691 1.083 6.22 2.971.347.429.977.495 1.406.148.43-.348.496-.978.148-1.406-1.91-2.359-4.743-3.713-7.774-3.713-4.632 0-8.527 3.17-9.658 7.451l-.04-.053c-.33-.44-.958-.533-1.4-.201-.441.331-.532.958-.201 1.4z"/></svg>